<?xml version="1.0" encoding="UTF-8"?>
<svg xmlns="http://www.w3.org/2000/svg" xmlns:cc="http://creativecommons.org/ns#" xmlns:dc="http://purl.org/dc/elements/1.1/" xmlns:rdf="http://www.w3.org/1999/02/22-rdf-syntax-ns#" data-name="Ebene 1" version="1.1" viewBox="0 0 745.51 419.53">
  <title>Ein Mann mit Fahrrad und eine joggende Frau</title>
  <defs>
    <style>.cls-1 {
        fill: none;
        stroke: #c4362e;
        stroke-miterlimit: 10;
        stroke-width: 12px;
      }

      .cls-2, .cls-3, .cls-4, .cls-5, .cls-6, .cls-7, .cls-8, .cls-9, .cls-10, .cls-11, .cls-12, .cls-13, .cls-14, .cls-15, .cls-16, .cls-17, .cls-18 {
        stroke-width: 0px;
      }

      .cls-3 {
        fill: #2c295b;
      }

      .cls-4 {
        fill: #3b3b60;
      }

      .cls-5 {
        fill: #222221;
      }

      .cls-6 {
        fill: #222;
      }

      .cls-7 {
        fill: #dc8f2f;
      }

      .cls-8 {
        fill: #a9c6ac;
      }

      .cls-9 {
        fill: #bd5955;
      }

      .cls-10 {
        fill: #bfd4c0;
      }

      .cls-11 {
        fill: #a9223e;
      }

      .cls-12 {
        fill: #8fb8f2;
      }

      .cls-13 {
        fill: #c4362e;
      }

      .cls-14 {
        fill: #65a8dc;
      }

      .cls-15 {
        fill: #8c7764;
      }

      .cls-16 {
        fill: #e4b898;
      }

      .cls-17 {
        fill: #e6ad47;
      }

      .cls-18 {
        fill: #e9edf8;
      }</style>
  </defs>
  <rect class="cls-10" x="-8.5" y="-8.5" width="762.52" height="436.54"></rect>
  <rect class="cls-8" x="-8.5" y="341.8" width="762.52" height="87.42"></rect>
  <polygon class="cls-11" points="153.77 397.88 153.77 392.98 173.6 386.02 184.77 386.02 186.71 397.88"></polygon>
  <polygon class="cls-11" points="266.29 397.88 266.29 392.98 246.57 386.02 235.28 386.02 233.35 397.88"></polygon>
  <rect class="cls-15" x="238.16" y="366.32" width="9.06" height="21.9"></rect>
  <rect class="cls-15" transform="translate(-228.74 466.13) rotate(-76.86)" x="168.42" y="372.68" width="21.9" height="9.06"></rect>
  <polygon class="cls-3" points="239.1 179.26 252.41 378.97 231.17 378.97 221.83 251.27 190.21 378.97 167.56 378.97 217.11 179.26"></polygon>
  <rect class="cls-15" x="223.72" y="143.67" width="17.93" height="12.18"></rect>
  <path class="cls-15" d="M237.4,109.6c-6.23-.38-11.61,5-11.99,11.99-.28,3.59.94,7.17,3.4,9.81.85.94,1.04,2.27.57,3.3l-4.53,9.72,10.76.38,1.51-7.64c.28-1.32,1.32-2.27,2.64-2.45,8.5-1.13,7.93-5.85,8.02-11.7.19-10.19-4.15-13.12-10.38-13.4"></path>
  <path class="cls-3" d="M236.93,116.68c.57.66,14.82.57,13.87-6.8-.66-5.28-6.89-2.36-9.63-2.26-5.57.28-7.55.38-10.29,1.51-2.83,1.23-5.1,3.49-6.51,6.23-2.93,6.42,1.13,12.83,1.42,13.21,3.59-1.51,6.32-4.53,7.46-8.31v4.06c0,1.04.85,1.89,1.89,1.89s1.89-.85,1.79-1.89c.09-2.55.19-5.1,0-7.64"></path>
  <path class="cls-15" d="M233.34,119.98h-.28c-1.42,0-2.64,1.13-2.64,2.64,0,1.42,1.13,2.64,2.64,2.64h.28v-5.29Z"></path>
  <path class="cls-15" d="M247.22,118.57l3.11,6.42c.19.38,0,.94-.38,1.13-.09,0-.19.09-.28.09l-2.45.19c-.28.09-.66-.09-.76-.38v-.19l.28-3.21c.09-.47.19-4.34.47-4.06"></path>
  <path class="cls-6" d="M243.35,120.74c.52,0,.94.42.94.94s-.42.94-.94.94-.94-.42-.94-.94.42-.94.94-.94"></path>
  <path class="cls-13" d="M247.97,233.05l-.94-89.85h-8.87v.57c-.19,3.96-3.49,7.17-7.55,6.98-3.78-.09-6.89-3.21-6.98-6.98v-.57h-6.99c-4.62,0-9.16.85-13.4,2.55-7.17,2.83-17.27,8.5-21.8,18.59-5,10.95-6.61,23.03-4.81,34.92,1.6,10.95,5.47,19.82,9.63,29.26l.38.94,12.93-5.66-.38-.94c-3.87-8.87-7.27-16.52-8.59-25.58-1.04-6.98-1.23-17.27,3.4-26.43,2.55-5.1,6.32-9.63,12.65-12.18l-5.29,74.28,46.63.09Z"></path>
  <path class="cls-15" d="m198.14 236.17c1.7-0.85 2.36-2.83 1.6-4.53l-3.11-6.51-6.23 2.74 3.3 6.7c0.66 1.7 2.74 2.36 4.44 1.6"></path>
  <rect class="cls-5" x="252.28" y="319.47" width="17.38" height="4.94"></rect>
  <path class="cls-2" d="M261.13,321.43h0c-.75-.24-1.56.17-1.8.92l-7.61,23.64c-.24.75.17,1.56.92,1.8s1.56-.17,1.8-.92l7.61-23.64c.24-.75-.17-1.56-.92-1.8"></path>
  <path class="cls-2" d="m161.93 328.13h0.31l92.26 4.46c4.01 0.19 7.78 2.08 10.35 5.17 2.56 3.09 3.72 7.14 3.17 11.12s-2.76 7.57-6.06 9.85-7.44 3.08-11.36 2.18l-90.04-20.61c-3.14-0.72-5.18-3.67-4.74-6.85 0.42-3.09 3.02-5.33 6.1-5.33m91.87 34.82c3.23 0 6.42-0.97 9.12-2.84 3.69-2.55 6.15-6.55 6.76-10.99s-0.68-8.96-3.54-12.41-7.07-5.55-11.55-5.77l-92.26-4.46c-4.09-0.2-7.58 2.71-8.14 6.76s2.03 7.79 6.01 8.7l90.04 20.61c1.18 0.27 2.37 0.4 3.56 0.4"></path>
  <path class="cls-2" d="m366.78 278.21c30.73 0 55.74 25 55.74 55.74s-25 55.74-55.74 55.74-55.74-25-55.74-55.74 25.01-55.74 55.74-55.74m0 119.67c35.25 0 63.93-28.68 63.93-63.93s-28.68-63.93-63.93-63.93-63.93 28.68-63.93 63.93 28.68 63.93 63.93 63.93"></path>
  <path class="cls-2" d="m366.78 349.55c8.6 0 15.6-7 15.6-15.6s-7-15.6-15.6-15.6-15.6 7-15.6 15.6 7 15.6 15.6 15.6"></path>
  <path class="cls-2" d="m161.98 278.21c30.73 0 55.74 25 55.74 55.74s-25 55.74-55.74 55.74-55.74-25-55.74-55.74 25.01-55.74 55.74-55.74m0 119.67c35.25 0 63.93-28.68 63.93-63.93s-28.68-63.93-63.93-63.93-63.93 28.68-63.93 63.93 28.68 63.93 63.93 63.93"></path>
  <path class="cls-2" d="m161.98 349.55c8.6 0 15.6-7 15.6-15.6s-7-15.6-15.6-15.6-15.6 7-15.6 15.6 7 15.6 15.6 15.6"></path>
  <path class="cls-14" d="M192.9,336.1l50.46,6.87c.72-1.83,1.95-3.41,3.5-4.57l-23.07-57.51-37.54,33.43c-7.99,7.12-3.96,20.33,6.64,21.77M229.56,277.42l23.62,58.86c1.77,0,3.43.44,4.9,1.21l58.19-74.15-86.7,14.07ZM156.2,332.18l64.96-57.85-12.8-31.92c-.59-1.47-.13-3.21,1.2-4.08,1.82-1.2,4.17-.39,4.94,1.52l12.54,31.24,92.77-15.06-8.08-25.39c-.41-1.3,0-2.71,1.06-3.58l11.01-9.04c1.23-1.01,3.02-1.09,4.25-.09,1.69,1.38,1.63,3.86.03,5.17l-9.34,7.66,11.38,35.75c7.83,24.61,21.35,47.55,39.08,66.33,1.26,1.34,1.2,3.44-.14,4.7-.64.61-1.46.91-2.28.91-.88,0-1.76-.35-2.42-1.04-18.42-19.5-32.45-43.32-40.58-68.88l-.91-2.84-60.15,76.65c.65,1.37,1.02,2.89,1.02,4.5,0,5.83-4.73,10.56-10.56,10.56-4.87,0-8.96-3.3-10.18-7.78l-85.13-11.59c-1.58-.21-2.83-1.53-2.88-3.22-.03-1.01.45-1.97,1.2-2.64"></path>
  <path class="cls-5" d="m192.32 237.15c0 2.12 3.51 8.16 15.77 8.16s28.61-6.03 28.61-8.16-9.93-3.84-22.19-3.84-22.19 1.72-22.19 3.84"></path>
  <path class="cls-5" d="m253.18 332.77c7.76 0 14.08 6.32 14.08 14.08s-6.32 14.08-14.08 14.08-14.08-6.32-14.08-14.08 6.32-14.08 14.08-14.08m0 31.91c9.83 0 17.83-8 17.83-17.83s-8-17.83-17.83-17.83-17.83 8-17.83 17.83 8 17.83 17.83 17.83"></path>
  <path class="cls-2" d="m247.56 346.85c0 3.1 2.52 5.62 5.62 5.62s5.62-2.52 5.62-5.62-2.52-5.62-5.62-5.62-5.62 2.52-5.62 5.62"></path>
  <path class="cls-2" d="m321.98 220.25c0 2.44 1.98 4.42 4.42 4.42s4.42-1.98 4.42-4.42-1.98-4.42-4.42-4.42-4.42 1.98-4.42 4.42"></path>
  <path class="cls-5" d="m323.56 220.25c0 1.57 1.27 2.84 2.84 2.84s2.84-1.27 2.84-2.84-1.27-2.84-2.84-2.84-2.84 1.27-2.84 2.84"></path>
  <path class="cls-2" d="M253.34,345.64h0c-.75-.24-1.56.17-1.8.92l-7.61,23.64c-.24.75.17,1.56.92,1.8s1.56-.17,1.8-.92l7.61-23.64c.24-.75-.17-1.56-.92-1.8"></path>
  <rect class="cls-5" x="236.7" y="367.87" width="17.38" height="4.94"></rect>
  <path class="cls-18" d="M160.62,81.75c1.15-11.36-6.83-22.47-17.7-26.27-8.54-2.98-23.92-2.06-31.83,4.98-7.18-9.36-19.7-14.54-31.47-11.04-11.8,3.51-19.68,14.69-20.58,26.54-6.13-1.29-12.69.17-17.79,4.13-7.53,5.86-10.1,16.39-7.41,25.38,2.7,9.05,10.38,15.71,19.27,18.42,8.63,2.63,17.76,1.14,25.72-2.73,5.21,10.13,17.71,15.23,28.99,13.36,7.06-1.17,13.42-4.65,18.96-9.09,1.41-1.13,3.74-2.63,4.68-4.2.49.35,1,.69,1.51,1.01,2.97,1.83,6.35,3.26,9.76,4.02,13.52,3.02,29.18-4.05,32.56-18.33,2.73-11.54-3.87-23.56-14.67-26.19"></path>
  <path class="cls-7" d="m702.83 78.23c0 19.02-16.01 34.3-35.29 33.1-16.52-1.03-29.96-14.47-30.98-30.99-1.19-19.28 14.08-35.28 33.1-35.28s33.17 14.85 33.17 33.17"></path>
  <rect class="cls-17" x="667.02" y="21.56" width="5.29" height="13.9"></rect>
  <rect class="cls-17" transform="translate(68.86 327.24) rotate(-30.01)" x="642.16" y="28.22" width="5.29" height="13.9"></rect>
  <rect class="cls-17" transform="translate(267.03 569.31) rotate(-59.99)" x="623.96" y="46.42" width="5.29" height="13.9"></rect>
  <rect class="cls-17" x="613" y="75.58" width="13.9" height="5.29"></rect>
  <rect class="cls-17" transform="translate(32.43 327.17) rotate(-30.01)" x="619.66" y="100.44" width="13.9" height="5.29"></rect>
  <rect class="cls-17" transform="translate(217.26 618.97) rotate(-59.99)" x="637.86" y="118.64" width="13.9" height="5.29"></rect>
  <rect class="cls-17" x="667.02" y="120.99" width="5.29" height="13.9"></rect>
  <rect class="cls-17" transform="translate(32.4 363.5) rotate(-30)" x="691.88" y="114.33" width="5.29" height="13.9"></rect>
  <rect class="cls-17" transform="translate(266.92 668.64) rotate(-59.98)" x="710.07" y="96.13" width="5.29" height="13.9"></rect>
  <rect class="cls-17" x="712.43" y="75.58" width="13.9" height="5.29"></rect>
  <rect class="cls-17" transform="translate(68.8 363.5) rotate(-30)" x="705.77" y="50.72" width="13.9" height="5.29"></rect>
  <rect class="cls-17" transform="translate(316.68 618.98) rotate(-59.99)" x="687.57" y="32.53" width="13.9" height="5.29"></rect>
  <path class="cls-15" d="M308.25,225.92c.03-.42,1.17-7.19,1.17-7.19l-6.93-6.06,4.72-4.96,7.56,6.62c.63.56,1.3,1.21,1.76,1.83,1.95,2.57,7.5,10,7.5,10-1.36,1.16-3.27,1.22-4.68.26-.56-.38-6.73-4.81-6.73-4.81l-3.14,4.83c-.31.23-.74.2-.93-.03-.25-.1-.32-.28-.3-.49"></path>
  <path class="cls-1" d="M246.46,150.59s8.61.37,14.93,5.92c6.07,5.32,10.62,13.06,15.85,21.94,9.07,15.42,28.39,32.74,28.39,32.74"></path>
  <path class="cls-12" d="m580.17 237.49s6.53 32.74 9.93 48.21c2.87 15.35 4.16 20.82 4.96 25.11s7.55 42.62 9.68 51.51 3.46 11.95 5.06 12.26 10.91 0 15.7-1.23 6.12-0.31 5.86 2.45c-0.27 2.76-10.91 9.5-15.44 12.87-4.52 3.37-8.52 4.9-10.11 4.29-1.6-0.61-4.52-10.11-6.65-15.32s-10.91-23.6-16.24-37.08c-5.32-13.48-5.45-29.75-7.19-37.7-2.4-6.44-6.73-28.45-8.52-33.5-1.58-4.35-6.87-33.7-3.67-40.75 3.19-7.05 13.7 3.98 16.63 8.88"></path>
  <path class="cls-12" d="m566.5 248.98s-6.21 28.21-9.88 48.94c-3.92 22.03-16.02 42.03-19.75 42.03s-31.67-21.15-37.8-27.28c-6.12-6.13-21.29-18.39-23.69-20.23s-3.99-2.15-3.99-2.15-11.45 13.48-12.78 13.48-1.33-2.15-0.8-4.6 6.39-16.24 8.25-20.53 5.38-7.59 8.52-3.98c9.31 10.72 20.23 17.16 31.14 21.14 10.55 3.85 15.7 12.56 21.03 15.32 5.32 2.76 5.86-1.53 6.92-4.9s5.06-30.95 5.06-37.7 5-33.99 7.13-37.66c2.13-3.68 16.56 1.03 20.55 2.87s0.09 15.24 0.09 15.24"></path>
  <path class="cls-9" d="m542.46 242.02c0.8 0.53 3.23-10.71 3.23-10.71s-7.49-13.5-9.09-16.96-2.77-4.89-3.75-6.98c-0.56-1.21 13.33-16.71 14.13-18.04s-2.66-21.29-2.66-21.29-7.19 5.86-10.11 11.98c-2.93 6.12-13.84 22.36-14.37 25.29"></path>
  <path class="cls-9" d="m545.34 231.4c1.06-2.4-0.05-2.75 2.87-9.4 2.93-6.65 1.92-6.06 1.43-7.91-1.86-4.52-7.19-33.54-7.19-40.46s3.73-6.92 7.72-9.58 12.24-3.73 16.24-2.39c3.99 1.33 9.85 7.45 9.85 7.45s4.26 13.84 5.86 26.88-1.69 41.93-1.69 41.93"></path>
  <path class="cls-16" d="m562.03 153.09s-4.44-3.97-5.84-11.46c-1.4-7.48 5.38-12.86 10.52-14.49 5.14-1.64 11.94 2.47 14.51 6.21s1.39 7.35 1.62 8.99 2.13 3.76 2.1 5.38c0.37 1.05-3.12 1.57-3.12 1.57s-2.73 6.47-3.9 7.4c-1.17 0.94-6.77-0.32-6.77-0.32l-2.81 8.42-10.75-2.81 4.44-8.88z"></path>
  <path class="cls-4" d="M562.03,153.09s-4.44-3.97-5.84-11.46c-1.4-7.48,5.38-12.86,10.52-14.49,3.42-1.09,7.86.43,11.22,2.66-1.1-.06-2.24.2-3.27,1.08-3.51,3.04-3.97,10.52-3.97,10.52,0,0-3.97-2.81-4.44.47-.47,3.27,0,4.68.94,5.14l.94.47s-.94,4.21-1.87,4.91c-.51.38-2.43.69-4.29.86l.08-.16Z"></path>
  <path class="cls-16" d="m618.58 179.21s3.99-4.53 5.06-5.86c1.06-1.33 2.66 0 2.39 1.6s-1.06 3.19-1.06 3.19l-6.39 1.06z"></path>
  <path class="cls-16" d="m614.32 186.93s2.4-5.86 4.26-7.72 11.71-3.99 13.04-2.13 2.13 7.19 0.27 8.25c-1.86 1.07-3.19-0.53-4.26 0.27-1.06 0.8-5.06 5.06-6.65 6.39-1.6 1.33-4.26 0-4.26 0l-2.4-5.06z"></path>
  <path class="cls-9" d="m567.21 173.36c0.8-0.27 4.79-4.79 9.85-0.8s17.57 43.12 17.57 43.12 6.11-6.69 9.32-11.45c4.35-6.45 9.85-15.97 10.38-17.3 0 0 4.49 3.02 6.65 5.06 0 0-3.21 6.78-7.04 12.94-4.35 7-16.12 24.86-21.17 25.92-5.06 1.07-23.16-34.34-25.02-36.73"></path>
  <path class="cls-16" d="m604.71 362.2s0.02 0.08 0.03 0.12c2.13 8.89 3.46 11.95 5.06 12.26s10.91 0 15.7-1.23 6.12-0.31 5.86 2.45c-0.27 2.76-10.91 9.5-15.44 12.87-4.52 3.37-8.52 4.9-10.11 4.29-1.6-0.61-4.53-10.11-6.65-15.32-0.78-1.91-2.47-5.61-4.54-10.19 3.82-1.23 7.42-3.38 10.1-5.26"></path>
  <path class="cls-4" d="M625.5,373.35c5.89-2.11,6.12-.31,5.86,2.45-.27,2.76-10.91,9.5-15.44,12.87-4.52,3.37-8.52,4.9-10.11,4.29-1.23-.47-3.26-6.25-5.1-11.26l6.17-.69.53-4.29c.29-2.34.97-2.75,1.54-2.65.28.26.57.45.86.51,1.6.31,10.91,0,15.7-1.23"></path>
  <path class="cls-16" d="m466.07 278.65c1.86-4.29 5.38-7.59 8.52-3.98 4.49 5.17 9.36 9.32 14.41 12.7-1.21 1.09-2.51 2.65-3.76 5.07-1.12 2.16-1.95 4.12-2.59 5.86-3.49-2.87-6.33-5.15-7.26-5.86-2.4-1.84-3.99-2.15-3.99-2.15s-11.45 13.48-12.78 13.48-1.33-2.15-0.8-4.6 6.39-16.24 8.25-20.53"></path>
  <path class="cls-4" d="m466.07 278.65c1.86-4.29 5.38-7.59 8.52-3.98 0.7 0.8 1.42 1.53 2.14 2.29-0.67-0.4-1.71-0.43-2.94 1.69-2.13 3.68-5.59 10.42-5.59 10.42s3.19-0.61 3.19 1.23c0 0-11.45 13.48-12.78 13.48s-1.33-2.15-0.8-4.6 6.39-16.24 8.25-20.53"></path>
  <path class="cls-4" d="m556.42 136.73s-0.47-7.25-13.79-10.29c-13.33-3.04-25.01 0.94-25.48 11.92-0.47 10.99 6.55 18.24 8.42 18.94s0.94-3.74 2.57-4.21c1.64-0.47 7.01 6.78 6.31 10.29s-13.56 1.17-15.9-0.23 0.7 3.51 3.27 7.71c2.57 4.21 8.42 10.52 17.53 6.08 9.12-4.44 10.52-14.73 8.18-19.87s-3.74-10.99-0.23-14.73 8.42-1.87 8.42-1.87 1.4-0.94 0.7-3.74"></path>
  <path class="cls-6" d="M577.92,140.01c.52,0,.94.42.94.94s-.42.94-.94.94-.94-.42-.94-.94.42-.94.94-.94"></path>
  <metadata></metadata>
</svg>
