<?xml version="1.0" encoding="UTF-8"?>
<svg xmlns="http://www.w3.org/2000/svg" xmlns:cc="http://creativecommons.org/ns#" xmlns:dc="http://purl.org/dc/elements/1.1/" xmlns:rdf="http://www.w3.org/1999/02/22-rdf-syntax-ns#" version="1.1" viewBox="0 0 745.51 419.53">
  <title>Eine bunte Schale voller Gemüse, Obst und Pilze</title>
  <defs>
    <style>.cls-1{clip-path:url(#h);}.cls-2{fill:none;}.cls-2,.cls-3,.cls-4,.cls-5,.cls-6,.cls-7,.cls-8,.cls-9,.cls-10,.cls-11,.cls-12,.cls-13,.cls-14,.cls-15,.cls-16,.cls-17,.cls-18,.cls-19,.cls-20,.cls-21,.cls-22,.cls-23,.cls-24,.cls-25,.cls-26,.cls-27,.cls-28,.cls-29,.cls-30,.cls-31,.cls-32,.cls-33,.cls-34,.cls-35,.cls-36,.cls-37,.cls-38,.cls-39,.cls-40,.cls-41,.cls-42,.cls-43,.cls-44,.cls-45,.cls-46,.cls-47,.cls-48,.cls-49,.cls-50,.cls-51,.cls-52,.cls-53,.cls-54,.cls-55,.cls-56,.cls-57,.cls-58,.cls-59,.cls-60{stroke-width:0px;}.cls-61{clip-path:url(#g);}.cls-62{clip-path:url(#d);}.cls-63{clip-path:url(#e);}.cls-64{clip-path:url(#f);}.cls-65{clip-path:url(#a);}.cls-66{clip-path:url(#b);}.cls-67{clip-path:url(#c);}.cls-3{fill:#f8e7c0;}.cls-4{fill:#4a814a;}.cls-5{fill:#5e3e1b;}.cls-6{fill:#76b053;}.cls-7{fill:#4e8a3f;}.cls-8{fill:#4f8b3f;}.cls-9{fill:#4e898f;}.cls-10{fill:#4d503e;}.cls-11{fill:#4b3b26;}.cls-12{fill:#592a7f;}.cls-13{fill:#81a54f;}.cls-14{fill:#52904c;}.cls-15{fill:#a1bf39;}.cls-16{fill:#a1bf38;}.cls-17{fill:#376280;}.cls-18{fill:#5a297f;}.cls-19{fill:#c4b99f;}.cls-20{fill:#c6394c;}.cls-21{fill:#c8556d;}.cls-22{fill:#c49244;}.cls-23{fill:#ccd6ee;}.cls-24{fill:#c4d933;}.cls-25{fill:#e1ebf8;}.cls-26{fill:#c8d788;}.cls-27{fill:#c8ad85;}.cls-28{fill:#c8d67d;}.cls-29{fill:#d5dff2;}.cls-30{fill:#d6b854;}.cls-31{fill:#e0a497;}.cls-32{fill:#d4c7ae;}.cls-33{fill:#dbe2f3;}.cls-34{fill:#d5c2a2;}.cls-35{fill:#da8f22;}.cls-36{fill:#a9223e;}.cls-37{fill:#a91f3e;}.cls-38{fill:#a6bd4c;}.cls-39{fill:#a76641;}.cls-40{fill:#a97cae;}.cls-41{fill:#d06b6d;}.cls-42{fill:#c42f36;}.cls-43{fill:#6ba843;}.cls-44{fill:#6ba844;}.cls-45{fill:#a0c039;}.cls-46{fill:#a0c038;}.cls-47{fill:#a11c27;}.cls-48{fill:#7e4b1f;}.cls-49{fill:#7f227f;}.cls-50{fill:#6aa742;}.cls-51{fill:#ede339;}.cls-52{fill:#ebcd5a;}.cls-53{fill:#e7af41;}.cls-54{fill:#e4d7c1;}.cls-55{fill:#faf1ce;}.cls-56{fill:#ece339;}.cls-57{fill:#006837;}.cls-58{fill:#69205b;}.cls-59{fill:#69205a;}.cls-60{fill:#69a341;}</style>
    <clipPath id="h">
      <rect class="cls-2" width="745.51" height="419.53"></rect>
    </clipPath>
    <clipPath id="g">
      <circle class="cls-2" cx="186.46" cy="178.99" r="112.26"></circle>
    </clipPath>
    <clipPath id="f">
      <path class="cls-2" d="m279.48 261.65c-6.81 4.7-19.88-5.05-27.2-3.1-7.73 2.05-13.92 16.85-21.69 16.61-8.09-0.19-14.26-15.62-21.64-17.11-8.57-1.79-19.78 9.83-26.19 7.96-5.03-1.43-11.09-18.43-24.94-25.69-8.57-4.46-25.93 1.57-35.28-5.95-7.96-6.39-5.63-24.16-12.94-33.33-6.42-8.12-24.46-9.85-29.36-20.38-2.52-5.29 7.24-18.35 4.05-27.81-2.41-7.08-18.43-11.83-19.62-20.36-1.04-7.79 12.97-16.01 13.94-24.39 0.98-7.69-10.6-19.49-7.01-27.27 5.11-10.88 23.7-11.64 32.63-19.18s12.17-25.55 23.22-29.91 26.07 6.93 37.67 5.64c12.2-1.25 24.65-15.14 35.66-13.35 16.49 2.77 26.27 22.22 39.41 31.02 13.47 8.97 34.85 10.46 44.34 23.59 9.49 13.12 4.37 34.43 9.53 49.46 5.4 15.94 22.16 29.92 22.09 45.35-0.07 4.09-14.38 11.53-15.91 21.94-1.04 6.91 11.18 18.15 8.27 25.91-2.51 6.98-18.53 7.33-23.25 13.83-3.67 6.31 0.86 21.9-5.77 26.51z"></path>
    </clipPath>
    <clipPath id="e">
      <path class="cls-2" d="M657.21,175.9c-2.39-1.34-4.4-3.17-5.99-5.34-5.99-7.2-21.23-11.2-33.02-6.38-5.34,2.25-9.85,6.14-12.95,11.04,1.63,3.13,7.36,12.87,18.88,16.64,13.4,4.37,25.65-2.29,30.69-5.06,4.29-2.26,8.22-5.3,11.57-8.79-3.19.08-6.3-.62-9.19-2.12"></path>
    </clipPath>
    <clipPath id="d">
      <path class="cls-2" d="M392,201.42c.65-6.59,3.17-12.84,7.46-17.92,9.36-10.95,26.99-14.94,36.79-10.59,2.71,1.47,5.68,2.16,8.79,2.39,3.68.06,7.25-.86,10.49-2.66-1.6,5.26-4.03,10.42-7.13,15.01-3.72,5.44-12.59,18.6-28.53,21.07-13.72,1.98-24.58-4.95-27.87-7.3Z"></path>
    </clipPath>
    <clipPath id="c">
      <path class="cls-2" d="M436.28,277.51c-10.9,27.17,2.35,58.02,29.52,68.92,27.17,10.9,58.02-2.35,68.92-29.52.21-.51.41-1.02.58-1.62l-98.38-39.38c-.21.51-.41,1.02-.64,1.59"></path>
    </clipPath>
    <clipPath id="b">
      <path class="cls-2" d="M600.86,261.27c-.8,4.08-.34,8.37,1.34,12.15,2.48.34,10.63.89,17.74-4.44,7.99-6.09,8.97-16.13,9.35-20.21.34-3.53.17-7.02-.58-10.42-1.22,1.97-2.95,3.57-5.05,4.62-1.81.8-3.66,1.3-5.63,1.34-3.15.25-6.69,2.02-9.76,4.73-3.52,3.12-6.42,7.48-7.41,12.24"></path>
    </clipPath>
    <clipPath id="a">
      <path class="cls-2" d="M507.38,237.11c3.09,8.29,8.38,12.17,10.79,13.73,11.27,7.05,28.93,5.72,37.46-.72,2.36-2,5.04-3.5,7.97-4.42,3.44-1.06,7.06-1.21,10.6-.59-2.68-4.27-6.05-8.01-9.95-11.18-4.69-3.77-15.89-12.88-31.63-10.7-13.54,1.82-22.58,10.96-25.24,13.88Z"></path>
    </clipPath>
  </defs>
  <g class="cls-1" clip-path="url(#h)">
    <rect class="cls-60" width="745.51" height="419.53"></rect>
    <path class="cls-57" d="M257.78,302.81c-14.17,3.41-55.78,13.86-73.92-8.02-16.09-19.09-6.56-55.42,1.41-77.99-5.45-7.86-15.68-25.68-10.92-46,7.39-30.87,48.07-58.86,98.09-55.19.63-29.13,14.2-57.07,35.45-69.21,31.05-18.03,78.12-3.31,95.38,43.21,29.8-33.97,74.86-46.5,111.79-31.88,34.37,13.68,55.75,48.46,54.64,89.16,16.9,5.93,31.49,17.57,40.66,33.25,18.99,33.59,11.37,83.76-20.48,125.77-178.02-22.65-275.08-16.15-332.1-3.1"></path>
    <path class="cls-15" d="M551.07,75.26c-18.4-2.86-37.9,7.34-49.88,25.58-6.29-.09-22.37.47-37.99,11.18-4.66,3.23-14.12,9.76-18.49,20.17-1,2.6-1.68,5.3-2.15,8.08-7.92,41.28,50.42,73.91,57.6,75.89,5.66,1.5,17.85,4.77,30.59-.84,5.28-2.38,9.97-5.89,13.75-10.29,5.9.38,16.7.12,26.81-6.21,16.77-10.59,19.89-30.57,21.95-44.21,1.81-11.52,5.42-35.28-9.47-56.33-3.78-5.37-14.23-20.12-32.73-23.02Z"></path>
    <path class="cls-8" d="M483.22,66.85c.62-9.46,4.45-15.15,6.28-17.55,8.53-10.94,25.21-15.59,34.89-11.93,2.71,1.22,5.6,1.89,8.54,1.82,3.55-.12,6.92-1.14,9.94-2.98-1.29,5.19-3.34,10.14-6.15,14.67-3.26,5.4-11.26,18.41-26.38,21.54-13.07,2.7-23.9-3.53-27.13-5.57Z"></path>
    <path class="cls-50" d="M485.05,110.16c-1.5,3.04,1.52,8.53,5.55,10.88,7.94,4.84,22.44-.68,29.08-10.73,4.6-7,6-17.04,2.89-18.86-4.2-2.53-11.63,12.99-28.98,15.65-3.44.52-7.32.54-8.54,3.07Z"></path>
    <path class="cls-59" d="M472.98,73.26c3.87-3.36,16.9,3.46,24.5,12.36,7.13,8.34,8.8,17.69,9.31,22.67l-4.42,2.65c-.72-7.32-3.26-11.7-5.67-14.43-8-8.97-20.38-6.17-24.06-14.67-1.41-2.89-1.61-6.95.34-8.59Z"></path>
    <path class="cls-50" d="M550.52,201.6c2.63,2.8,10.34-.65,13.51-2.03,11.56-5.09,16.8-15.4,19.88-21.34,5.48-10.71,5.75-19.44,6.2-33.42.23-8.62-.6-11.45-2.63-13.29-4.66-4.28-14.88-2.87-19.43,2.47-4.42,5.09-1.1,11.15-1.06,21.17-.06,25.54-21.28,41.33-16.46,46.43Z"></path>
    <circle class="cls-16" cx="186.46" cy="178.99" r="112.26"></circle>
    <g class="cls-61" clip-path="url(#g)">
      <path class="cls-28" d="m279.48 261.65c-6.81 4.7-19.88-5.05-27.2-3.1-7.73 2.05-13.92 16.85-21.69 16.61-8.09-0.19-14.26-15.62-21.64-17.11-8.57-1.79-19.78 9.83-26.19 7.96-5.03-1.43-11.09-18.43-24.94-25.69-8.57-4.46-25.93 1.57-35.28-5.95-7.96-6.39-5.63-24.16-12.94-33.33-6.42-8.12-24.46-9.85-29.36-20.38-2.52-5.29 7.24-18.35 4.05-27.81-2.41-7.08-18.43-11.83-19.62-20.36-1.04-7.79 12.97-16.01 13.94-24.39 0.98-7.69-10.6-19.49-7.01-27.27 5.11-10.88 23.7-11.64 32.63-19.18s12.17-25.55 23.22-29.91 26.07 6.93 37.67 5.64c12.2-1.25 24.65-15.14 35.66-13.35 16.49 2.77 26.27 22.22 39.41 31.02 13.47 8.97 34.85 10.46 44.34 23.59 9.49 13.12 4.37 34.43 9.53 49.46 5.4 15.94 22.16 29.92 22.09 45.35-0.07 4.09-14.38 11.53-15.91 21.94-1.04 6.91 11.18 18.15 8.27 25.91-2.51 6.98-18.53 7.33-23.25 13.83-3.67 6.31 0.86 21.9-5.77 26.51z"></path>
      <g class="cls-64" clip-path="url(#f)">
        <path class="cls-16" d="m311.57 212.07c-26.22-30.81-57.6-56.86-92.7-77.15-28.93-16.67-60.05-29.07-92.52-36.96 41.39 17.25 80.48 39.63 116.28 66.62 23.2 17.45 44.88 36.85 64.97 57.89l3.97-10.4z"></path>
      </g>
    </g>
    <path class="cls-16" d="m272.54 184.22s-9.79 22.58-24.89 34.49-42.92 27.66-42.92 27.66 37.98-31.8 45.34-39.92c7-7.69 12.88-16.19 17.6-25.37l4.87 3.14z"></path>
    <path class="cls-16" d="m243.99 160.29c-10.69 14.83-24.04 27.67-39.36 37.61-24.82 15.93-53.46 26.31-53.46 26.31s40.77-21.56 56.86-34.91 30.34-32.69 30.34-32.69l5.62 3.68z"></path>
    <path class="cls-16" d="m209.96 137.82s-14.62 13.28-31.66 22.15c-17.04 8.86-47.59 17.12-47.59 17.12s37.31-16.63 48.99-24.22c11.68-7.58 24.73-19.23 24.73-19.23l5.53 4.18z"></path>
    <path class="cls-16" d="m172.92 117.15s-16.54 11.38-30.04 17.25c-15.88 6.87-26.11 7.22-26.11 7.22s23.24-11.4 35.71-18.58c4.83-2.74 9.46-5.85 13.82-9.27l6.62 3.38z"></path>
    <path class="cls-16" d="M185.89,118.27c-.19-8.82-1.62-17.57-4.1-26.12-4.03-13.53-8.25-18.75-8.25-18.75,4.29,9.58,6.61,19.83,7.1,30.34.15,6.75-2.38,14.55-2.38,14.55l7.63-.03Z"></path>
    <path class="cls-16" d="m222.62 139.45s5.31-29.62 0.68-45.86-7.79-18.98-7.79-18.98 6.44 9.27 5.02 40.57c-0.68 14.71-5.63 21.22-5.63 21.22l7.72 3.05z"></path>
    <path class="cls-16" d="m255.13 161.9s5.64-28.99 1.96-46.29-7.9-25.41-7.9-25.41 6.34 22.87 5.24 40.11c-0.89 13.43-6.13 27.39-6.13 27.39l6.82 4.21z"></path>
    <path class="cls-16" d="m286.05 187.72s4.18-40.03-5.89-60.5-8.11-15.58-8.11-15.58c4.64 11.36 7.4 23.35 8.2 35.56 1.03 15.56-2.9 33.58-2.9 33.58l8.7 6.93z"></path>
    <path class="cls-56" d="M537.1,143.32c2.43,2.63,2.64,5.98,2.78,8.29.21,3.25-.61,3.95-.41,7.94.09,1.82.36,3.63.79,5.4,1.23,6.1,2.13,12.27,2.68,18.47.77,10.54-5.41,31.77-22.44,45.82,0,0-19.31,15.94-49.89,14.38-.99-.05-3.63-.3-7.94-.42-4.72-.12-5.73.04-7.94-.42-2.78-.6-5.83-1.25-7.62-3.61s-.86-4.03-1.8-12.33c-.25-2.13-.36-2.42-.79-5.4-1.28-8.74-2.66-22.12-2.84-24.79-.86-13.62,7.92-31.75,22.01-43.4,11.57-9.56,26.09-14.19,35.01-13.78,13.61.62,17.56,1.39,17.56,1.39,2.1.52,4.26.73,6.42.64,4.16-.26,5.31-1.7,8.49-1.24,2.26.34,4.35,1.42,5.93,3.07Z"></path>
    <path class="cls-4" d="M534.46,146.86c5.09-2.42,8.25-8.29,8.25-8.29,4.67-8.38,5.09-18.47,1.15-27.22-.31-.74-1.14-1.1-1.89-.82-.57.22-1.12.49-1.66.79-1.24.7-2.36,1.6-3.31,2.66-.52.57-.51,1.45.01,2.01,2.25,2.38,3.78,5.34,4.42,8.55,1.29,6.94-3.51,12.91-8.66,19.19-1.65,2-1.13,3.01-.63,3.43.08.12.59.5,2.3-.31Z"></path>
    <path class="cls-3" d="M533.72,190.29c.9,9.14-4.33,16.1-9.29,22.63-5.16,6.78-7.61,6.82-8.47,6.71-3.17-.28-5.58-4.05-6.53-6.92-2.47-7.41,2.73-14.99,9.07-24.18,4.11-5.93,6.8-9.79,9.67-9.29,3.46.65,5.16,7.23,5.54,11.05Z"></path>
    <path class="cls-6" d="M335.79,324.32c10.04,2.29,39.51,9.31,52.57-6.21,11.58-13.56,5.09-39.03-.39-54.84,3.93-5.57,11.34-18.18,8.12-32.44-5.01-21.65-33.68-41.02-69.24-38.06-.22-20.48-9.64-40.03-24.64-48.4-21.91-12.44-55.46-1.72-68.09,31.13-20.9-23.66-52.81-32.12-79.15-21.55-24.52,9.89-39.98,34.52-39.5,63.14-12.05,4.3-22.51,12.6-29.14,23.7-13.75,23.77-8.73,59,13.57,88.3,126.62-17.32,195.51-13.5,235.9-4.77"></path>
    <path class="cls-7" d="M117.49,218.09c-10.34-1.14-18.45-29.02-22.04-39.1-1.27.11-4.41,1.74-5.68,1.85-2.36,5.88.23,26.78,6.25,37.48,2.4,4.39,2.18,9.71-.56,13.8-.6.98-1.11,1.91-1.71,2.88-2.47,4.39-4.55,8.9-6.09,13.58l53.01-27.63c-4.07-1.64-8.3-2.76-12.7-3.12-5.63-.39-7.45.56-10.49.26"></path>
    <path class="cls-35" d="M124.58,229.78c-17.66,9.87-18.39,10.58-19.29,11.83-18.99,24.51,32.22,88.14,69.18,102.97,3.8,1.56,9.32,3.22,14.95,1.28,17.33-5.82,20.53-40.04,20.85-44.52,4.08-44.19-23.3-92.69-48.17-91.12-11.51-.2-14.46,6.65-37.52,19.56"></path>
    <path class="cls-35" d="M88.93,248.03c-14.02,1.99-26.15,11.64-29.25,17.35-14.65,26.9,32.27,88.23,69.18,102.98,3.8,1.56,9.32,3.22,14.95,1.28,17.33-5.82,20.53-40.04,20.85-44.52,4.08-44.19-23.21-92.73-48.17-91.12-2.9.18-4.5,1.13-27.56,14.03"></path>
    <path class="cls-35" d="m84.23 250.7c-18.99 24.51 32.52 89.98 69.51 104.68 3.8 1.56 9.32 3.22 14.95 1.28 17.33-5.82 20.53-40.04 20.94-44.57 4.08-44.19-29.29-86.35-48.17-91.12-18.87-4.77-47.55 13.05-57.23 29.72"></path>
    <path class="cls-53" d="m137.31 242.74c4.36 3.48 12.34 2.65 15.2-1.84 2.35-3.77 0.46-8.88-2.96-11.41-3.6-2.66-9.98-3.43-13.52 0.4s-2.34 9.96 1.27 12.84"></path>
    <path class="cls-42" d="m219.34 158.31c39.78 0 72.03 32.25 72.03 72.03s-32.25 72.03-72.03 72.03-72.03-32.25-72.03-72.03 32.25-72.03 72.03-72.03"></path>
    <path class="cls-44" d="M216.16,178.99c-2.63-4.26-5.99-7.98-9.89-11.16-7.26-5.8-15.97-9.34-25.22-10.16,9.89,5.9,17.05,15.33,20.05,26.49-6.8-.82-13.7-.54-20.41.91-10.43,2.27-20.05,7.35-27.94,14.61,12.79-4.44,26.4-5.99,39.82-4.44,2.63.27,5.26.72,7.62,1.27-4.08,1.81-7.71,4.44-10.8,7.62-10.25,10.61-10.52,24.31-10.52,28.03,6.26-5.08,30.75-27.85,35.65-33.11,11.79,3.63,21.32,12.25,26.13,23.59,5.99-13.97.18-30.3-13.43-37.28,5.08-2.45,10.61-4.08,16.24-4.81,7.08-.91,14.24-.36,21.05,1.63-3.08-5.26-7.8-9.25-13.43-11.52-10.7-4.08-20.14.45-21.68,1.27.36-7.26,3.09-14.15,7.62-19.77-6.44,1-12.25,4.35-16.24,9.52-3.54,4.99-5.26,11.16-4.63,17.33"></path>
    <path class="cls-45" d="M327.34,241.78c12.28,4.59,32.98,6.56,41.07-4.16,5.35-7.13.34-13.49,6.18-20.24,8.5-10.16,24.62-2.34,30-11.01,4.67-7.58-5.34-17.07-.16-25.2,5.18-8.13,19.47-4.49,21.84-11.43,1.64-4.61-4.49-7.21-5.55-16.21-1.25-11.36,11.51-11.9,4.47-21.57-7.04-9.68-17.01,11.29-24.47,6.86-4.71-2.82-3.23-11.33-7.6-12.48-3.82-.94-8.32,4.41-9.59,5.93-8.12,9.67-6.7,21.4-9.43,21.78-3.04.37-4.04-14.32-10.33-15.32-4.69-.84-10.65,6.28-13.51,12.54-4.02,8.95-1.72,17.05-3.89,17.62-2.8.87-5.8-12.87-11.31-12.86-5.2.01-9.79,12.3-11.79,19.07-3.69,13.54-1.16,23.07-4.47,24.48-3.75,1.47-8.4-9.65-13.14-8.32-4.73,1.32-7.71,13.77-5.45,24.03,3.77,17.97,23.25,25.12,27.12,26.5"></path>
    <path class="cls-45" d="M347.74,267.03c9.12,8.24,26.38,17.2,37.23,10.68,7.27-4.37,5.07-11.59,12.39-15.53,11.02-5.84,22.27,6.59,30.13.87,6.85-4.94,1.28-16.69,8.69-22.04,7.42-5.36,18.51,2.86,23.08-2.37,3.11-3.46-1.39-7.77.95-16.07,2.81-10.22,14.18-6.27,11.44-17.22-2.74-10.95-18.84,3.88-23.72-2.53-3.2-4.15,1.22-10.99-2.32-13.6-2.99-2.11-8.75.93-10.5,1.76-10.52,5.6-13.4,16.31-15.86,15.64-2.77-.68,1.4-13.84-3.61-16.97-3.85-2.31-11.55,1.8-16.16,6.29-6.63,6.36-7.48,14.27-9.58,14.04-2.72-.24-.65-13.32-5.38-15.22-4.49-1.7-12.91,7.35-16.85,12.59-8.02,10.55-9.01,19.75-12.54,19.74-3.84-.02-3.98-11.29-8.54-11.88-4.57-.59-11.52,9.3-13.15,19.1-3.08,17.08,11.57,30.2,14.3,32.73"></path>
    <path class="cls-36" d="m248.13 258.52c21.61-10.25 47.45-1.04 57.7 20.57s1.04 47.45-20.57 57.7-47.45 1.04-57.7-20.57c-10.25-21.62-1.04-47.45 20.57-57.7"></path>
    <path class="cls-36" d="M281.51,269.49c19.69-9.19,40.03-17,60.66-23.57,46.86-14.88,86.02-19.82,86.25-18.7.22,1.12-39.9,7.59-94.12,28.26-22.09,8.33-39.9,16.63-51.85,22.45l-.94-8.44Z"></path>
    <path class="cls-45" d="m274.32 216.23c-8.92-8.48-19.1-25.1-13.55-36.31 3.81-7.47 11.14-5.9 14.58-13.5 5-11.41-8.15-21.71-3.16-29.9 4.42-7.15 16.52-2.63 21.32-10.27s-4.2-18.22 0.61-23.26c3.29-3.4 7.9 0.84 16.01-2.08 10.1-3.57 5.19-14.56 16.36-12.66 11.16 1.9-2.44 19.08 4.4 23.49 4.4 2.81 10.81-2.07 13.65 1.33 2.42 2.84-0.25 8.85-1.09 10.62-4.81 10.86-15.28 14.6-14.41 17.1 1 2.75 13.67-2.5 17.22 2.4 2.65 3.64-0.92 11.62-4.99 16.61-5.97 7.12-13.67 8.63-13.34 10.62 0.5 2.67 13.32-0.34 15.51 4.28 2.08 4.38-6.22 13.37-11.27 17.9-9.9 8.83-19.04 10.56-18.8 13.97 0.29 3.84 11.57 3.09 12.53 7.69s-8.43 12.27-18.07 14.55c-16.67 3.62-30.87-9.86-33.54-12.58"></path>
    <path class="cls-36" d="m276.15 277.55c7.66-20.33 14.04-41.12 19-62.31 11.27-47.93 13.32-87.19 12.15-87.4s-4.55 40.45-21.06 96.07c-6.72 22.64-13.48 41.01-18.44 53.47l8.35 0.17z"></path>
    <path class="cls-36" d="M280.26,284.94c27.38-48.83,67.35-89.54,115.85-117.75-18.1,7.05-35.19,16.54-50.85,28.1-40.93,30.29-61.76,67.74-71.62,89.26l6.62.39Z"></path>
    <path class="cls-36" d="M228.36,310.18c-3.19,4.58,11.21,17.81,5.83,26.49-2.05,3.42-6.99,5.92-10.56,7.77-5.01,2.68-6.98,2.39-9.44,4.63-2.14,1.94-4.51,5.66-4.78,12.84,1.61-3.06,3.89-5.68,6.54-7.85,6.79-5.37,14.6-5.7,17.39-5.95,12.59-.92,46.98-5.9,48.82-13.66,2.37-9.86-48.31-31.77-53.79-24.27"></path>
    <path class="cls-41" d="M280.75,327.29c-.87.41-1.8.4-2.66-.12l-44.45-23.64c-1.47-.84-1.99-2.58-1.28-3.99.84-1.47,2.58-1.99,3.99-1.28l44.51,23.77c1.47.84,1.99,2.58,1.28,3.99-.32.61-.89,1.03-1.39,1.27"></path>
    <path class="cls-41" d="M294.3,315.5c-.87.41-1.8.4-2.66-.12l-31.05-16.06c-1.47-.84-1.99-2.58-1.28-3.99.84-1.47,2.58-1.99,3.99-1.28l31.05,16.06c1.47.84,1.99,2.58,1.28,3.99-.32.61-.83,1.16-1.33,1.4"></path>
    <path class="cls-41" d="M296.44,298.71c-.87.41-1.8.4-2.78-.06l-29.51-16.03c-1.47-.84-1.99-2.58-1.16-4.05.84-1.47,2.58-1.99,4.05-1.15l29.51,16.03c1.47.84,1.99,2.58,1.16,4.05-.2.56-.76.98-1.26,1.21"></path>
    <path class="cls-45" d="M164.48,244.32c-.54,1.04-.79,2.21-.71,3.38.83,13.22,2.77,26.35,5.8,39.24,3.48,14.76,8.19,34.78,19.65,52.8,15.12,23.77,37.52,36.99,54.55,44.2,3.26,1.39,7.02-.13,8.4-3.39.46-1.07.61-2.26.45-3.41-2.36-17.01-7.31-33.56-14.67-49.07-12.73-26.42-21.53-25.96-33.6-53.82-3.99-8.75-9.4-16.77-16.02-23.74-4.81-5.08-12.64-13.09-18.95-10.95-2.18.9-3.94,2.6-4.91,4.76"></path>
    <path class="cls-26" d="m162.05 222.58c-3.11 1.19-3.74 5.57-3.85 6.36-0.55 3.81 1.41 5.12 1.23 8.96-0.14 3.45-1.86 4.76-3.17 7.78-3.75 8.59 0.73 19.49 2.54 19.43s1.33-11.02 4.77-11.68c3.87-0.75 8.69 12.36 11.13 11.57s-0.82-15.5 2.18-16.54c2.3-0.79 5.07 7.49 12.1 8.58 3.03 0.47 7.01-0.38 7.96-2.59 1.47-3.44-4.55-9.77-9.62-13.24-7.36-4.99-12.08-3.5-14.82-8.46-1.73-3.12-0.84-5.51-3.56-8.04-0.27-0.25-3.7-3.35-6.89-2.13"></path>
    <path class="cls-44" d="M178.48,275.21c.51,3.74,3.32,7.91,6.79,8.2,5.01.41,10.88-7.24,8.87-13.31-1.19-3.51-5.15-6.71-9.12-6.04-4.77.81-7.15,6.67-6.54,11.15"></path>
    <path class="cls-44" d="M182.2,299.45c-.96,7.1,5.15,14.22,12.46,15.72,7.76,1.59,16.95-3.18,18.26-11.17,1.16-6.98-4.13-13.56-10.21-15.64-8.43-2.89-19.35,2.56-20.51,11.09"></path>
    <path class="cls-44" d="m199.75 333.33c2.11 5.76 9.77 7.1 14.39 6.66 6.73-0.67 14.46-5.97 14-11.75s-8.76-9.12-14.4-9.5c-2.06-0.15-7.17-0.5-10.97 3.33-2.72 2.72-4.48 7.27-3.02 11.26"></path>
    <path class="cls-44" d="m219.7 352.31c1.33 3.35 5.74 4.86 9.2 3.79 3.19-0.99 6.24-4.38 5.43-7.7s-4.6-4.45-6.88-4.68c-0.63-0.06-5.11-0.36-7.21 3.04-0.98 1.68-1.18 3.71-0.54 5.54"></path>
    <path class="cls-22" d="m337.11 240.51c29.33-54.02 36.39-117.05 64.83-131.33 14.28-7.16 38.52-1.57 42.23 16.48 3.68 18.67-16.28 57.76-29.16 77.38-27.49 41.8-50.19 65.72-58.89 74.65-18.88 18.94-37.83 46.63-47.91 62.02-1.67 2.69-5.97 1.12-5.44-2.12 3.34-19.79 13.09-58.17 34.34-97.07"></path>
    <path class="cls-39" d="M435.72,119.76c1.65.33-3.6,4.13-6.98,5.31-1.19.37-11.4,3.8-16.89-2.21-2.74-3.16-4.88-13.18-1.9-11.18,8.59,5.55,12.77,5.82,25.77,8.07"></path>
    <path class="cls-38" d="M420.35,120.34c-1.7-.46-3.03-1.08-4.35-1.7l-1.24-53.53,5.92-.19.94,42.55,13.72-43.72,5.58,1.76-14.02,44.75,38.52-44.38,4.49,3.74-44.08,50.88c-1.99.27-3.9.36-5.48-.15"></path>
    <path class="cls-13" d="M420.35,120.34c-1.7-.46-3.15-1.02-4.35-1.7l12.77-65.08,5.74,1.09-10.39,53.37,31.27-53.37,5.08,3.03-36.93,63.06c-1.23-.06-2.28-.05-3.18-.41"></path>
    <path class="cls-10" d="M604.3,119.07c3.75,3.34,9,7.75,11.1,8.24l10.7-11.39-3.01-11.32c-1.27-4.76-7.34-6.19-10.6-2.49l-8.55,9.14c-2.1,2.24-1.94,5.77.36,7.81"></path>
    <path class="cls-10" d="M604.58,118.61c1.97,1.75,3.96,3.47,6.04,5.09,1.47,1.14,3.13,2.61,4.97,3.1-.14.05-.27.09-.41.13,3.57-3.8,7.13-7.59,10.7-11.39-.06.21-.12.43-.18.64-.6-2.27-1.21-4.54-1.81-6.81-.62-2.35-.97-5.5-2.83-7.24-1.51-1.41-3.74-1.95-5.72-1.36-1.29.38-2.21,1.24-3.11,2.19-1.94,2.08-3.89,4.16-5.83,6.24-.74.79-1.51,1.57-2.23,2.39-1.87,2.11-1.63,5.1.4,7.01.36.33-.17,1.29-.57.91-2.49-2.34-2.53-6.13-.28-8.65,1.08-1.21,2.21-2.36,3.31-3.54,1.57-1.68,3.14-3.36,4.71-5.04,1.54-1.65,3.28-2.89,5.65-2.81,2.92.1,5.28,2.1,6.07,4.86.49,1.7.91,3.42,1.36,5.12.53,1.98,1.22,3.99,1.6,6,.18.95-1.06,1.8-1.64,2.42-3.07,3.26-6.13,6.52-9.19,9.78-.11.12-.25.18-.41.13-1.8-.48-3.45-1.9-4.89-3.01-2.17-1.67-4.25-3.47-6.3-5.29-.37-.32.15-1.28.57-.91"></path>
    <path class="cls-52" d="m612.49 124.87s20.48 13.15 20.71 55.92-62.56 123.27-110.04 152.23c0 0-6.4 9.95 4.36 17.63s70 2.39 111.47-34.94 72.95-107.13 36.57-154.74-32.16-20.6-52.95-48.93l-10.12 12.84z"></path>
    <path class="cls-52" d="M612.97,124.84c2.66,1.72,4.91,4.34,6.82,6.82,5.43,7.01,8.9,15.41,11.03,23.97,1.66,6.68,2.52,13.55,2.82,20.42.21,4.81.09,9.52-.73,14.26-1.64,9.55-5.14,18.75-9.21,27.51-4.86,10.47-10.72,20.47-17.08,30.09-6.97,10.55-14.6,20.67-22.72,30.36-8.11,9.68-16.72,18.95-25.86,27.67-8.25,7.86-16.94,15.31-26.27,21.87-2.07,1.46-4.18,2.87-6.32,4.23-.6.38-1.43.71-1.87,1.27-.33.42-.53,1.04-.73,1.53-2.07,5.12-.78,10.52,3.27,14.28,2.34,2.16,4.94,3.14,8.03,3.7,3.63.65,7.35.77,11.03.7,10.53-.21,21.05-2.11,31.2-4.86,12.77-3.45,25.15-8.45,36.69-14.92,12.35-6.92,23.54-15.63,33.37-25.81,9.24-9.56,17.36-20.23,24.18-31.64,6.9-11.56,12.5-23.97,16.12-36.95,3.44-12.36,5.08-25.33,3.86-38.14-1.21-12.73-5.36-25.06-12.41-35.75-4.07-6.17-8.88-11.93-13.7-17.53-3.34-3.88-6.81-7.66-10.62-11.08-3.99-3.59-8.29-6.33-13.23-8.4-4.16-1.74-7.72-3.94-10.92-7.16-2.82-2.84-5.29-6.01-7.66-9.22.35.03.7.07,1.05.1-3.37,4.28-6.75,8.56-10.12,12.84-.17.22-1.17-.02-1.04-.19,3.37-4.28,6.75-8.56,10.12-12.84.16-.2.92-.08,1.05.1,3.85,5.23,8.09,10.82,13.83,14.11,3.52,2.02,7.45,3.15,10.92,5.28,7.36,4.53,13.32,11.32,18.84,17.85,4.76,5.63,9.57,11.4,13.49,17.66,3.38,5.4,6.08,11.22,8.01,17.29,3.89,12.17,4.64,25.14,3.1,37.78-1.6,13.17-5.6,26-11.08,38.06-5.59,12.32-12.75,23.93-21.09,34.57-8.34,10.65-17.9,20.46-28.72,28.61-11.18,8.42-23.62,15.15-36.66,20.21-11.12,4.32-22.74,7.5-34.56,9.19-8.22,1.17-16.88,1.89-25.12.48-2.35-.4-4.85-.98-6.87-2.3-4.81-3.15-7.57-8.58-6.11-14.27.28-1.09.68-2.69,1.45-3.57.54-.62,1.63-1.05,2.33-1.5,1.06-.68,2.11-1.37,3.15-2.07,4.52-3.05,8.89-6.33,13.12-9.76,9.41-7.62,18.23-15.96,26.58-24.72,8.9-9.33,17.29-19.17,25.11-29.42,7.54-9.89,14.59-20.18,20.85-30.94,5.55-9.54,10.56-19.49,14.21-29.93,3.06-8.75,4.92-17.66,4.65-26.96-.35-12.38-2.46-25.01-7.87-36.25-2.66-5.54-6.17-10.91-10.79-15.02-.61-.54-1.24-1.09-1.93-1.53-.25-.16.74-.22.96-.08"></path>
    <path class="cls-30" d="M619.28,115.83c-1.12,1.67-.86,3.9.62,5.26,8.61,7.92,35.48,34.87,32.78,60.79-3.19,30.61-.42,89.73-121.19,153.73-2.57,1.36-4.7,3.46-5.98,6.07-1.59,3.22-2.06,7.43,3.44,10.42,10.15,5.53,64.92,4.05,116.82-42.87,51.7-46.74,49.08-109.89,39.26-132.2-.08-.18-.17-.35-.27-.51-2.25-3.62-28.68-45.48-48.31-50.54-.35-.09-.68-.22-1-.4-1.55-.89-6.29-3.95-9.22-9.43-1.44-2.69-5.24-2.86-6.95-.33"></path>
    <path class="cls-30" d="M619.79,115.99c-1.12,1.83-.69,3.81.83,5.24.65.61,1.3,1.21,1.94,1.83,1.71,1.64,3.37,3.32,5,5.04,4.23,4.47,8.21,9.19,11.8,14.19,7.82,10.89,14.72,24.09,14,37.88-.27,5.21-.88,10.46-1.42,15.66-.61,5.83-1.44,11.64-2.69,17.37-1.48,6.79-3.53,13.45-6.16,19.89-3.17,7.77-7.17,15.18-11.8,22.17-5.73,8.66-12.41,16.66-19.67,24.08-9.04,9.25-18.96,17.6-29.35,25.29-13.21,9.77-27.18,18.47-41.53,26.45-2.06,1.14-4.12,2.27-6.19,3.38-1.84.99-3.74,1.88-5.33,3.26-2.46,2.14-4.75,5.74-4.14,9.16.72,4.04,4.97,5.74,8.53,6.42,8.1,1.55,16.76.74,24.84-.52,12.97-2.02,25.62-6.02,37.6-11.34,15.79-7.01,30.48-16.42,43.7-27.53,12.01-10.09,22.6-21.7,30.84-35.08,6.83-11.1,12-23.2,15.3-35.82,2.8-10.73,4.28-21.82,4.27-32.92,0-8.63-.85-17.36-3.13-25.71-.75-2.76-1.55-5.83-3.09-8.27-1.58-2.51-3.22-4.98-4.89-7.43-6.23-9.12-12.92-18-20.47-26.08-3.89-4.16-8.05-8.16-12.71-11.47-2-1.42-4.1-2.71-6.35-3.7-1-.44-2.03-.8-3.08-1.1-1.05-.3-1.94-.85-2.83-1.46-2.43-1.67-4.62-3.75-6.34-6.15-.96-1.34-1.6-3.34-3.18-4.06-1.56-.71-3.36-.02-4.29,1.36-.22.33-1.27.06-1.02-.31,1.43-2.12,4.51-2.53,6.58-1.11,1.45,1,2.09,2.86,3.1,4.24,1.09,1.47,2.35,2.81,3.74,4,.94.81,1.94,1.55,2.99,2.21,1,.63,2.12.85,3.22,1.25,2.17.78,4.21,1.86,6.15,3.09,4.68,2.95,8.83,6.73,12.71,10.66,4.3,4.37,8.28,9.05,12.07,13.86,5.44,6.9,10.53,14.09,15.24,21.51,1.47,2.31,2.34,4.93,3.12,7.55,1.12,3.77,1.9,7.63,2.46,11.53,1.4,9.78,1.41,19.77.34,29.59-1.31,12.06-4.3,23.93-8.84,35.17-5.27,13.06-12.63,25.22-21.68,36-11.25,13.39-25.06,24.75-39.78,34.12-13.07,8.32-27.22,15.04-42.06,19.55-10.62,3.23-21.69,5.45-32.81,5.73-3.64.09-7.33-.01-10.93-.6-3.05-.5-6.09-1.35-8.37-3.58-2.23-2.17-2.57-5.12-1.46-7.94,1.47-3.72,4.38-5.98,7.79-7.81,8.05-4.3,16-8.81,23.78-13.58,13.09-8.02,25.76-16.78,37.57-26.6,9.34-7.76,18.14-16.19,25.97-25.48,6.2-7.36,11.78-15.26,16.4-23.71,3.79-6.92,6.92-14.19,9.29-21.72,1.96-6.24,3.38-12.63,4.37-19.09.83-5.42,1.34-10.87,1.81-16.33.23-2.67.57-5.35.72-8.03.4-7.06-1.34-14.08-4.06-20.56-5.15-12.27-13.63-23.09-22.83-32.59-1.51-1.56-3.06-3.1-4.64-4.59-.74-.7-1.62-1.36-2.13-2.26-.82-1.43-.68-3.1.16-4.48.2-.33,1.26-.08,1.02.31"></path>
    <path class="cls-11" d="M524.64,335.09c3.82,2.33,9.43,7.75,7.99,16.57-.3,1.81-2.01,3.04-3.81,2.72-5.02-.87-13.93-4.22-8.92-17.2.75-1.93,2.98-3.17,4.75-2.09"></path>
    <path class="cls-45" d="M605.26,175.23c3.1-4.91,7.61-8.79,12.95-11.04,11.79-4.82,27.03-.82,33.02,6.38,1.58,2.17,3.59,3.99,5.98,5.34,2.89,1.5,6,2.2,9.19,2.12-3.35,3.48-7.27,6.53-11.57,8.79-5.05,2.76-17.29,9.43-30.69,5.06-11.52-3.78-17.25-13.51-18.88-16.64"></path>
    <g class="cls-63" clip-path="url(#e)">
      <polygon class="cls-43" points="603.49 175.05 667.08 178.05 666.42 194.82 635.82 197.02 611.58 191.82"></polygon>
    </g>
    <path class="cls-58" d="M607.51,136.05c4.39,1.53,5.17,14.9,1.74,24.98-2.53,7.21-7.19,13.46-13.41,17.9l-4.22-2.25c5.38-3.98,7.61-7.97,8.58-11.16,3.32-10.5-4.62-18.79.3-25.71,1.8-2.37,4.86-4.51,7.01-3.77"></path>
    <path class="cls-24" d="m609.12 212.01c7.13-13.14 1.92-30.05-12.1-37.9s-31.33-3.57-38.64 9.47c-15.1 26.74-44.53 20.39-61.32 48.28-15.61 25.99-3.78 60.82 24.61 76.73 28.38 15.91 62.5 6.82 78.29-19.07 17.93-29.7-7.18-47.5 9.16-77.5"></path>
    <path class="cls-46" d="M542.77,308.16c.76,3.22,13.3,1.86,20.33.32,5.7-1.23,15.09-3.43,20.99-11.67,1.22-1.76,4.19-5.81,3.01-7.87-2.52-4.44-21.68,4.17-23.59,5.08-1.02.36-21.67,9.77-20.74,14.13"></path>
    <path class="cls-20" d="M454.05,209.77c-18.97-3.93-39.7,5.7-53.17,24.11-14.06-.98-28.07,2.45-40.07,9.8-5.04,3.12-15.24,9.41-20.19,20.04-1.27,2.61-2.17,5.42-2.65,8.27-.14,1.25.7,2.38,1.95,2.52.57.1,1.14-.07,1.5-.38,1.8-1.32,3.6-2.38,5.61-3.28,3.35-1.59,7.7-2.53,10.53.71,1.68,2,2.34,4.79,1.43,7.35-.54,2.24-1.24,4.42-2.2,6.61-.41.73-.03,1.71.7,2.12.21.15.47.15.73.15,3.21-.09,6.48.18,9.55,1.08,3.12.74,6.5,2,7.32,5.62.6,2.95-.5,6.12-2.81,7.97-1.44,1.26-3.03,2.21-4.74,2.96-.62.32-.82.94-.66,1.51.16.31.37.46.58.62,1.82.76,3.49,1.72,5.06,3,3.24,2.24,3.97,6.69,1.72,9.93-.1.05-.15.21-.26.26-.77,1.05-1.79,1.84-2.93,2.42-.88.32-1.18,1.26-.86,2.14l.16.31c.74,1.18,1.43,2.52,1.86,3.87,1.13,3.2,1.32,6.62.63,9.84-.15.73-.24,1.56-.49,2.34,6.59,5.21,13.9,9.27,21.66,11.93,5.78,1.85,18.27,5.85,31.84.56,5.62-2.24,10.67-5.62,14.76-10.08,6.07.65,17.33.99,28.14-5.1,17.97-10.16,22.09-30.79,25.04-44.83,2.35-11.9,7.35-36.38-7.07-59.07-3.49-5.51-13.63-21.41-32.7-25.28Z"></path>
    <path class="cls-15" d="M392,201.42c.65-6.59,3.17-12.84,7.46-17.92,9.36-10.95,26.99-14.94,36.79-10.59,2.71,1.47,5.68,2.16,8.79,2.39,3.68.06,7.25-.86,10.49-2.66-1.6,5.26-4.03,10.42-7.13,15.01-3.72,5.44-12.59,18.6-28.53,21.07-13.72,1.98-24.58-4.95-27.87-7.3Z"></path>
    <g class="cls-62" clip-path="url(#d)">
      <polygon class="cls-50" points="390.2 202.22 456.21 172.16 464.24 189.54 434.33 207.67 406.94 214.99"></polygon>
    </g>
    <path class="cls-37" d="M383.84,239.78c-1.67,3.08,1.19,8.9,5.22,11.66,8,5.4,23.28.4,30.73-9.69,5.1-7.06,7.05-17.45,3.92-19.49-4.18-2.8-12.76,12.95-30.93,14.88-3.52.25-7.62.14-8.94,2.64Z"></path>
    <path class="cls-59" d="M373.07,200.87c4.26-3.37,17.42,4.46,24.84,14.07,5.16,6.99,8.16,15.35,8.58,24.01l-4.79,2.6c-.4-7.62-2.79-12.25-5.21-15.18-7.89-9.76-20.77-7.43-24.25-16.46-1.23-3.15-1.23-7.45.83-9.03Z"></path>
    <path class="cls-37" d="M447.36,338.11c2.58,2.98,10.78-.07,14.14-1.41,12.28-4.76,18.28-15.15,21.68-21.2,6.25-10.91,6.92-19.99,8.1-34.42.72-8.98-.04-11.98-2.08-13.92-4.62-4.66-15.34-3.71-20.3,1.59-4.81,5.09-1.73,11.58-2.13,21.96-1.25,26.46-24.08,41.86-19.41,47.41Z"></path>
    <path class="cls-51" d="M434.35,274.95c-.21.51-.41,1.02-.64,1.59-11.15,28.7,3.08,60.98,31.81,72.07,28.25,10.97,60.06-2.64,71.67-30.63.21-.51.41-1.02.58-1.62l-103.41-41.41Z"></path>
    <path class="cls-55" d="M436.92,275.92c-.21.51-.41,1.02-.64,1.59-10.9,27.17,2.35,58.02,29.52,68.92,27.17,10.9,58.02-2.35,68.92-29.52.21-.51.41-1.02.58-1.62l-98.38-39.38Z"></path>
    <g class="cls-67" clip-path="url(#c)">
      <path class="cls-51" d="m510.87 327.14c2.2 5.19-0.15 11.2-5.34 13.41-5.19 2.2-11.2-0.15-13.41-5.34-2.2-5.19-3.56-34.12-3.56-34.12s20.08 20.93 22.31 26.06"></path>
      <path class="cls-51" d="m525.8 300.64c5.23 2.11 7.79 8.04 5.68 13.27s-8.04 7.8-13.27 5.68c-5.23-2.11-26.63-21.58-26.63-21.58s28.99 0.52 34.22 2.63"></path>
      <path class="cls-51" d="m445.41 290.69c-5.23-2.11-7.79-8.04-5.68-13.27s8.04-7.8 13.27-5.68c5.23 2.11 26.63 21.58 26.63 21.58s-28.99-0.52-34.22-2.63"></path>
      <path class="cls-51" d="m453.95 320.9c-5.19 2.2-11.2-0.15-13.41-5.34-2.2-5.19 0.15-11.2 5.34-13.41 5.19-2.2 34.12-3.56 34.12-3.56s-20.93 20.08-26.06 22.31"></path>
      <path class="cls-51" d="m480.85 336.14c-2.11 5.23-8.04 7.79-13.27 5.68s-7.76-7.95-5.71-13.2c2.11-5.22 21.58-26.63 21.58-26.63s-0.5 28.93-2.61 34.15"></path>
    </g>
    <path class="cls-54" d="m305.5 317.43c4.18 6.08 7.49 12.77 9.69 19.85 2.44 7.89 3.77 16.02 3.84 24.25-0.1 2.52 1.93 4.64 4.46 4.74h0.44c4.44-0.23 8.73-1.34 12.77-3.12 8.31-3.78 13.88-7.73 16.86-10.82 4.52-4.53 0.11-23.36-2.53-34.21-2.8-11.59-7.74-22.63-14.58-32.44l-30.95 31.76z"></path>
    <path class="cls-27" d="M279.32,329.45c4.25,9.79,14.26,13.91,16.2,14.77,15.01,6.19,29.93-1.42,39.19-6.18,8.67-4.45,41.22-21.11,37.99-44.49-1.87-13.61-14.95-24.05-27.17-27.55-18.41-5.24-34.46.98-41.2,5.84-15.6,11.17-32.89,39.5-25.01,57.6"></path>
    <path class="cls-34" d="M342.85,354.21c.98.8,4.93-1.94,6.87-5.61,1.07-2.32,1.62-4.85,1.35-7.44-.12-2.74-.39-5.48-.96-8.21-.24-1.11-1.94-.86-1.99.41-.1,2.97-.56,5.87-1.33,8.62-1.81,6.7-4.99,11.36-3.94,12.23"></path>
    <path class="cls-34" d="M310.11,284.43c-1.37-1.9-11.03.71-17.74,7.35-1.75,1.66-7.94,7.78-7.64,16.67.11,6.23,3.44,14.25,7.74,14.47,3.86.23,10.02-3.59,9.12-21.22-.55-10.44,9.89-15.22,8.52-17.28"></path>
    <path class="cls-34" d="M332.76,286.33c.09.67.53,5.03,4.11,6.16,3.05.76,6.14-.77,7.5-3.54.78-2.02.59-4.24-.48-6-1.53-2.79-5.28-5.25-8.22-3.86-2.72,1.31-3.1,5.17-2.91,7.24"></path>
    <path class="cls-45" d="M602.2,273.42c-1.68-3.78-2.14-8.07-1.33-12.15,1.86-8.91,10.4-16.43,17.16-16.97,1.98-.04,3.83-.54,5.63-1.34,2.1-1.05,3.83-2.65,5.05-4.62.75,3.41.92,6.89.58,10.42-.38,4.08-1.36,14.12-9.35,20.21-7.11,5.33-15.26,4.78-17.74,4.44"></path>
    <g class="cls-66" clip-path="url(#b)">
      <polygon class="cls-43" points="601.44 274.42 628.88 237.84 638.5 245.12 627.47 264.06 614.59 276.37"></polygon>
    </g>
    <path class="cls-49" d="m595.76 279.67c17.28-8.62 39.4 0.66 49.41 20.72 10.01 20.07 4.12 43.32-13.16 51.94s-39.4-0.66-49.41-20.72-4.12-43.32 13.16-51.94"></path>
    <path class="cls-18" d="m598.2 278.46c14.58 1.44 29.46 12.09 37.8 28.82 6.63 13.29 7.8 27.62 4.09 39.14 11.19-10.83 13.94-29.75 5.59-46.48-9.65-19.13-30.58-28.44-47.48-21.48"></path>
    <path class="cls-58" d="M602.52,284.18c-.17.08-.25.13-.42.21-1.47.42-3.11-.34-3.53-1.81,0,0-1.8-5.3-7.73-10.64-4.74-4.25-13.24-4.21-16.14-3.92-1.6.17-2.98-.93-3.11-2.44-.17-1.6.93-2.98,2.44-3.11.5-.04,13.03-1.46,20.59,5.27,7.18,6.4,9.28,12.91,9.4,13.16.29,1.22-.25,2.65-1.52,3.28"></path>
    <path class="cls-40" d="M583.34,299.21c-.76,1.64-2.78,6.22-.3,10.13,2.6,3.74,7.52,5.18,11.68,3.41,5.76-2.56,5.51-10.21,5.39-11.3.05-3.49-1.67-9.46-5.88-10.51-4.58-1.18-9.17,4.36-10.89,8.27"></path>
    <path class="cls-15" d="M507.38,237.11c3.09,8.29,8.38,12.17,10.79,13.73,11.27,7.05,28.93,5.72,37.46-.72,2.36-2,5.04-3.5,7.97-4.42,3.44-1.06,7.06-1.21,10.6-.59-2.68-4.27-6.05-8.01-9.95-11.18-4.69-3.77-15.89-12.88-31.63-10.7-13.54,1.82-22.58,10.96-25.24,13.88Z"></path>
    <g class="cls-65" clip-path="url(#a)">
      <polygon class="cls-50" points="505.5 236.94 575 245.17 579.1 227.74 546.71 220.05 519 221.09"></polygon>
    </g>
    <path class="cls-50" d="M484.3,278.36c-.85.44-1.94.17-2.45-.7-3.49-5.82-6.39-12.01-8.7-18.44-6.34-17.69-7.97-36.63-4.78-56.28.18-.93.97-1.58,1.94-1.54.92.06,1.71.78,1.77,1.7.88,12.89,7.49,21.63,23.57,31.31,7.78,4.68,16.65,5.58,22.5,6.18,1.07.1,2.06.19,2.96.32,1.02.13,1.74,1.07,1.61,2.09-.13,1.02-1.07,1.74-2.09,1.61-.83-.11-1.83-.19-2.84-.32-6.21-.6-15.6-1.59-24.07-6.68-12.22-7.39-19.44-14.56-22.92-23.25-1.1,15.17.87,29.82,5.86,43.62,2.24,6.17,5.04,12.17,8.41,17.76.51.87.22,2.03-.65,2.54q-.09.05-.14.07Z"></path>
    <path class="cls-47" d="m542.44 228.77c11.87 6.02 16.61 20.49 10.57 32.31s-20.49 16.61-32.31 10.57c-11.87-6.02-15.69-21.02-7.32-30.53 1.69-11.36 17.25-18.39 29.07-12.34z"></path>
    <path class="cls-47" d="m507.29 269.93c8.82 9.92 7.4 25.73-2.52 34.55s-25.15 7.94-33.97-1.98-7.02-27.53 8.73-33.95c8.3-9.18 18.94-8.54 27.76 1.38z"></path>
    <path class="cls-21" d="M536.17,238.08c2.84.32,3.89,1.98,5.58,1.35,1.65-.61,3.02-2.69,2.76-4.46-.53-3.9-9.2-8.11-14.13-4.85-3.28,2.17-3.1,7.03,5.79,7.97Z"></path>
    <path class="cls-21" d="M487.64,265.68c-1.36.94-2.45,2.76-2.14,4.38.59,3.09,6.07,4.49,9.81,4.34,2.58-.08,7.21-1.04,7.42-2.94.39-3.06-10.23-9.19-15.09-5.79Z"></path>
    <path class="cls-32" d="M367.77,321.52c-4.69,5.69-7.46,12.68-8.07,19.99-.23,3.23-.61,8.69,2.15,13.99,6.07,11.84,24.83,17.68,37.21,10.84,7-3.84,9.99-10.69,11.3-13.61,2.92-6.92,3.54-14.61,1.69-21.91l-44.28-9.3Z"></path>
    <path class="cls-48" d="M359.08,298.46c-3,7.23-.08,14.61.46,16.07,4.38,11.07,15.99,15.07,23.22,17.53,6.76,2.31,32.13,10.99,42.82-2.61,6.23-7.92,5.07-20.14.69-28.37-6.61-12.38-18.07-17.6-24.14-18.76-13.76-2.54-37.51,2.77-43.05,16.14Z"></path>
    <path class="cls-5" d="M363.93,302.99c-1.92.85-2.38,3.46-2.61,4.61-1,5.3,1.38,13.07,7.23,14.68,2.31.69,5.92.61,7.69-1.54,2.92-3.54-1-10.84-4.84-14.53-.92-.92-4.61-4.46-7.46-3.23Z"></path>
    <path class="cls-19" d="M383.45,365.26c.08,1.15,6.23,3,11.84.85.61-.23,5.84-2.23,7.92-7.46.69-1.69,1.61-5.3.23-6.38s-5.07,1-7,2.61c-2.92,2.46-2.46,4-5.07,6.38-3.77,3.46-7.92,3-7.92,4Z"></path>
    <ellipse class="cls-12" transform="translate(201.56 855.8) rotate(-88.65)" cx="538.9" cy="324.72" rx="26.44" ry="19.15"></ellipse>
    <ellipse class="cls-59" transform="translate(-48.58 511.46) rotate(-46.72)" cx="567.81" cy="311.96" rx="19.15" ry="22.33"></ellipse>
    <path class="cls-14" d="M553.29,303.1c-.43.32-1.05.37-1.56,0l-17.9-12.87-10.33-15.68c-.38-.62-.22-1.41.37-1.84.62-.38,1.41-.22,1.84.37l10.02,15.26,17.52,12.57c.59.47.76,1.25.3,1.84-.03.19-.13.26-.24.34Z"></path>
    <ellipse class="cls-31" transform="translate(2.86 604.56) rotate(-56.21)" cx="567.45" cy="299.6" rx="4.97" ry="7.42"></ellipse>
    <path class="cls-14" d="M539.37,307.92c-.16.12-.36.18-.5.21-.73.13-1.42-.35-1.6-1.04l-3.58-17.48c-.13-.73.35-1.42,1.04-1.6.73-.13,1.42.35,1.6,1.04l3.53,17.52c.16.54-.06,1.03-.48,1.35Z"></path>
    <path class="cls-31" d="M528.34,335.84c1.78-1.82,1.71.96,3.9,3.13s5.87,2.9,4.14,4.68-4.96,1.54-7.21-.59-2.56-5.44-.83-7.23Z"></path>
    <ellipse class="cls-17" cx="456.8" cy="322.36" rx="12.68" ry="11.75"></ellipse>
    <path class="cls-9" d="M446.98,320.61c.25.76,2.37.53,3.03,1.06.65.45.57,2.5,1.47,2.73.82.23,1.96-1.52,2.86-1.59.82,0,1.96,1.74,2.86,1.52.9-.23.98-2.27,1.72-2.65.82-.38,2.7.61,3.35.08.65-.61-.49-2.35-.16-3.03.33-.76,2.37-1.52,2.13-2.27s-2.37-.53-3.03-1.06c-.65-.45-.57-2.5-1.47-2.73-.82-.23-1.96,1.52-2.86,1.59-.82,0-1.96-1.74-2.86-1.52s-.98,2.27-1.72,2.65c-.82.38-2.7-.61-3.35-.08-.65.61.49,2.35.16,3.03-.33.76-2.37,1.44-2.13,2.27Z"></path>
    <ellipse class="cls-17" transform="translate(-77.73 161.75) rotate(-18.63)" cx="454.14" cy="317.8" rx="2.84" ry="1.99"></ellipse>
    <ellipse class="cls-17" cx="474.58" cy="336.67" rx="12.68" ry="11.75"></ellipse>
    <path class="cls-9" d="M471.22,327.95c-.65.61.74,2.12.57,2.96-.08.76-2.05,1.67-1.8,2.5.25.76,2.45.76,2.86,1.52.41.68-.57,2.5.08,3.03.65.61,2.62-.38,3.27.08.82.45.82,2.5,1.64,2.65.9.23,1.88-1.52,2.7-1.67.9-.15,2.54,1.14,3.19.53s-.74-2.12-.57-2.96c.08-.76,2.05-1.67,1.8-2.5-.25-.76-2.45-.76-2.86-1.52-.41-.68.57-2.5-.08-3.03-.65-.61-2.62.38-3.27-.08-.82-.45-.82-2.5-1.64-2.65-.9-.23-1.88,1.52-2.7,1.67-.9.15-2.62-1.14-3.19-.53Z"></path>
    <ellipse class="cls-17" transform="translate(-85.24 485.05) rotate(-49.88)" cx="478.93" cy="334.18" rx="2.04" ry="2.76"></ellipse>
    <ellipse class="cls-17" cx="440.62" cy="337.73" rx="12.68" ry="11.75"></ellipse>
    <path class="cls-9" d="M434.15,330.68c-.33.76,1.47,1.74,1.72,2.58.16.76-1.23,2.27-.65,2.96.49.61,2.54-.08,3.27.45.65.45.41,2.5,1.23,2.88s2.29-1.21,3.11-1.06c.9.15,1.72,2.05,2.54,1.97.9-.08,1.23-2.05,1.88-2.42.82-.45,2.86.23,3.19-.53s-1.47-1.74-1.72-2.58c-.16-.76,1.23-2.27.65-2.96-.49-.61-2.54.08-3.27-.45-.65-.45-.41-2.5-1.23-2.88s-2.29,1.21-3.11,1.06c-.9-.15-1.72-2.05-2.54-1.97-.9.08-1.23,2.05-1.88,2.42-.82.38-2.86-.23-3.19.53Z"></path>
    <ellipse class="cls-17" transform="translate(-29.52 623.25) rotate(-68.6)" cx="442.09" cy="333.26" rx="2" ry="2.83"></ellipse>
    <path class="cls-29" d="M651.71,344.05H91.38c-6.64,0-12.02,5.38-12.02,12.02s5.38,12.01,12.02,12.01h560.32c6.64,0,12.02-5.38,12.02-12.01s-5.38-12.02-12.02-12.02"></path>
    <path class="cls-33" d="M650.43,368.08c-18.73,105.05-110.52,184.78-220.94,184.78h-115.89c-2.88,0-5.75-.06-8.59-.18-106.56-4-194.11-82.3-212.35-184.6h557.77Z"></path>
    <path class="cls-23" d="m650.43 368.08c-18.2 102.12-105.46 180.33-211.76 184.58 12.94-1.61 138.82-21.28 163.21-184.58h48.55z"></path>
    <path class="cls-25" d="m305.01 552.68c-106.56-4-194.11-82.3-212.35-184.6h52.16c30.67 154.78 151.62 182.8 160.19 184.6"></path>
  </g>
  <metadata></metadata>
</svg>
