<?xml version="1.0" encoding="UTF-8"?>
<svg xmlns="http://www.w3.org/2000/svg" xmlns:cc="http://creativecommons.org/ns#" xmlns:dc="http://purl.org/dc/elements/1.1/" xmlns:rdf="http://www.w3.org/1999/02/22-rdf-syntax-ns#" width="745.51" height="419.53" version="1.1" viewBox="0 0 745.51 419.53">
  <title>Zwei Teller, auf dem links liegen verschiedene Bohnensorten, Kichererbsen, Erbsen auf dem rechten Teller verschiedene Nusssorten</title>
  <defs>
    <style>.cls-1 {
        fill: #8c6239;
        stroke: #000;
        stroke-linecap: square;
        stroke-width: .12px;
      }

      .cls-1, .cls-2, .cls-3, .cls-4, .cls-5 {
        stroke-miterlimit: 10;
      }

      .cls-1, .cls-6 {
        fill-rule: evenodd;
      }

      .cls-7 {
        clip-path: url(#a);
      }

      .cls-8, .cls-2, .cls-5 {
        fill: none;
      }

      .cls-8, .cls-6, .cls-9, .cls-10, .cls-11, .cls-12, .cls-13, .cls-14, .cls-15, .cls-16, .cls-17, .cls-18, .cls-19, .cls-20, .cls-21, .cls-22, .cls-23, .cls-24, .cls-25, .cls-26, .cls-27, .cls-28, .cls-29, .cls-30, .cls-31, .cls-32, .cls-33, .cls-34, .cls-35 {
        stroke-width: 0px;
      }

      .cls-2 {
        stroke: #8e7755;
        stroke-linecap: round;
        stroke-width: .98px;
      }

      .cls-3 {
        stroke: #f7e7a4;
      }

      .cls-3, .cls-6, .cls-21 {
        fill: #c69c6d;
      }

      .cls-4 {
        stroke: #754c24;
      }

      .cls-4, .cls-10 {
        fill: #f7e7a4;
      }

      .cls-5 {
        stroke: #81a1aa;
      }

      .cls-9 {
        fill: #f4d28c;
      }

      .cls-11 {
        fill: #829a39;
      }

      .cls-12 {
        fill: #498049;
      }

      .cls-13 {
        fill: #814228;
      }

      .cls-14 {
        fill: #544934;
      }

      .cls-15 {
        fill: #a3866a;
      }

      .cls-16 {
        fill: #c64d29;
      }

      .cls-17 {
        fill: #e2c57a;
      }

      .cls-18 {
        fill: #d38065;
      }

      .cls-19 {
        fill: #ddcb6b;
      }

      .cls-20 {
        fill: #d0a887;
      }

      .cls-22 {
        fill: #bc9c69;
      }

      .cls-23 {
        fill: #ce7234;
      }

      .cls-24 {
        fill: #a67c52;
      }

      .cls-25 {
        fill: #ad1b28;
      }

      .cls-26 {
        fill: #ba6f24;
      }

      .cls-27 {
        fill: #90882f;
      }

      .cls-28 {
        fill: #666;
      }

      .cls-29 {
        fill: #8cc63f;
      }

      .cls-30 {
        fill: #8e4928;
      }

      .cls-31 {
        fill: #996d5f;
      }

      .cls-32 {
        fill: #862633;
      }

      .cls-33 {
        fill: #f2d581;
      }

      .cls-34 {
        fill: #fff;
      }

      .cls-35 {
        fill: #ebd76e;
      }</style>
    <clipPath id="a">
      <path class="cls-8" d="m493.41 175.97c-0.3 0.64-0.84 1.26-1.44 1.67-2.82 1.82-6.23 4.68-7.86 7.35-1.37 2.21-2.55 5.63-1.71 11.19 0.19 1.53-0.49 3.07-1.77 3.9-3.6 2.44-5.02 7.03-3.4 11.11 1.5 3.39 4.86 5.47 8.49 5.4 1.59 0.03 3.07 1.05 3.72 2.53 2.73 6.38 9.18 10.45 16.24 10.14 0.7-0.04 1.47 0.14 2.13 0.52 6.27 3.41 12.66 4.72 20.99 3.58 3.36-0.46 19.51-6.56 24.54-17.8 0.3-0.64 0.71-1.15 1.24-1.54 4.42-3.22 9.8-9.8 7.75-16.84-0.41-1.47 0-3.1 1.15-4.13 2.48-2.2 3.5-5.66 2.61-8.82s-3.82-4.88-4.74-5.34c-0.75-0.42-1.61-0.66-2.45-0.82-2.06-0.3-4.02-1.34-5.37-3.02-2.79-3.74-6.72-6.45-11.22-7.81-0.59-0.15-1.09-0.49-1.58-0.83-7-5.55-17.95-5.44-27.62-2.74-9.34 2.61-17.48 7.63-19.68 12.3"></path>
    </clipPath>
  </defs>
  <g data-name="Ebene 2">
    <rect class="cls-27" x="-8.5" y="-8.5" width="762.52" height="437.17"></rect>
  </g>
  <g data-name="Ebene 1">
    <path class="cls-15" d="m586.59 421.15c1.93 0 1.93-3 0-3s-1.93 3 0 3z"></path>
    <path class="cls-28" d="m191.02 351.9c78.92 0 142.9-63.98 142.9-142.9s-63.98-142.9-142.9-142.9-142.9 63.97-142.9 142.9 63.98 142.9 142.9 142.9"></path>
    <path class="cls-28" d="m560.1 351.9c78.92 0 142.9-63.98 142.9-142.9s-63.98-142.9-142.9-142.9-142.9 63.98-142.9 142.9 63.98 142.9 142.9 142.9"></path>
    <path class="cls-34" d="m553.29 344.6c77.36 0 140.08-62.71 140.08-140.08s-62.71-140.07-140.08-140.07-140.08 62.71-140.08 140.07 62.71 140.08 140.08 140.08"></path>
    <circle class="cls-5" cx="553.29" cy="204.53" r="95.21"></circle>
    <path class="cls-34" d="m184.07 345.14c77.36 0 140.08-62.71 140.08-140.08s-62.71-140.07-140.08-140.07-140.07 62.72-140.07 140.08 62.71 140.08 140.08 140.08"></path>
    <circle class="cls-5" cx="184.07" cy="205.07" r="95.21"></circle>
    <g data-name="Ebene 1">
      <circle class="cls-12" cx="118.44" cy="179.16" r="10.89"></circle>
      <path class="cls-11" d="m119.83 170.87c-0.8-0.4-3.1-0.2-5.39 1.6-2.3 1.8-1.9 2.3 0.6 3.1s5.99 1.2 6.89-0.3 0-3.4-2.1-4.39z"></path>
      <circle class="cls-12" cx="91.87" cy="168.18" r="10.89"></circle>
      <path class="cls-11" d="m93.26 159.99c-0.8-0.4-3.1-0.2-5.39 1.6s-1.9 2.2 0.6 3.1 5.99 1.2 6.89-0.2 0-3.5-2.1-4.49z"></path>
      <circle class="cls-12" cx="113.44" cy="150.7" r="10.89"></circle>
      <path class="cls-11" d="m114.74 142.41c-0.8-0.4-3.1-0.2-5.39 1.6s-1.9 2.3 0.6 3.1 5.99 1.2 6.89-0.3 0.1-3.4-2.1-4.39z"></path>
      <circle class="cls-12" cx="82.48" cy="145.1" r="10.89"></circle>
      <path class="cls-11" d="m83.88 136.81c-0.8-0.4-3.1-0.2-5.39 1.6-2.3 1.8-1.9 2.3 0.6 3.1s5.99 1.2 6.89-0.2 0-3.5-2.1-4.49z"></path>
      <circle class="cls-12" cx="132.12" cy="190.75" r="10.89"></circle>
      <path class="cls-11" d="m133.52 182.46c-0.8-0.4-3.1-0.2-5.39 1.6-2.3 1.8-1.9 2.3 0.6 3.1s5.99 1.2 6.89-0.2 0-3.5-2.1-4.49z"></path>
      <circle class="cls-12" cx="71.89" cy="163.08" r="10.89"></circle>
      <path class="cls-11" d="m73.29 154.89c-0.8-0.4-3.1-0.2-5.39 1.6-2.3 1.8-1.9 2.3 0.6 3.1s5.99 1.2 6.89-0.2 0-3.5-2.1-4.49z"></path>
      <circle class="cls-12" cx="86.37" cy="194.45" r="10.89"></circle>
      <path class="cls-11" d="m87.67 186.16c-0.8-0.4-3.1-0.3-5.39 1.6s-1.9 2.3 0.6 3.1 5.99 1.3 6.89-0.2 0.1-3.5-2.1-4.49z"></path>
    </g>
    <path class="cls-32" d="m186.29 261.64c-1.69 10.57 4.04 18.86 4.54 19.58 6.56 9.15 18.09 12.53 27.17 10.99 1.3-0.22 10.28-2.23 12.02-7.04 4.62-12.93-20.1-15.94-22.68-19.63-3.23-4.61-0.31-8.41-3.94-12.82-2.23-2.64-6.15-4.86-9.62-4.03-5.66 1.52-7.17 10.59-7.5 12.96"></path>
    <path class="cls-25" d="m215.9 287.88c0.5 1.26 4.09 1.26 6.65 0 1.37-0.66 3.44-2.18 3.1-3.32s-2.85-1.67-4.8-1.3c-2.87 0.48-5.43 3.26-4.95 4.61"></path>
    <path class="cls-32" d="m229.24 246.54c-3.07 2.15-5.58 6.2-5.03 10.16 0.52 3.68 3.72 6.41 7.88 9.83 3.13 2.62 4.81 3.28 6.05 5.92 1.24 2.65 0.41 3.76 1.42 6.18 1.44 3.58 5.55 6.73 8.9 6.6 6.14-0.18 12.06-11.35 10.8-21.01-1.5-12.39-14.08-17.48-14.83-17.8-2.7-1.02-9.67-3.77-15.2 0.1"></path>
    <path class="cls-25" d="m249.14 274.85c-1.27 1.57-2.76 4.45-1.71 5.63 0.91 0.97 3.24 0.48 4.68-0.52 2.87-2.01 3.31-7.05 1.94-7.92-1.14-0.65-3.63 1.25-4.9 2.82"></path>
    <path class="cls-16" d="m150.78 124.27c6.05-0.64 10.64-4.21 10.24-7.98s-5.62-6.31-11.67-5.67-10.64 4.21-10.24 7.98 5.62 6.31 11.67 5.67"></path>
    <path class="cls-18" d="m150.31 122.36c2.81-0.3 4.97-1.62 4.83-2.96s-2.53-2.19-5.34-1.89-4.97 1.62-4.83 2.96 2.53 2.19 5.34 1.89"></path>
    <path class="cls-16" d="m167.4 136.06c6.08 0.11 11.07-2.88 11.13-6.67 0.07-3.79-4.81-6.95-10.9-7.05-6.08-0.11-11.07 2.88-11.13 6.67-0.07 3.79 4.81 6.95 10.9 7.05"></path>
    <path class="cls-18" d="m167.18 134.11c2.82 0.05 5.13-1 5.15-2.35s-2.25-2.48-5.07-2.53-5.13 1.01-5.15 2.35c-0.02 1.35 2.25 2.48 5.07 2.53"></path>
    <path class="cls-16" d="m150.78 136.79c6.05-0.64 10.64-4.21 10.24-7.98s-5.62-6.31-11.67-5.67-10.64 4.21-10.24 7.98 5.62 6.31 11.67 5.67"></path>
    <path class="cls-18" d="m150.31 134.88c2.81-0.3 4.97-1.62 4.83-2.96s-2.53-2.19-5.34-1.89-4.97 1.62-4.83 2.96 2.53 2.19 5.34 1.89"></path>
    <path class="cls-16" d="m180.49 147.04c6.01 0.95 11.36-1.31 11.96-5.06 0.59-3.74-3.8-7.55-9.81-8.5s-11.36 1.31-11.96 5.06 3.8 7.55 9.81 8.5"></path>
    <path class="cls-18" d="m180.53 145.08c2.79 0.44 5.22-0.28 5.43-1.61s-1.88-2.77-4.67-3.21-5.22 0.28-5.43 1.61 1.88 2.77 4.67 3.21"></path>
    <path class="cls-16" d="m159.49 149.79c6.08 0.11 11.07-2.88 11.13-6.67 0.07-3.79-4.81-6.95-10.9-7.05-6.08-0.11-11.07 2.88-11.13 6.67-0.07 3.79 4.81 6.95 10.9 7.05"></path>
    <path class="cls-18" d="m159.26 147.84c2.82 0.05 5.13-1 5.15-2.35s-2.25-2.48-5.07-2.53-5.13 1.01-5.15 2.35c-0.02 1.35 2.25 2.48 5.07 2.53"></path>
    <path class="cls-16" d="m171.86 122.43c6.01 0.95 11.36-1.31 11.96-5.06 0.59-3.74-3.8-7.55-9.81-8.5s-11.36 1.31-11.96 5.06 3.8 7.55 9.81 8.5"></path>
    <path class="cls-18" d="m171.91 120.47c2.79 0.44 5.22-0.28 5.43-1.61s-1.88-2.77-4.67-3.21-5.22 0.28-5.43 1.61 1.88 2.77 4.67 3.21"></path>
    <path class="cls-22" d="m489.43 219.12c-0.65-1.48-2.12-2.5-3.72-2.53-3.63 0.06-6.99-2.01-8.49-5.4-1.61-4.07-0.2-8.67 3.4-11.11 1.27-0.83 1.96-2.37 1.77-3.9-0.84-5.56 0.35-8.98 1.72-11.19 1.63-2.67 5.04-5.53 7.86-7.35 0.6-0.41 1.14-1.03 1.44-1.67 4.49-9.5 33.55-20.47 47.31-9.56 0.49 0.34 0.98 0.68 1.58 0.83 4.51 1.36 8.44 4.07 11.23 7.81 1.34 1.69 3.3 2.73 5.36 3.02 0.84 0.16 1.7 0.4 2.45 0.82 0.92 0.46 3.9 2.32 4.74 5.34s-0.14 6.62-2.61 8.82c-1.14 1.03-1.56 2.66-1.15 4.13 2.05 7.04-3.34 13.62-7.75 16.84-0.53 0.39-0.94 0.9-1.24 1.54-5.03 11.24-21.18 17.33-24.54 17.8-8.33 1.13-14.72-0.17-20.99-3.58-0.66-0.37-1.42-0.55-2.13-0.52-7.05 0.31-13.51-3.77-16.24-10.14"></path>
    <g class="cls-7" clip-path="url(#a)">
      <path class="cls-14" d="m571.54 185.01-98.25 27.43c-0.59 0.16-1.25-0.21-1.41-0.8s0.21-1.25 0.8-1.41l98.25-27.43c0.59-0.16 1.25 0.21 1.41 0.8s-0.21 1.25-0.8 1.41"></path>
    </g>
    <path class="cls-2" d="m557.19 202.11c-0.99 1.86-2.77 3.15-4.82 3.49m-25.52 0.93c1.21 0.93 2.97 0.68 4.36-0.03s2.44-1.79 3.71-2.62 2.95-1.38 4.3-0.8m2.43 14.39c-0.94 0.34-3.86-0.19-7.32 4.74-3.18 4.54-7.68 3.18-9.01 2.12m-24.09-8.42c1.16-0.09 8.39 4.48 14.12-2.83m17.31-28.95c1.7 0.4 3.38-0.39 4.82-1.19s2.97-1.86 4.67-2.02c2.31-0.25 4.4 0.99 6.32 2.2m-36.56-7.96s4.48-2.99 7.49-3.28c5.1-0.47 6.71 1.3 6.71 1.3m-35.52 20.23s3.96 1.12 7.09-3.01c1.27-1.7 3.71-2.62 5.81-3.05"></path>
    <path class="cls-30" d="m555.43 108.76c3.77-5.31 4.25-12.39 4.22-18.9-0.02-4.1-0.71-8.41-3.2-11.67-2.13-2.78-5.36-4.53-7.59-7.22-0.67-0.81-1.26-1.71-2.09-2.36s-2-1-2.95-0.53c-1.02 0.5-1.41 1.72-1.88 2.76-1.42 3.13-4.27 5.36-6.19 8.22-2.46 3.67-3.27 8.27-2.93 12.67s1.77 8.66 3.48 12.73c0.91 2.16 1.91 4.31 3.44 6.09 1.52 1.78 3.64 3.16 5.97 3.34 3.51 0.28 7.21-1.59 9.73-5.13"></path>
    <path class="cls-30" d="m581.36 72.7c-2.63-1.35-5.95-0.99-8.57 0.38s-4.59 3.89-5.37 6.74c-0.3 1.07-0.43 2.2-0.23 3.3 0.19 1.05 0.69 2.02 1.2 2.96 2.98 5.46 6.81 10.45 11.31 14.74 2.11 2.02 4.43 3.92 7.17 4.92 1.56 0.57 3.2 0.83 4.84 1.1 1.71 0.27 3.42 0.55 5.13 0.82 1.07 0.17 2.27 0.31 3.13-0.35 0.94-0.72 0.88-1.53 0.64-2.69-1.19-5.67 0.75-9.49-1.18-13.39-2.45-4.94-9.59-14.2-18.07-18.53"></path>
    <path class="cls-17" d="m541.64 292.57c-5.5 5.83-6.81 14.91-4.17 22.48s8.78 13.6 15.95 17.19c2.46 1.23 5.1 2.21 7.85 2.42 4.5 0.34 8.87-1.4 13.05-3.11 4.29-1.75 8.6-3.52 12.45-6.1s7.23-6.05 8.92-10.37c0.35-0.9 0.63-1.85 0.6-2.82-0.03-1.17-0.51-2.27-1-3.33-1.4-2.99-3.25-6.08-6.31-7.32-4.19-1.71-8.8 0.65-12.98 2.41-2.17 0.91-4.41 1.68-6.69 2.28-2.73 0.72-5.99 1.08-8.04-0.85-1.47-1.39-1.86-3.6-1.7-5.62s0.75-3.98 0.9-6c0.2-2.66-0.41-5.38-1.72-7.7-0.66-1.16-1.59-2.3-2.89-2.61-0.98-0.24-2.01 0.03-2.96 0.36-4.21 1.43-8.32 5.37-11.27 8.7z"></path>
    <path class="cls-33" d="m540.79 290.89c-5.5 5.83-6.81 14.91-4.17 22.48s8.78 13.6 15.95 17.19c2.46 1.23 5.1 2.21 7.85 2.42 4.5 0.34 8.87-1.4 13.05-3.11 4.29-1.75 8.6-3.52 12.45-6.1s7.23-6.05 8.92-10.37c0.35-0.9 0.63-1.85 0.6-2.82-0.03-1.17-0.51-2.27-1-3.33-1.4-2.99-3.25-6.08-6.31-7.32-4.19-1.71-8.8 0.65-12.98 2.41-2.17 0.91-4.41 1.68-6.69 2.28-2.73 0.72-5.99 1.08-8.04-0.85-1.47-1.39-1.86-3.6-1.7-5.62 0.15-2.02 0.75-3.98 0.9-6 0.2-2.66-0.41-5.38-1.72-7.7-0.66-1.16-1.59-2.3-2.89-2.61-0.98-0.24-2.01 0.03-2.96 0.36-4.21 1.43-8.32 5.37-11.27 8.7z"></path>
    <path class="cls-10" d="m546.48 298.97c-1.52 7.11 0.55 14.36 6.37 18.94 2.88 2.27 6.14 3.42 9.79 3.74 1.53 0.14 3.03-0.08 4.54-0.28 1.6-0.22 3.26-0.43 4.8-0.95 4.06-1.37 7.16-4.17 9.77-7.48 1.18-1.5-0.93-3.64-2.12-2.12-1.99 2.53-4.2 4.81-7.15 6.19-2.42 1.13-5.32 1.51-7.97 1.69-6.07 0.41-11.82-3.35-14.3-8.82-1.43-3.16-1.56-6.75-0.84-10.1 0.4-1.88-2.49-2.69-2.89-0.8z"></path>
    <path class="cls-10" d="m547.25 297.86c-0.92 4.31-0.05 9.02 1.84 12.96 1.56 3.27 4.98 5.63 8.22 7.01 8.13 3.46 17.1-0.43 24.14-4.67 1.65-1 0.14-3.59-1.51-2.59-5.98 3.61-13.73 7.35-20.8 4.78-2.78-1.01-5.8-2.96-7.24-5.62-1.72-3.19-2.51-7.52-1.75-11.07 0.4-1.88-2.49-2.69-2.89-0.8z"></path>
    <path class="cls-23" d="m432.36 169.94c-3.75 4.8-6.37 10.24-8.97 15.63-1.29 2.67-2.56 5.85-0.93 8.37 1.57 2.44 5.1 3.05 8.2 3.2 9.78 0.47 19.69-1.28 28.56-5.04 3.9-1.65 7.72-3.79 10.09-7.05 2.16-2.97 2.91-6.62 3.03-10.19 0.17-4.96-1.05-10.36-5.2-13.6-11.41-8.89-27.69-0.42-34.78 8.67z"></path>
    <path class="cls-31" d="m463.83 162.54c-5.64-0.56-11.75 1.63-16.72 4.07-6.08 2.98-11.25 7.36-15.26 12.81-1.86 2.52-3.43 5.24-4.84 8.03-0.43 0.86 0.86 1.62 1.3 0.76 3.32-6.62 7.77-12.67 13.88-16.97 3.67-2.58 7.78-4.56 12.07-5.86 3.05-0.92 6.36-1.66 9.57-1.34 0.96 0.1 0.95-1.41 0-1.5z"></path>
    <path class="cls-31" d="m467.51 169.17c0.11 2.94-1.29 6.08-2.57 8.65-1.52 3.05-3.44 5.33-6.22 7.31-3.32 2.36-7.04 4.23-10.79 5.8-4.01 1.67-8.21 2.8-12.56 3-0.96 0.05-0.97 1.55 0 1.5 4.63-0.22 9.08-1.42 13.34-3.22 3.99-1.68 7.96-3.68 11.44-6.28 2.8-2.1 4.72-4.53 6.24-7.66 1.33-2.73 2.74-5.99 2.62-9.09-0.04-0.96-1.54-0.97-1.5 0z"></path>
    <path class="cls-31" d="m463.45 167.78c-1.14 1.56-2.65 2.88-4.1 4.13-2.11 1.83-4.33 3.52-6.59 5.16-4.85 3.51-9.9 6.79-15.16 9.65-2.3 1.25-4.66 2.46-7.15 3.28-0.91 0.3-0.52 1.75 0.4 1.45 4.98-1.64 9.62-4.5 14.03-7.26 5.18-3.24 10.26-6.76 14.93-10.71 1.77-1.5 3.55-3.07 4.93-4.94 0.57-0.78-0.73-1.53-1.3-0.76z"></path>
    <path class="cls-31" d="m463.97 164.05c-2.17 0.49-4.25 1.55-6.22 2.57-2.9 1.49-5.72 3.17-8.47 4.92-4.99 3.18-10.3 6.6-14.33 10.98-0.65 0.71 0.41 1.77 1.06 1.06 3.95-4.3 9.14-7.63 14.03-10.75 2.68-1.7 5.41-3.33 8.23-4.79 1.94-1 3.96-2.06 6.11-2.54 0.94-0.21 0.54-1.66-0.4-1.45z"></path>
    <path class="cls-26" d="m632.55 233.43c0.08-1.74 0.05-3.51-0.44-5.18-0.86-2.92-3.05-5.28-5.49-7.09-2.45-1.81-5.21-4.43-7.75-4.82-2.88 0.18-8.6 10.84-9.04 17.6s2.28 13.74 7.44 18.13c2.31 1.97 7.25 4.36 9.47 1.02 2.25-3.39 3.72-7.77 4.67-11.69 0.63-2.61 1.02-5.28 1.14-7.96z"></path>
    <ellipse class="cls-29" transform="rotate(-9.71 619.59 225.46)" cx="619.45" cy="225.43" rx="6.22" ry="9.76"></ellipse>
    <path class="cls-9" d="m633.97 221.12c3.28 3.69 3.96 8.96 4.3 13.89 0.09 1.25 0.16 2.51 0.08 3.76-0.16 2.49-0.93 4.9-1.73 7.26-0.7 2.06-2.62 7.1-7.05 8.74-2.04 0.76-4.12 1.65-6.29 1.47-1.59-0.14-3.1-0.74-4.56-1.39-1.5-0.67-2.98-1.4-4.38-2.27-6.81-4.29-11.13-12.34-10.76-20.39 0.1-2.14 0.51-4.26 1.07-6.34 0.69-2.56 1.64-5.09 3.25-7.2 1.26-1.65 2.89-2.98 4.5-4.29 0.8 6.49 1.6 12.99 2.66 19.44 1.02 6.18 2.36 12.51 5.9 17.68 1-4.29 1.45-19.19 1.49-20.46 0.07-2.49 0.15-4.98 0.22-7.47 0.04-1.27 0.08-2.53 0.11-3.8 0.03-0.94-0.23-2.49 0.22-3.35 0.88-1.68 3.57 0.02 4.78 0.54 2.29 1 4.5 2.29 6.18 4.17z"></path>
    <path class="cls-30" d="m531.46 104.66c-6.19-2.02-13.1-0.37-19.3 1.6-3.91 1.24-7.81 3.18-10.18 6.53-2.02 2.86-2.73 6.46-4.63 9.4-0.57 0.88-1.26 1.71-1.63 2.7-0.37 0.98-0.36 2.21 0.37 2.97 0.79 0.82 2.06 0.84 3.2 0.98 3.41 0.42 6.39 2.48 9.69 3.46 4.23 1.25 8.87 0.66 12.97-0.98s7.74-4.27 11.11-7.11c1.79-1.51 3.54-3.11 4.79-5.09 1.24-1.98 1.93-4.41 1.41-6.7-0.78-3.44-3.66-6.41-7.79-7.76"></path>
    <path class="cls-30" d="m596.11 157.66c-4-5.14-10.64-7.64-16.89-9.48-3.94-1.16-8.25-1.74-12.09-0.29-3.27 1.24-5.88 3.83-9.1 5.19-0.97 0.41-2 0.71-2.86 1.32s-1.53 1.63-1.36 2.67c0.19 1.12 1.24 1.85 2.1 2.6 2.59 2.26 3.9 5.63 6.09 8.29 2.81 3.41 6.98 5.51 11.29 6.45 4.32 0.94 8.8 0.8 13.19 0.33 2.33-0.25 4.68-0.59 6.82-1.54s4.07-2.58 4.92-4.76c1.28-3.28 0.56-7.36-2.11-10.79"></path>
    <path class="cls-30" d="m646.29 123.82c-5.37 3.67-8.28 10.16-10.5 16.28-1.4 3.86-2.24 8.13-1.03 12.05 1.03 3.34 3.46 6.1 4.63 9.4 0.35 0.99 0.59 2.04 1.15 2.94 0.55 0.89 1.53 1.63 2.58 1.52 1.13-0.12 1.92-1.13 2.72-1.94 2.42-2.45 5.86-3.55 8.65-5.57 3.58-2.59 5.93-6.63 7.13-10.88s1.34-8.73 1.14-13.15c-0.1-2.34-0.3-4.71-1.12-6.9s-2.32-4.22-4.45-5.2c-3.2-1.48-7.31-1.01-10.9 1.45"></path>
    <path class="cls-17" d="m595.22 243.84c-4.11-6.88-12.49-10.62-20.5-10.14-8 0.47-15.48 4.74-20.89 10.66-1.86 2.04-3.52 4.3-4.47 6.89-1.55 4.24-1.07 8.92-0.56 13.4 0.52 4.6 1.04 9.24 2.48 13.64 1.43 4.4 3.85 8.61 7.54 11.41 0.77 0.59 1.61 1.11 2.55 1.35 1.13 0.29 2.33 0.13 3.48-0.06 3.26-0.53 6.73-1.47 8.76-4.08 2.78-3.57 1.77-8.65 1.22-13.14-0.29-2.34-0.41-4.7-0.37-7.06 0.05-2.82 0.59-6.06 3.01-7.5 1.74-1.04 3.97-0.81 5.87-0.11s3.63 1.81 5.53 2.5c2.51 0.92 5.29 1.07 7.88 0.44 1.3-0.32 2.65-0.9 3.3-2.07 0.5-0.88 0.51-1.94 0.46-2.95-0.23-4.44-2.9-9.47-5.3-13.21z"></path>
    <path class="cls-33" d="m597.07 243.49c-4.11-6.88-12.49-10.62-20.5-10.14s-15.48 4.74-20.89 10.66c-1.86 2.04-3.52 4.3-4.47 6.89-1.55 4.24-1.07 8.92-0.56 13.4 0.52 4.6 1.04 9.24 2.48 13.64 1.43 4.4 3.85 8.61 7.54 11.41 0.77 0.59 1.61 1.11 2.55 1.35 1.13 0.29 2.33 0.13 3.48-0.06 3.26-0.53 6.73-1.47 8.76-4.08 2.78-3.57 1.77-8.65 1.22-13.14-0.29-2.34-0.41-4.7-0.37-7.06 0.05-2.82 0.59-6.06 3.01-7.5 1.74-1.04 3.97-0.81 5.87-0.11s3.63 1.81 5.53 2.5c2.51 0.92 5.29 1.07 7.88 0.44 1.3-0.32 2.65-0.9 3.3-2.07 0.5-0.88 0.51-1.94 0.46-2.95-0.23-4.44-2.9-9.47-5.3-13.21z"></path>
    <path class="cls-10" d="m587.73 246.74c-6.69-3.54-14.45-3.29-20.52 1.41-2.8 2.17-4.72 5.1-5.86 8.45-0.45 1.31-0.62 2.71-0.8 4.08-0.21 1.53-0.44 3.11-0.38 4.66 0.17 4.33 2.06 8.13 4.56 11.57 1.12 1.55 3.73 0.05 2.59-1.51-2.34-3.24-4.3-6.86-4.14-10.98 0.13-3.39 0.67-6.77 2.33-9.76 1.89-3.4 5.19-5.85 8.94-6.89 4.01-1.12 8.15-0.35 11.78 1.57 1.71 0.9 3.22-1.69 1.51-2.59z"></path>
    <path class="cls-10" d="m588.58 247.78c-3.84-2.04-8.42-2.41-12.67-1.79-3.79 0.55-7.18 3.34-9.46 6.28-5.35 6.87-4.02 16.46-1.88 24.28 0.51 1.86 3.4 1.07 2.89-0.8-1.82-6.64-3.3-14.99 0.91-21.07 1.75-2.53 4.61-5.08 7.71-5.7 3.54-0.71 7.79-0.31 10.99 1.38 1.7 0.9 3.22-1.69 1.51-2.59z"></path>
    <path class="cls-17" d="m592.07 276.05c-4.62 6.55-4.63 15.73-0.95 22.85s10.62 12.22 18.23 14.76c2.61 0.87 5.36 1.47 8.11 1.28 4.51-0.3 8.58-2.64 12.48-4.93 3.99-2.34 8.02-4.71 11.46-7.8s6.3-7.02 7.37-11.52c0.22-0.94 0.36-1.92 0.2-2.88-0.2-1.15-0.82-2.18-1.46-3.16-1.81-2.76-4.08-5.55-7.28-6.35-4.39-1.09-8.62 1.89-12.5 4.22-2.02 1.21-4.13 2.28-6.3 3.2-2.6 1.1-5.77 1.92-8.08 0.3-1.65-1.17-2.35-3.3-2.48-5.32-0.14-2.02 0.18-4.05 0.04-6.07-0.18-2.66-1.17-5.27-2.8-7.38-0.82-1.06-1.9-2.05-3.23-2.18-1-0.1-1.98 0.32-2.88 0.77-3.96 2.01-7.48 6.49-9.92 10.2z"></path>
    <path class="cls-33" d="m591 274.51c-4.62 6.55-4.63 15.73-0.95 22.85s10.62 12.22 18.23 14.76c2.61 0.87 5.36 1.47 8.11 1.28 4.51-0.3 8.58-2.64 12.48-4.93 3.99-2.34 8.02-4.71 11.46-7.8s6.3-7.02 7.37-11.52c0.22-0.94 0.36-1.92 0.2-2.88-0.2-1.15-0.82-2.18-1.46-3.16-1.81-2.76-4.08-5.55-7.28-6.35-4.39-1.09-8.62 1.89-12.5 4.22-2.02 1.21-4.13 2.28-6.3 3.2-2.6 1.1-5.77 1.92-8.08 0.3-1.65-1.17-2.35-3.3-2.48-5.32-0.14-2.02 0.18-4.05 0.04-6.07-0.18-2.66-1.17-5.27-2.8-7.38-0.82-1.06-1.9-2.05-3.23-2.18-1-0.1-1.98 0.32-2.88 0.77-3.96 2.01-7.48 6.49-9.92 10.2z"></path>
    <path class="cls-10" d="m597.76 281.89c-0.49 7.05 2.56 13.73 8.65 17.46 6.02 3.69 13.4 2.95 19.59-0.01 3.91-1.87 6.63-5.29 8.76-8.96 0.97-1.67-1.62-3.19-2.59-1.51-1.65 2.84-3.58 5.45-6.43 7.19-2.3 1.4-5.29 2.31-7.94 2.73-5.93 0.94-12-2.06-15.02-7.2-1.73-2.95-2.26-6.32-2.03-9.69 0.13-1.93-2.87-1.92-3 0z"></path>
    <path class="cls-10" d="m598.36 280.69c-0.29 4.27 1.26 8.96 3.71 12.45 2.08 2.97 5.71 4.84 9.15 5.74 8.59 2.25 16.92-2.98 23.3-8.19 1.5-1.22-0.64-3.33-2.12-2.12-5.38 4.4-12.72 9.27-20.03 7.5-2.79-0.67-5.94-2.08-7.7-4.45-2.23-3-3.56-7.21-3.3-10.94 0.13-1.93-2.87-1.92-3 0z"></path>
    <path class="cls-26" d="m662.57 202.2c-1.83 0.53-3.65 1.18-5.21 2.27-2.73 1.91-4.41 5.01-5.42 8.18-1.02 3.17-2.77 6.95-2.28 9.73 1.2 2.92 14.26 5.11 21.42 3.19s13.44-7.18 16.18-14.07c1.23-3.09 1.98-9.05-2.27-10.18-4.31-1.15-9.36-1.13-13.76-0.74-2.93 0.26-5.83 0.8-8.66 1.61z"></path>
    <ellipse class="cls-29" transform="rotate(-28.41 658.97 218.6)" cx="658.87" cy="218.59" rx="10.69" ry="6.81"></ellipse>
    <path class="cls-9" d="m649.31 205.05c2.68-4.7 7.9-7.26 12.89-9.34 1.27-0.53 2.54-1.05 3.87-1.4 2.64-0.71 5.41-0.75 8.14-0.75 2.39 0 8.28 0.23 11.54 4.25 1.5 1.85 3.16 3.69 3.73 6 0.42 1.7 0.32 3.48 0.16 5.22-0.17 1.79-0.4 3.59-0.82 5.34-2.05 8.57-8.89 15.87-17.36 18.31-2.26 0.65-4.6 0.97-6.94 1.11-2.89 0.18-5.86 0.08-8.6-0.85-2.16-0.73-4.11-1.95-6.03-3.16 6.45-3.11 12.91-6.22 19.23-9.58 6.05-3.22 12.14-6.83 16.26-12.32-4.8 0.46-20.41 5.23-21.73 5.64-2.61 0.8-5.22 1.59-7.82 2.39-1.33 0.41-2.65 0.81-3.98 1.22-0.99 0.3-2.5 1.11-3.55 0.94-2.05-0.33-1.24-3.71-1.12-5.15 0.23-2.73 0.79-5.47 2.16-7.87z"></path>
    <path class="cls-16" d="m194.52 116.85c4.94-3.55 7.15-8.93 4.94-12-2.21-3.08-8.01-2.69-12.95 0.86s-7.15 8.93-4.94 12c2.21 3.08 8.01 2.69 12.95-0.86"></path>
    <path class="cls-18" d="m193.17 115.42c2.29-1.65 3.51-3.87 2.72-4.97-0.79-1.09-3.28-0.65-5.58 1-2.29 1.65-3.51 3.87-2.72 4.97 0.79 1.09 3.28 0.65 5.58-1"></path>
    <path class="cls-16" d="m214.81 118.84c5.34-2.93 8.18-7.99 6.36-11.31s-7.62-3.65-12.96-0.72-8.18 7.99-6.36 11.31 7.62 3.65 12.96 0.72"></path>
    <path class="cls-18" d="m213.65 117.26c2.48-1.36 3.96-3.42 3.31-4.6s-3.18-1.04-5.66 0.32-3.96 3.42-3.31 4.6 3.18 1.04 5.66-0.32"></path>
    <path class="cls-16" d="m200.73 127.72c4.94-3.55 7.15-8.93 4.94-12-2.21-3.08-8.01-2.69-12.95 0.86s-7.15 8.93-4.94 12c2.21 3.08 8.01 2.69 12.95-0.86"></path>
    <path class="cls-18" d="m199.38 126.29c2.29-1.65 3.51-3.87 2.72-4.97-0.79-1.09-3.28-0.65-5.58 1-2.29 1.65-3.51 3.87-2.72 4.97 0.79 1.09 3.28 0.65 5.58-1"></path>
    <path class="cls-16" d="m231.62 121.88c5.69-2.15 9.22-6.77 7.87-10.32-1.34-3.54-7.04-4.67-12.73-2.52s-9.22 6.77-7.87 10.32c1.34 3.54 7.04 4.67 12.73 2.52"></path>
    <path class="cls-18" d="m230.68 120.16c2.64-1 4.39-2.83 3.92-4.09-0.48-1.26-3.01-1.47-5.65-0.47s-4.39 2.83-3.92 4.09c0.48 1.26 3 1.47 5.65 0.47"></path>
    <path class="cls-16" d="m214.75 134.68c5.34-2.93 8.18-7.99 6.36-11.31s-7.62-3.65-12.96-0.72-8.18 7.99-6.36 11.31 7.62 3.65 12.96 0.72"></path>
    <path class="cls-18" d="m213.58 133.1c2.48-1.36 3.96-3.42 3.31-4.6s-3.18-1.04-5.66 0.32-3.96 3.42-3.31 4.6 3.18 1.04 5.66-0.32"></path>
    <path class="cls-16" d="m211.92 104.8c5.69-2.15 9.22-6.77 7.87-10.32-1.34-3.54-7.04-4.67-12.73-2.52s-9.22 6.77-7.87 10.32c1.34 3.54 7.04 4.67 12.73 2.52"></path>
    <path class="cls-18" d="m210.99 103.07c2.64-1 4.39-2.83 3.92-4.09-0.48-1.26-3.01-1.47-5.65-0.47s-4.39 2.83-3.92 4.09c0.48 1.26 3 1.47 5.65 0.47"></path>
    <path class="cls-32" d="m201.16 254.44c2.46 2.84 6.74 4.92 10.63 3.95 3.61-0.89 5.99-4.36 8.97-8.85 2.28-3.38 2.76-5.12 5.27-6.63 2.5-1.5 3.7-0.8 6-2.05 3.41-1.8 6.12-6.21 5.65-9.53-0.81-6.09-12.53-10.83-22-8.58-12.17 2.76-15.94 15.8-16.18 16.58-0.73 2.79-2.76 10 1.67 15.11"></path>
    <path class="cls-25" d="m227.26 231.74c1.69 1.1 4.71 2.29 5.77 1.12 0.87-1 0.15-3.27-1-4.6-2.29-2.65-7.36-2.57-8.08-1.11-0.53 1.2 1.61 3.49 3.31 4.58"></path>
    <path class="cls-23" d="m476.85 124.45c-5.76-1.97-11.76-2.68-17.7-3.37-2.95-0.34-6.37-0.5-8.22 1.85-1.79 2.28-1.22 5.82-0.35 8.8 2.75 9.4 7.64 18.19 14.1 25.35 2.83 3.14 6.11 6.06 9.96 7.23 3.52 1.07 7.21 0.58 10.62-0.47 4.74-1.46 9.45-4.38 11.15-9.36 4.67-13.69-8.65-26.31-19.56-30.04z"></path>
    <path class="cls-31" d="m494.14 151.83c-1.22-5.13-4.85-9.86-8.42-13.6-4.89-5.13-10.93-8.92-17.69-11.07-3.13-0.99-6.36-1.62-9.62-2.05-0.95-0.13-0.94 1.37 0 1.5 7.91 1.05 15.59 3.65 21.89 8.67 3.27 2.61 6.19 5.71 8.56 9.16 1.62 2.36 3.16 4.97 3.83 7.79 0.22 0.94 1.67 0.54 1.45-0.4z"></path>
    <path class="cls-31" d="m489.11 157.41c-2.65 1.03-5.9 0.78-8.66 0.46-3.47-0.4-6.35-1.45-9.21-3.46-3.46-2.43-6.57-5.49-9.36-8.66-2.78-3.15-5.13-6.66-6.7-10.57-0.35-0.89-1.81-0.5-1.45 0.4 1.61 4.04 3.97 7.66 6.82 10.94s6.25 6.61 9.92 9.19c3 2.1 6.01 3.17 9.63 3.62 2.98 0.37 6.53 0.64 9.4-0.48 0.89-0.35 0.5-1.8-0.4-1.45z"></path>
    <path class="cls-31" d="m489.1 153.15c-4.39-1.36-8.46-4.38-12.18-6.98-4.95-3.45-9.73-7.17-14.18-11.24-1.93-1.76-3.86-3.59-5.45-5.67-0.58-0.76-1.88-0.01-1.3 0.76 3.18 4.17 7.38 7.62 11.44 10.9 4.76 3.84 9.73 7.5 14.99 10.63 1.99 1.18 4.06 2.37 6.28 3.06 0.92 0.29 1.32-1.16 0.4-1.45z"></path>
    <path class="cls-31" d="m492.77 152.45c-1.17-1.9-2.84-3.52-4.44-5.05-2.36-2.26-4.86-4.37-7.41-6.4-4.64-3.68-9.59-7.59-15.05-9.97-0.88-0.38-1.64 0.91-0.76 1.3 5.35 2.33 10.21 6.13 14.75 9.74 2.48 1.97 4.91 4.02 7.22 6.21 1.58 1.5 3.26 3.07 4.41 4.93 0.51 0.82 1.8 0.07 1.3-0.76z"></path>
    <path class="cls-16" d="m154.84 96.73c5.02-3.44 7.35-8.76 5.21-11.89s-7.95-2.87-12.97 0.56c-5.02 3.44-7.35 8.76-5.21 11.89s7.95 2.87 12.97-0.56"></path>
    <path class="cls-18" d="m153.52 95.27c2.33-1.6 3.6-3.79 2.84-4.9s-3.27-0.72-5.6 0.87c-2.33 1.6-3.6 3.79-2.84 4.9s3.27 0.72 5.6-0.87"></path>
    <path class="cls-16" d="m175.07 99.19c5.4-2.8 8.37-7.8 6.62-11.16-1.74-3.36-7.54-3.82-12.94-1.02s-8.37 7.8-6.62 11.16c1.74 3.36 7.54 3.82 12.94 1.02"></path>
    <path class="cls-18" d="m173.94 97.59c2.51-1.3 4.03-3.32 3.41-4.52s-3.16-1.11-5.66 0.18c-2.51 1.3-4.03 3.33-3.41 4.52 0.62 1.2 3.16 1.11 5.66-0.19"></path>
    <path class="cls-16" d="m160.79 107.74c5.02-3.44 7.35-8.76 5.21-11.89s-7.95-2.87-12.97 0.56c-5.02 3.44-7.35 8.76-5.21 11.89s7.95 2.87 12.97-0.56"></path>
    <path class="cls-18" d="m159.48 106.29c2.33-1.6 3.6-3.79 2.84-4.9s-3.27-0.72-5.6 0.87c-2.33 1.6-3.6 3.79-2.84 4.9s3.27 0.72 5.6-0.87"></path>
    <path class="cls-16" d="m191.8 102.62c5.74-2.02 9.37-6.56 8.11-10.13s-6.93-4.83-12.67-2.81-9.37 6.56-8.11 10.13 6.93 4.83 12.67 2.81"></path>
    <path class="cls-18" d="m190.91 100.87c2.66-0.94 4.46-2.73 4.01-4s-2.97-1.54-5.63-0.6-4.46 2.73-4.01 4 2.97 1.54 5.63 0.6"></path>
    <path class="cls-16" d="m174.64 115.03c5.4-2.8 8.37-7.8 6.62-11.16-1.74-3.36-7.54-3.82-12.94-1.02s-8.37 7.8-6.62 11.16c1.74 3.36 7.54 3.82 12.94 1.02"></path>
    <path class="cls-18" d="m173.52 113.42c2.51-1.3 4.03-3.32 3.41-4.52s-3.16-1.11-5.66 0.18c-2.51 1.3-4.03 3.33-3.41 4.52 0.62 1.2 3.16 1.11 5.66-0.19"></path>
    <path class="cls-16" d="m172.5 85.09c5.74-2.02 9.37-6.56 8.11-10.13s-6.93-4.83-12.67-2.81-9.37 6.56-8.11 10.13 6.93 4.83 12.67 2.81"></path>
    <path class="cls-18" d="m171.61 83.34c2.66-0.94 4.46-2.73 4.01-4s-2.97-1.54-5.63-0.6-4.46 2.73-4.01 4 2.97 1.54 5.63 0.6"></path>
    <g data-name="Ebene 2">
      <path class="cls-35" d="m249.06 127.08c-1.71 8.05-11.68 12.93-13.89 17.87-2.06 4.73-1.86 10.12 0.5 14.65 2.72 5.03 8.76 9.41 12.33 8.1 1.36-0.5 2.72-2.01 4.63-1.56 0.91 0.2 1.26 0.7 1.91 1.16 2.72 1.86 6.64 0.65 7.6 0.4 4.83-1.46 7-6.19 7.7-7.7 3.52-7.65-0.1-15.35-0.5-16.21-0.6-1.21-3.37-6.79-9.01-9.91-2.21-1.21-5.03-2.11-6.14-4.88-0.65-1.66-0.3-2.92-1.31-3.62-1.21-0.75-2.82-0.35-3.52 0.91-0.15 0.3-0.25 0.55-0.3 0.81z"></path>
      <path class="cls-19" d="m250.32 142.53c-2.01 0.2-3.52 6.95-2.82 12.73 0.6 4.83 2.82 10.07 4.38 9.91 0.96-0.1 1.41-2.11 2.06-5.13 0.86-3.88 1.76-8 0-12.58-0.4-1.01-1.96-5.08-3.62-4.93z"></path>
      <path class="cls-34" d="m255 134.38c-0.6 0.6 0.35 3.37 2.57 4.13 1.51 0.5 3.47 0 3.62-0.75 0.25-1.46-5.28-4.33-6.19-3.37z"></path>
      <path class="cls-35" d="m296.5 170.83c-7.78 2.68-17.1-3.35-22.47-2.7-5.12 0.67-9.63 3.61-12.29 7.98-2.91 4.92-3.56 12.35-0.59 14.74 1.13 0.91 3.13 1.29 3.72 3.17 0.29 0.88 0.04 1.44 0 2.24-0.2 3.29 2.86 6.03 3.57 6.72 3.74 3.39 8.91 2.81 10.57 2.63 8.37-0.92 13.11-7.99 13.63-8.78 0.72-1.14 4.09-6.39 3.86-12.83-0.11-2.52-0.78-5.4 1.02-7.78 1.09-1.42 2.35-1.76 2.43-2.99 0.02-1.42-1.15-2.6-2.59-2.55-0.34 0.03-0.6 0.07-0.85 0.16z"></path>
      <path class="cls-19" d="m283.9 179.86c-1.21-1.62-7.77 0.56-12.37 4.14-3.83 3.01-7.18 7.6-6.24 8.86 0.58 0.77 2.54 0.12 5.46-0.88 3.76-1.26 7.77-2.61 10.78-6.48 0.66-0.86 3.35-4.3 2.36-5.65z"></path>
      <path class="cls-34" d="m293.3 179.68c-0.83-0.21-2.71 2.04-2.22 4.33 0.35 1.55 1.79 2.98 2.51 2.72 1.38-0.54 0.99-6.76-0.3-7.04z"></path>
      <path class="cls-35" d="m224.09 194.19c9.04 0.28 16.48-8.26 22.27-9.23 5.54-0.87 11.29 0.63 15.65 4.03 4.82 3.87 8.21 10.82 6.01 13.99-0.84 1.2-2.76 2.16-2.69 4.14 0.02 0.93 0.48 1.4 0.83 2.15 1.41 3.1-0.75 6.64-1.23 7.51-2.63 4.36-8.2 5.33-9.97 5.65-9 1.59-16.5-3.81-17.33-4.41-1.17-0.88-6.57-4.93-8.69-11.19-0.81-2.45-1.17-5.42-3.91-7.17-1.64-1.04-3.07-1-3.61-2.15-0.55-1.36 0.24-2.84 1.75-3.22 0.36-0.07 0.65-0.11 0.93-0.1z"></path>
      <path class="cls-19" d="m240.44 199.15c0.66-1.92 8.25-1.76 14.32 0.33 5.07 1.76 10.21 5.18 9.71 6.67-0.32 0.91-2.58 0.86-5.98 0.77-4.36-0.1-9-0.22-13.54-3.04-0.99-0.64-5.04-3.14-4.51-4.73z"></path>
      <path class="cls-34" d="m230.64 201.75c0.78-0.44 3.55 1.16 3.88 3.5 0.21 1.59-0.76 3.39-1.61 3.35-1.63-0.11-3.5-6.2-2.27-6.86z"></path>
      <path class="cls-35" d="m190.71 151.8c4.62 6.82 1.23 17.38 3.25 22.4 1.98 4.77 6 8.35 10.9 9.79 5.51 1.53 12.85 0.21 14.39-3.27 0.58-1.33 0.43-3.35 2.09-4.42 0.77-0.51 1.38-0.42 2.16-0.58 3.23-0.67 5.08-4.33 5.56-5.2 2.3-4.49 0.39-9.33-0.21-10.89-3.07-7.84-11.13-10.57-12.03-10.87-1.29-0.4-7.23-2.28-13.39-0.38-2.41 0.76-5.01 2.16-7.77 1.04-1.65-0.68-2.31-1.81-3.52-1.57-1.38 0.35-2.21 1.79-1.79 3.17 0.11 0.32 0.22 0.57 0.37 0.78z"></path>
      <path class="cls-19" d="m202.72 161.6c-1.25 1.59 2.56 7.35 7.22 10.86 3.9 2.91 9.21 4.95 10.18 3.72 0.59-0.76-0.55-2.48-2.27-5.05-2.2-3.3-4.55-6.82-9.07-8.72-1-0.41-5.02-2.11-6.07-0.81z"></path>
      <path class="cls-34" d="m200.09 152.58c0.02 0.85 2.67 2.08 4.75 1.01 1.41-0.74 2.41-2.5 1.97-3.14-0.88-1.19-6.78 0.81-6.72 2.12z"></path>
    </g>
    <path class="cls-32" d="m237.98 288.26c3.67 2.25 6.67 6.48 6.01 10.63-0.62 3.85-4.45 6.7-9.42 10.28-3.74 2.74-5.75 3.42-7.23 6.19s-0.49 3.93-1.7 6.46c-1.72 3.74-6.63 7.03-10.63 6.9-7.34-0.19-14.42-11.87-12.91-21.96 1.79-12.96 16.82-18.28 17.72-18.61 3.22-1.06 11.55-3.94 18.17 0.11"></path>
    <path class="cls-25" d="m214.2 317.85c1.51 1.64 3.3 4.66 2.05 5.88-1.09 1.01-3.87 0.5-5.59-0.55-3.43-2.1-3.95-7.37-2.31-8.29 1.37-0.68 4.34 1.3 5.86 2.95"></path>
    <path class="cls-10" d="m167.2 247.68c-8.75-6.56-18.96-5.33-19.85-5.22-11.39 1.57-19.94 10.38-22.86 19.31-0.42 1.28-2.88 10.34 0.64 14.21 9.48 10.33 23.97-10.57 28.53-11.14 5.7-0.72 7.75 3.72 13.46 2.55 3.44-0.76 7.32-3.24 8.22-6.77 1.32-5.83-6.16-11.52-8.14-12.94"></path>
    <path class="cls-3" d="m129.4 261.92c-1.37-0.15-3.09 3.09-3.17 6-0.06 1.55 0.33 4.14 1.52 4.38s2.87-1.78 3.46-3.72c0.93-2.82-0.36-6.46-1.81-6.66"></path>
    <path class="cls-10" d="m141.61 309.89c1.27-3.61 0.95-8.47-1.87-11.42-2.62-2.75-6.9-3.1-12.39-3.48-4.16-0.31-5.94 0.14-8.54-1.31-2.6-1.46-2.58-2.87-4.86-4.28-3.32-2.11-8.61-2.28-11.31-0.19-4.99 3.8-3.26 16.59 3.53 23.86 8.61 9.4 22.08 6.14 22.89 5.95 2.84-0.76 10.27-2.62 12.56-9.13"></path>
    <path class="cls-3" d="m108.27 298.23c0.11-2.06-0.36-5.34-1.93-5.69-1.33-0.26-2.98 1.53-3.57 3.21-1.19 3.37 1.45 7.82 3.11 7.73 1.34-0.14 2.27-3.2 2.39-5.25"></path>
    <path class="cls-10" d="m173.79 281.18c-3.31-1.93-8.14-2.53-11.57-0.32-3.2 2.05-4.35 6.18-5.76 11.5-1.09 4.02-0.98 5.86-2.91 8.14s-3.31 1.99-5.13 3.96c-2.7 2.86-3.87 8.02-2.32 11.07 2.78 5.62 15.68 6.35 24.09 1.05 10.86-6.68 10.21-20.52 10.18-21.35-0.21-2.93-0.63-10.58-6.58-14.06"></path>
    <path class="cls-3" d="m156.03 311.72c-2-0.5-5.31-0.66-5.95 0.81-0.51 1.26 0.94 3.21 2.48 4.11 3.09 1.8 7.95 0.06 8.18-1.59 0.12-1.34-2.71-2.84-4.71-3.34"></path>
    <path class="cls-10" d="m102.59 284.42c-4.4-0.19-9.17-2.49-10.62-6.52-1.35-3.75 0.66-8.18 3.32-13.84 1.99-4.3 3.44-5.9 3.4-9.11-0.05-3.2-1.5-3.75-1.68-6.62-0.32-4.19 2.45-9.57 6.09-11.42 6.65-3.46 18.75 3.47 22.39 13.23 4.81 12.46-5.98 24.65-6.63 25.39-2.35 2.54-8.37 9.24-16.28 8.89"></path>
    <path class="cls-21" d="m109.19 246.23c-2.16-0.72-5.25-2.53-4.74-4.24 0.47-1.44 3.21-2.37 5.26-2.28 4.1 0.18 7.18 4.63 6.16 6.26-0.88 1.28-4.52 0.98-6.69 0.26"></path>
    <path class="cls-10" d="m148.88 229.69c1.27-3.61 0.95-8.47-1.87-11.42-2.62-2.75-6.9-3.1-12.39-3.48-4.16-0.31-5.94 0.14-8.54-1.31-2.6-1.46-2.58-2.87-4.86-4.28-3.32-2.11-8.61-2.28-11.31-0.19-4.99 3.8-3.26 16.59 3.53 23.86 8.61 9.4 22.08 6.14 22.89 5.95 2.84-0.76 10.27-2.62 12.56-9.13"></path>
    <path class="cls-3" d="m115.54 218.03c0.11-2.06-0.36-5.34-1.93-5.69-1.33-0.26-2.98 1.53-3.57 3.21-1.19 3.37 1.45 7.82 3.11 7.73 1.34-0.14 2.27-3.2 2.39-5.25"></path>
    <path class="cls-32" d="m259.66 239.61c-1.69 10.57 4.04 18.86 4.54 19.58 6.56 9.15 18.09 12.53 27.17 10.99 1.3-0.22 10.28-2.23 12.02-7.04 4.62-12.93-20.1-15.94-22.68-19.63-3.23-4.61-0.31-8.41-3.94-12.82-2.23-2.64-6.15-4.86-9.62-4.03-5.66 1.52-7.17 10.59-7.5 12.96"></path>
    <path class="cls-25" d="m289.26 265.85c0.5 1.26 4.09 1.26 6.65 0 1.37-0.66 3.44-2.18 3.1-3.32s-2.85-1.67-4.8-1.3c-2.87 0.48-5.43 3.26-4.95 4.61"></path>
    <g data-name="Ebene 2">
      <path class="cls-35" d="m206.32 180.91c-7.14 4.1-17.43-0.07-22.58 1.57-4.9 1.62-8.78 5.36-10.57 10.15-1.94 5.38-1.17 12.8 2.19 14.59 1.28 0.68 3.31 0.68 4.25 2.41 0.45 0.81 0.31 1.41 0.41 2.2 0.43 3.27 3.95 5.38 4.77 5.93 4.31 2.63 9.28 1.08 10.87 0.6 8.05-2.48 11.37-10.32 11.74-11.19 0.5-1.26 2.81-7.05 1.37-13.33-0.58-2.46-1.78-5.16-0.46-7.83 0.8-1.6 1.97-2.17 1.83-3.39-0.24-1.4-1.62-2.33-3.03-2.02-0.33 0.09-0.58 0.18-0.8 0.31z"></path>
      <path class="cls-19" d="m195.65 192.16c-1.49-1.37-7.52 2.01-11.36 6.4-3.2 3.67-5.62 8.82-4.46 9.88 0.71 0.65 2.51-0.36 5.2-1.89 3.46-1.95 7.14-4.03 9.37-8.4 0.48-0.97 2.48-4.85 1.26-5.99z"></path>
      <path class="cls-34" d="m204.85 190.2c-0.85-0.05-2.28 2.51-1.36 4.67 0.63 1.46 2.32 2.59 2.98 2.2 1.26-0.79-0.3-6.82-1.62-6.86z"></path>
    </g>
    <polygon class="cls-6" points="600.94 119.08 600.25 120.42 599.52 121.76 598.75 123.06 597.89 124.31 597 125.53 596.02 126.67 595.01 127.77 593.95 128.86 592.86 129.84 591.72 130.73 590.54 131.58 589.32 132.36 588.71 132.72 588.06 133.05 587.05 133.05 586.03 133.09 584.98 133.21 583.92 133.33 582.9 133.45 581.85 133.66 580.75 133.86 579.69 134.1 578.64 134.39 577.58 134.67 575.43 135.32 573.23 136.05 571.08 136.86 568.89 137.68 566.69 138.53 564.5 139.38 562.31 140.28 560.11 141.13 557.92 141.98 555.73 142.79 553.57 143.53 551.42 144.18 550.36 144.5 549.27 144.78 548.21 145.03 547.15 145.23 546.1 145.47 545.04 145.64 543.99 145.76 542.97 145.88 541.91 145.92 540.9 145.96 539.88 145.96 538.87 145.92 537.85 145.84 536.84 145.72 535.86 145.52 534.89 145.27 533.87 145.03 532.94 144.66 531.96 144.3 531.03 143.85 530.09 143.36 529.16 142.79 528.22 142.18 527.33 141.49 526.4 140.76 525.54 139.95 524.65 139.06 523.8 138.12 522.94 137.11 522.09 136.01 521.97 135.56 521.85 135.12 521.81 134.67 521.81 134.18 521.85 133.25 521.97 132.32 522.05 131.46 522.05 131.02 522.05 130.61 522.01 130.24 521.89 129.88 521.72 129.55 521.48 129.23 521.93 128.05 522.41 126.91 522.94 125.86 523.51 124.84 524.12 123.91 524.77 123.01 525.5 122.16 526.23 121.35 527.01 120.62 527.82 119.93 528.67 119.24 529.56 118.63 530.5 118.06 531.43 117.53 532.41 117 533.42 116.56 534.44 116.11 535.5 115.7 536.55 115.38 537.61 115.01 538.7 114.69 539.8 114.45 540.94 114.16 542.08 113.92 544.35 113.55 546.67 113.19 548.98 112.94 551.26 112.7 552.27 112.46 553.21 112.17 554.14 111.81 555.04 111.44 555.93 111.03 556.78 110.59 557.64 110.14 558.45 109.65 559.22 109.12 560.03 108.6 561.54 107.46 563.04 106.32 565.96 103.89 567.43 102.67 568.93 101.49 570.43 100.39 571.2 99.82 572.02 99.34 572.83 98.81 573.68 98.36 574.53 97.92 575.39 97.47 576.28 97.1 577.22 96.78 577.62 96.45 578.07 96.17 578.52 95.92 578.96 95.72 579.45 95.48 579.98 95.32 580.47 95.15 580.99 94.99 581.52 94.87 582.09 94.79 582.62 94.71 583.19 94.67 583.76 94.63 584.33 94.63 584.89 94.67 585.46 94.71 586.15 95.23 586.88 95.8 587.66 96.33 588.47 96.82 590.09 97.79 591.8 98.69 593.51 99.62 595.17 100.55 596.02 101.04 596.8 101.53 597.57 102.02 598.34 102.55 599.03 103.07 599.72 103.64 600.33 104.21 600.94 104.78 601.47 105.43 601.92 106.08 602.32 106.77 602.69 107.5 602.93 108.27 603.13 109.08 603.22 109.49 603.26 109.9 603.3 110.79 603.3 111.28 603.26 111.72 603.17 112.25 603.09 112.74 602.97 113.23 602.85 113.8 602.69 114.32 602.48 114.85 602.04 116.27 601.51 117.69"></polygon>
    <polygon class="cls-1" points="595.54 108.92 595.42 108.96 595.13 109.04 594.85 109.12 593.99 108.6 594.03 108.39 594.07 108.19 594.2 108.03 594.32 107.91 594.48 107.78 594.64 107.7 594.81 107.66 595.01 107.62 595.17 107.62 595.33 107.66 595.5 107.7 595.62 107.82 595.74 107.95 595.78 108.07 595.82 108.31 595.82 108.52 595.74 108.68 595.66 108.8"></polygon>
    <polygon class="cls-1" points="597.45 113.71 597.24 113.88 597 114 596.39 114.16 595.82 114.36 596.92 111.52 597.16 111.64 597.32 111.76 597.45 111.97 597.53 112.17 597.61 112.7 597.65 112.94 597.69 113.15 597.69 113.31 597.61 113.47"></polygon>
    <polygon class="cls-1" points="590.18 112.09 589.97 112.21 589.73 112.29 589.24 112.33 589 112.41 588.75 112.46 588.43 111.07 588.71 110.99 589.04 110.95 589.4 110.87 589.69 110.83 589.85 110.87 590.01 110.87 590.09 110.95 590.22 111.03 590.3 111.16 590.38 111.28 590.42 111.48 590.42 111.68 590.38 111.81 590.3 111.93"></polygon>
    <polygon class="cls-1" points="593.02 116.84 592.94 117.04 592.86 117.25 592.73 117.37 592.57 117.53 592.37 117.65 591.96 117.86 591.47 118.02 591.03 118.14 590.58 118.22 592.21 120.33 590.78 121.27 589.36 122.16 589.44 122.41 589.53 122.61 589.81 123.01 589.97 123.26 590.13 123.46 590.42 123.87 590.54 124.07 590.62 124.27 590.7 124.48 590.7 124.72 590.66 124.92 590.58 125.13 590.46 125.37 590.22 125.57 589.93 125.65 589.65 125.7 589 125.86 588.39 126.02 588.06 126.06 587.78 126.06 587.45 126.06 587.17 126.02 586.93 125.94 586.68 125.86 586.48 125.65 586.32 125.45 586.15 125.17 586.03 124.8 589.53 122.85 589.53 122.53 589.44 122.28 589.32 122.12 589.16 122 589 121.92 588.79 121.88 588.39 121.84 587.94 121.84 587.78 121.8 587.62 121.72 587.45 121.59 587.33 121.43 587.25 121.19 587.25 121.02 587.25 120.86 590.05 119.08 590.01 118.83 589.93 118.63 589.81 118.47 589.69 118.3 589.36 118.02 589.16 117.9 589 117.78 588.63 117.49 588.51 117.33 588.39 117.17 588.31 116.96 588.23 116.76 588.23 116.52 588.27 116.23 588.51 116.03 588.79 115.87 589.08 115.74 589.4 115.62 589.69 115.5 590.01 115.46 590.3 115.38 590.62 115.38 590.95 115.38 591.23 115.38 591.56 115.46 591.84 115.54 592.17 115.66 592.45 115.79 592.69 115.95 592.98 116.15 593.06 116.39 593.06 116.64"></polygon>
    <polygon class="cls-1" points="580.79 117 580.3 117.86 579.41 117.33 579.94 116.48"></polygon>
    <polygon class="cls-1" points="585.18 120.42 585.02 120.58 584.85 120.7 584.65 120.82 584.24 120.94 583.76 121.02 583.31 121.07 582.86 121.02 582.5 120.94 582.29 120.78 582.09 120.66 581.93 120.62 581.81 120.54 581.56 120.42 581.32 120.25 581.16 120.05 581.12 119.93 581.08 119.81 581.03 119.64 581.08 119.48 581.24 119.16 581.48 118.91 581.73 118.75 581.97 118.63 582.25 118.55 582.54 118.51 582.86 118.55 583.15 118.63 583.47 118.71 583.76 118.83 584.41 119.12 584.98 119.48 585.5 119.85 585.42 120.05 585.3 120.25"></polygon>
    <polygon class="cls-1" points="575.96 118.22 575.67 118.34 575.35 118.38 575.02 118.38 574.62 118.34 574.17 118.3 574.17 118.26 572.91 117.53 572.95 117.29 572.99 117.04 573.15 116.72 573.23 116.56 573.36 116.44 573.56 116.27 573.8 116.19 574.05 116.15 574.33 116.23 574.62 116.31 574.94 116.44 575.23 116.6 575.83 116.92 576.44 117.33 576.69 117.49 576.93 117.61 576.57 117.86 576.24 118.1"></polygon>
    <polygon class="cls-1" points="583.39 124.36 583.19 124.48 582.94 124.56 582.46 124.6 582.21 124.64 582.01 124.72 581.6 124.48 581.24 124.23 580.79 124.03 580.38 123.79 580.02 123.54 579.69 123.26 579.53 123.1 579.29 122.69 579.25 122.49 579.37 122.32 579.53 122.16 579.65 122.04 579.82 121.92 580.1 121.76 580.38 121.72 580.71 121.72 581.03 121.76 581.36 121.88 581.64 122.04 581.97 122.24 582.25 122.49 582.78 122.97 583.03 123.26 583.27 123.5 583.47 123.75 583.59 123.95 583.59 124.07 583.51 124.19"></polygon>
    <polygon class="cls-1" points="576.16 122.73 576 122.85 575.79 122.97 575.59 123.06 575.35 123.1 575.1 123.1 574.62 123.1 574.09 123.06 573.84 123.01 573.6 122.97 573.15 122.93 572.95 122.77 572.71 122.65 572.46 122.53 572.22 122.41 571.98 122.24 571.81 122 571.73 121.92 571.69 121.8 571.69 121.63 571.69 121.47 571.98 121.23 572.3 121.11 572.63 120.94 572.95 120.86 573.32 120.78 573.68 120.74 574.01 120.7 574.37 120.74 574.74 120.82 575.06 120.9 575.39 121.02 575.67 121.15 575.96 121.35 576.2 121.55 576.4 121.8 576.61 122.08 576.48 122.32 576.32 122.57"></polygon>
    <polygon class="cls-1" points="579.73 129.31 579.37 129.31 578.96 129.27 578.6 129.15 578.39 129.07 578.23 128.99 578.03 128.82 577.87 128.66 577.78 128.46 577.74 128.29 577.74 128.09 577.78 127.93 577.83 127.77 577.91 127.6 578.03 127.44 578.15 127.32 578.48 127.08 578.84 126.91 579.21 126.79 579.61 126.79 580.02 126.95 580.38 127.2 580.75 127.52 580.91 127.69 581.08 127.89 581.16 128.05 581.24 128.25 581.32 128.46 581.32 128.62 581.28 128.82 581.24 129.03 581.12 129.19 580.95 129.35 580.55 129.31 580.14 129.31"></polygon>
    <polygon class="cls-1" points="569.62 122.65 569.34 122.77 569.01 122.85 568.69 122.93 568.04 123.1 567.75 123.18 566.04 122.16 566.09 121.92 566.21 121.72 566.29 121.51 566.45 121.35 566.57 121.19 566.74 121.07 567.06 120.86 567.43 120.74 567.83 120.66 568.24 120.7 568.6 120.78 568.85 120.9 569.05 121.02 569.29 121.15 569.58 121.31 569.78 121.47 569.94 121.67 570.03 121.8 570.07 121.92 570.07 122.08 570.07 122.24 569.99 122.37 569.86 122.49"></polygon>
    <polygon class="cls-1" points="574.74 126.51 574.45 126.87 574.21 127.28 573.72 128.17 573.48 128.62 573.23 129.03 572.99 129.39 572.67 129.72 572.54 129.84 572.38 129.92 572.18 130 571.98 130.04 571.81 130.08 571.61 130.04 571.37 130 571.12 129.92 570.84 129.8 570.59 129.64 570.31 129.43 569.99 129.15 569.99 128.94 570.03 128.66 570.15 128.34 570.27 128.01 570.43 127.69 570.59 127.36 570.84 127 571.08 126.71 571.37 126.39 571.69 126.1 572.02 125.82 572.38 125.61 572.79 125.41 573.19 125.29 573.64 125.25 574.09 125.25 575.39 126.02 575.23 126.1 575.02 126.22"></polygon>
    <polygon class="cls-1" points="559.18 126.35 558.98 126.43 558.81 126.47 558.61 126.51 558.2 126.51 557.35 126.39 556.9 126.35 556.5 126.35 556.42 126.18 556.38 126.06 556.34 125.94 556.34 125.78 556.42 125.53 556.54 125.29 556.66 125.05 556.78 124.92 556.86 124.8 556.99 124.6 557.11 124.36 557.51 124.31 557.88 124.4 558.29 124.48 558.69 124.64 559.06 124.88 559.34 125.17 559.46 125.33 559.54 125.49 559.63 125.7 559.67 125.9 559.5 126.1 559.34 126.22"></polygon>
    <polygon class="cls-1" points="563.61 129.39 563.4 129.59 563.16 129.76 562.92 129.92 562.63 130 562.31 130.08 561.7 130.16 561.09 130.2 560.03 130.2 559.18 129.68 559.3 129.35 559.5 129.07 559.75 128.78 559.99 128.54 560.28 128.34 560.6 128.17 560.93 128.01 561.29 127.93 561.66 127.85 561.98 127.81 562.35 127.85 562.71 127.89 563.04 127.97 563.4 128.09 563.69 128.25 563.97 128.46 563.89 128.82 563.77 129.11"></polygon>
    <polygon class="cls-1" points="566.86 132.36 566.65 132.52 566.45 132.64 566.21 132.64 565.96 132.6 565.84 132.52 565.68 132.44 564.38 131.67 565.44 129.92 565.72 130.12 566 130.33 566.33 130.49 566.65 130.61 566.9 130.81 567.14 131.06 567.22 131.18 567.26 131.3 567.3 131.46 567.3 131.67 567.22 131.91 567.06 132.15"></polygon>
    <polygon class="cls-1" points="561.45 133.94 561.25 134.14 561.01 134.31 560.76 134.43 560.48 134.55 560.15 134.63 559.54 134.71 558.94 134.75 557.88 134.75 557.43 134.47 557.51 134.18 557.59 133.9 557.76 133.62 557.96 133.41 558.2 133.17 558.49 133.01 558.77 132.84 559.1 132.72 559.42 132.64 559.79 132.56 560.15 132.56 560.52 132.56 560.84 132.64 561.21 132.72 561.54 132.84 561.82 133.01 561.74 133.37 561.62 133.66"></polygon>
    <polygon class="cls-1" points="555.73 130.77 555.6 130.93 555.44 131.1 555.28 131.22 554.87 131.42 554.47 131.54 554.02 131.67 553.57 131.79 553.17 131.91 553 131.87 552.84 131.83 552.72 131.75 552.6 131.67 552.44 131.46 552.31 131.22 551.95 130 552.15 129.84 552.35 129.72 552.6 129.55 552.84 129.47 553.13 129.39 553.37 129.31 553.65 129.27 553.9 129.27 554.18 129.27 554.47 129.31 554.75 129.39 554.99 129.47 555.28 129.59 555.52 129.72 555.77 129.92 555.97 130.12 555.93 130.37 555.81 130.57"></polygon>
    <polygon class="cls-1" points="545.49 127.48 545.29 127.56 545.04 127.56 544.84 127.56 544.64 127.52 544.43 127.48 544.23 127.4 544.07 127.24 543.9 127.12 543.74 126.91 543.58 126.75 543.5 126.51 543.38 126.26 543.3 125.98 543.46 125.78 543.62 125.61 543.86 125.49 544.11 125.41 544.35 125.33 544.6 125.33 544.88 125.33 545.12 125.41 545.37 125.45 545.61 125.61 545.81 125.78 545.98 125.94 546.1 126.18 546.18 126.47 546.18 126.79 546.14 127.12 545.94 127.28 545.69 127.4"></polygon>
    <polygon class="cls-1" points="548.82 130 548.66 130.08 548.45 130.12 548.29 130.16 547.89 130.16 547.48 130.08 547.11 129.92 546.75 129.8 546.38 129.59 546.3 129.43 546.26 129.31 546.22 129.15 546.22 129.03 546.26 128.78 546.38 128.54 546.71 128.09 546.87 127.85 546.99 127.6 547.24 127.69 547.48 127.81 547.85 127.97 548.17 128.13 548.41 128.34 548.66 128.54 548.86 128.82 549.06 129.15 549.19 129.35 549.31 129.59 549.15 129.76 548.98 129.88"></polygon>
    <polygon class="cls-1" points="553.49 135.24 554.06 135.28 554.59 135.32 554.87 135.36 555.12 135.44 555.36 135.56 555.56 135.65 555.73 135.85 555.93 136.05 556.05 136.34 556.17 136.62 556.09 136.86 555.97 137.07 555.85 137.23 555.69 137.39 555.28 137.6 554.87 137.76 554.39 137.84 553.94 137.84 553.53 137.8 553.17 137.72 552.92 137.64 552.72 137.51 552.39 137.27 552.15 136.99 551.91 136.7 551.74 136.38 551.58 136.05 551.34 135.4 551.22 135.12 551.05 134.83 550.85 134.59 550.61 134.39 550.32 134.22 550.16 134.14 549.96 134.1 549.75 134.06 549.51 134.02 549.23 134.02 548.94 134.06 548.9 133.7 548.94 133.45 548.98 133.21 549.06 133.05 549.19 132.92 549.35 132.8 549.51 132.72 549.75 132.68 550.2 132.6 550.73 132.52 551.26 132.44 551.5 132.36 551.79 132.23 552.11 132.32 552.31 132.44 552.52 132.56 552.6 132.72 552.68 132.84 552.68 133.01 552.68 133.21 552.68 133.41 552.44 134.18 552.39 134.63 552.39 134.79 552.48 135 552.72 135.08 552.96 135.16"></polygon>
    <polygon class="cls-1" points="540.82 131.18 540.74 131.38 540.61 131.58 540.49 131.75 540.33 131.91 540.21 132.03 539.84 132.23 539.48 132.36 539.11 132.44 538.7 132.4 538.3 132.32 538.01 132.32 537.81 132.23 537.61 132.19 537.4 132.11 537.28 132.03 537.12 131.95 536.96 131.71 536.8 131.46 536.71 131.18 536.63 129.96 536.55 129.68 536.47 129.43 536.31 129.19 536.19 129.07 536.02 128.99 535.86 128.9 535.7 128.82 535.45 128.78 535.21 128.7 535.17 128.46 535.13 128.25 535.13 128.05 535.17 127.85 535.29 127.64 535.41 127.48 535.58 127.36 535.74 127.24 535.9 127.16 536.1 127.08 536.31 127 536.55 126.95 536.75 126.95 536.96 127 537.2 127 537.36 127.08 537.45 127.32 537.53 127.56 537.65 128.09 537.81 128.74 538.01 129.35 538.18 129.64 538.34 129.88 538.5 130.12 538.75 130.28 538.99 130.41 539.27 130.49 539.64 130.49 539.8 130.49 540.05 130.45 540.9 130.93 540.9 130.98"></polygon>
    <polygon class="cls-1" points="544.51 135.48 544.27 135.61 543.82 135.85 543.38 136.17 542.48 136.95 542.08 137.31 541.67 137.68 541.26 137.96 540.82 138.2 540.65 138.33 540.41 138.37 540.25 138.41 540.05 138.41 539.84 138.37 539.64 138.33 539.44 138.2 539.23 138.08 539.03 137.88 538.83 137.64 538.62 137.39 538.42 137.03 538.75 136.86 539.11 136.62 539.52 136.38 539.88 136.05 540.29 135.73 540.65 135.4 541.1 135.12 541.51 134.83 541.91 134.59 542.36 134.43 542.81 134.31 543.05 134.31 543.25 134.31 543.5 134.31 543.74 134.39 543.99 134.47 544.23 134.55 544.51 134.71 544.76 134.87 545 135.08 545.29 135.32 545 135.36 544.76 135.4"></polygon>
    <polygon class="cls-1" points="548.09 140.76 547.28 141.05 546.87 141.17 546.46 141.25 546.06 141.29 545.65 141.33 545.29 141.33 544.88 141.29 544.51 141.21 544.15 141.09 543.99 140.4 544.19 140.48 544.43 140.48 544.68 140.48 544.88 140.44 545.12 140.36 545.33 140.24 545.73 139.99 546.14 139.63 546.55 139.26 547.32 138.53 547.68 138.2 548.05 137.96 548.25 137.88 548.41 137.8 548.62 137.8 548.82 137.8 548.98 137.84 549.19 137.92 549.35 138.08 549.55 138.25 549.75 138.49 549.96 138.77 550.12 139.14 550.32 139.55 549.63 139.99 548.9 140.4"></polygon>
    <polygon class="cls-1" points="532.69 134.22 532.41 134.22 532.16 134.18 531.92 134.14 531.47 134.02 531.15 133.86 530.82 133.62 530.58 133.37 530.34 133.09 530.13 132.76 529.97 132.4 529.81 131.99 529.65 131.54 529.48 131.1 529.32 130.61 529.12 130.12 528.87 129.59 528.96 129.27 529.08 129.03 529.2 128.86 529.36 128.74 529.56 128.66 529.73 128.62 529.93 128.66 530.13 128.7 530.58 128.86 531.03 129.11 531.43 129.35 531.8 129.59 531.68 129.84 531.55 130.08 531.51 130.28 531.47 130.49 531.47 130.65 531.51 130.81 531.6 130.98 531.68 131.14 531.92 131.38 532.2 131.63 532.9 131.99 533.26 132.19 533.59 132.36 533.83 132.56 534.03 132.8 534.11 132.92 534.15 133.09 534.15 133.25 534.11 133.41 534.07 133.57 533.99 133.78 533.87 133.98 533.67 134.22 533.34 134.22 533.02 134.22"></polygon>
    <polygon class="cls-1" points="536.02 137.31 535.86 137.51 535.7 137.68 535.5 137.8 535.33 137.88 535.09 137.96 534.68 138 533.95 138 533.71 138 533.18 138 532.85 137.84 532.49 137.6 532.2 137.35 531.96 137.03 531.88 136.86 531.8 136.7 531.76 136.54 531.76 136.38 531.8 136.21 531.88 136.01 532.04 135.85 532.2 135.69 532.77 135.73 533.3 135.73 534.4 135.65 534.93 135.69 535.17 135.73 535.45 135.81 535.7 135.89 535.94 136.05 536.19 136.21 536.43 136.46 536.31 136.78 536.19 137.07"></polygon>
    <polygon class="cls-1" points="537.93 141.13 537.61 141.09 537.28 141.01 536.96 140.84 536.63 140.68 536.35 140.48 536.43 140.15 536.51 139.91 536.63 139.71 536.8 139.5 536.96 139.38 537.16 139.3 537.36 139.22 537.57 139.18 538.01 139.18 538.46 139.22 538.91 139.3 539.35 139.34 539.44 139.55 539.48 139.79 539.48 139.95 539.44 140.15 539.23 140.56 539.11 140.72 538.99 140.89 538.62 141.01 538.26 141.09"></polygon>
    <polygon class="cls-1" points="604.85 158.15 604.61 158.31 604.36 158.39 604.2 158.39 604.08 158.39 603.92 158.35 603.75 158.31 603.59 158.23 603.39 158.07 603.23 157.91 603.1 157.75 602.98 157.54 602.86 157.3 602.78 157.1 602.74 156.85 602.7 156.65 602.74 156.45 602.78 156.24 602.86 156.08 603.02 155.96 603.23 155.84 603.47 155.8 603.75 155.8 604.12 155.76 604.53 155.8 604.89 155.88 605.26 156 605.42 156.08 605.58 156.2 605.7 156.32 605.79 156.49 605.87 156.65 605.87 156.85 605.83 157.1 605.79 157.3 605.34 157.75 605.1 157.95"></polygon>
    <polygon class="cls-1" points="605.3 166.07 605.26 165.83 605.14 165.62 605.01 165.46 604.61 165.14 604.4 165.02 604.24 164.81 604.04 165.02 603.8 165.18 603.59 165.3 603.39 165.42 603.19 165.46 602.94 165.5 602.54 165.46 602.13 165.38 601.72 165.22 601.24 165.02 600.75 164.81 600.83 164.41 600.91 164.04 601.03 163.72 601.16 163.47 601.32 163.27 601.48 163.07 601.64 162.94 601.85 162.86 602.05 162.82 602.25 162.82 602.46 162.82 602.7 162.86 602.94 162.94 603.19 163.07 603.63 163.31 604.12 163.63 604.57 164.04 605.01 164.45 605.38 164.89 605.7 165.3 605.99 165.71 606.11 165.87 606.15 166.03 606.23 166.19 606.27 166.31 605.26 166.31 605.3 166.19"></polygon>
    <polygon class="cls-1" points="601.89 169.56 601.85 169.77 601.81 170.01 601.72 170.17 601.6 170.38 601.48 170.54 601.32 170.66 601.11 170.78 600.95 170.86 600.71 170.9 600.51 170.94 600.26 170.94 600.02 170.9 599.77 170.82 599.49 170.86 599.25 170.9 599.08 170.9 598.88 170.86 598.72 170.86 598.6 170.78 598.47 170.7 598.39 170.58 598.23 170.34 598.07 170.01 597.95 169.69 597.86 169.52 597.74 169.32 598.15 169 598.64 168.71 599.16 168.51 599.69 168.35 599.98 168.3 600.26 168.3 600.55 168.3 600.79 168.35 601.07 168.43 601.32 168.51 601.56 168.63 601.76 168.83 601.85 169.08 601.85 169.32"></polygon>
    <polygon class="cls-6" points="636.54 100.52 637.19 101.86 637.8 103.24 638.33 104.7 638.81 106.12 639.18 107.59 639.5 109.05 639.75 110.55 639.95 112.01 640.03 113.48 640.07 114.94 639.99 116.4 639.87 117.82 639.75 118.55 639.63 119.24 639.02 120.05 638.41 120.87 637.84 121.76 637.31 122.65 636.78 123.59 636.29 124.52 635.81 125.5 635.36 126.47 634.87 127.49 634.47 128.5 633.65 130.61 632.88 132.77 632.15 134.96 631.46 137.19 630.81 139.47 629.47 143.98 628.82 146.25 628.13 148.49 627.4 150.68 626.67 152.83 625.85 154.98 624.96 157.01 624.51 158.03 624.07 159 623.58 159.94 623.05 160.87 622.52 161.81 621.95 162.7 621.39 163.55 620.78 164.37 620.13 165.18 619.48 165.95 618.79 166.68 618.05 167.37 617.32 168.06 616.51 168.71 615.7 169.28 614.85 169.85 613.95 170.38 613.02 170.82 612.04 171.27 611.03 171.68 609.97 172 608.87 172.33 607.74 172.53 606.56 172.77 605.34 172.89 604.04 173.02 602.74 173.06 601.36 173.02 600.91 172.85 600.51 172.65 600.1 172.41 599.73 172.16 599.04 171.51 598.39 170.86 597.74 170.25 597.42 169.97 597.09 169.77 596.73 169.56 596.4 169.4 596.04 169.32 595.63 169.32 594.98 168.26 594.37 167.21 593.88 166.11 593.44 165.06 593.07 164 592.79 162.9 592.54 161.85 592.34 160.75 592.22 159.65 592.18 158.6 592.22 157.5 592.26 156.45 592.38 155.35 592.54 154.29 592.75 153.2 592.99 152.14 593.27 151.08 593.6 149.99 593.96 148.93 594.37 147.88 594.82 146.82 595.26 145.76 595.75 144.75 596.28 143.69 597.34 141.66 598.51 139.63 599.69 137.64 600.95 135.69 601.36 134.76 601.72 133.82 602.01 132.89 602.29 131.95 602.5 131.02 602.7 130.09 602.82 129.11 602.94 128.18 603.02 127.24 603.1 126.31 603.15 124.4 603.15 122.49 603.1 120.62 603.02 118.71 602.98 116.81 602.98 114.9 603.02 112.99 603.1 112.05 603.19 111.12 603.27 110.14 603.39 109.21 603.59 108.28 603.8 107.34 604.04 106.41 604.32 105.47 604.36 104.95 604.4 104.46 604.49 103.93 604.61 103.4 604.73 102.92 604.89 102.39 605.1 101.9 605.3 101.37 605.5 100.88 605.79 100.4 606.07 99.91 606.35 99.46 606.68 98.98 607.05 98.53 607.41 98.12 607.78 97.68 608.67 97.47 609.56 97.23 610.42 96.95 611.31 96.62 613.1 95.93 614.89 95.16 616.63 94.39 618.42 93.61 620.17 92.92 621.02 92.64 621.91 92.4 622.77 92.15 623.62 91.95 624.43 91.83 625.29 91.71 626.1 91.71 626.91 91.71 627.72 91.83 628.49 91.99 629.27 92.23 630.04 92.6 630.4 92.8 630.77 93.01 631.14 93.29 631.5 93.53 631.83 93.86 632.19 94.14 632.56 94.51 632.88 94.91 633.21 95.32 633.57 95.73 633.9 96.17 634.18 96.7 635.04 97.92 635.81 99.18"></polygon>
    <polygon class="cls-1" points="625.2 98.49 625.2 98.61 625.08 98.89 625.04 99.02 624.96 99.14 624.96 99.14 624.03 99.5 623.86 99.38 623.78 99.22 623.7 99.02 623.66 98.85 623.66 98.65 623.7 98.49 623.78 98.33 623.86 98.16 623.94 98 624.11 97.88 624.23 97.8 624.39 97.76 624.55 97.76 624.72 97.8 624.88 97.88 625.08 98.04 625.16 98.2 625.2 98.37"></polygon>
    <polygon class="cls-1" points="630.16 99.91 630.16 100.19 630.12 100.48 629.88 101.05 629.67 101.62 628.13 99.02 628.25 98.94 628.33 98.89 628.58 98.85 628.78 98.85 629.02 98.98 629.23 99.1 629.43 99.22 629.67 99.3 629.88 99.38 630 99.54 630.08 99.67"></polygon>
    <polygon class="cls-1" points="624.43 104.7 624.39 104.91 624.27 105.15 624.19 105.35 624.03 105.56 623.94 105.8 623.82 106 622.56 105.43 622.6 105.31 622.65 105.15 622.81 104.86 622.97 104.54 623.13 104.3 623.21 104.17 623.34 104.09 623.46 104.01 623.58 104.01 623.74 104.01 623.86 104.05 624.07 104.13 624.23 104.26 624.31 104.38 624.35 104.46"></polygon>
    <polygon class="cls-1" points="629.92 105.39 630.04 105.56 630.12 105.72 630.12 105.92 630.16 106.16 630.12 106.37 630.04 106.81 629.88 107.26 629.67 107.71 629.47 108.11 632.19 108.15 631.83 111.53 632.07 111.61 632.31 111.65 632.8 111.69 633.33 111.69 633.82 111.73 634.06 111.77 634.26 111.81 634.51 111.93 634.67 112.01 634.83 112.18 634.95 112.38 635.04 112.62 635.08 112.95 634.83 113.48 634.55 114.08 634.26 114.65 634.1 114.94 633.94 115.18 633.78 115.42 633.57 115.63 633.33 115.79 633.13 115.91 632.84 115.95 632.56 115.95 632.23 115.91 631.87 115.79 632.52 111.81 632.35 111.69 632.23 111.61 631.99 111.53 631.79 111.53 631.58 111.57 631.42 111.65 631.26 111.77 631.01 112.09 630.73 112.42 630.57 112.54 630.4 112.62 630.2 112.7 630 112.66 629.79 112.58 629.67 112.5 629.51 112.42 629.84 109.05 629.63 108.97 629.43 108.89 629.23 108.89 629.02 108.89 628.58 109.01 628.37 109.05 628.13 109.09 627.72 109.21 627.48 109.21 627.28 109.21 627.07 109.17 626.87 109.09 626.67 108.93 626.5 108.72 626.5 108.4 626.54 108.07 626.63 107.79 626.71 107.46 626.79 107.18 626.95 106.9 627.11 106.61 627.28 106.37 627.48 106.08 627.68 105.88 627.93 105.68 628.17 105.47 628.41 105.31 629.02 105.07 629.35 104.99 629.59 105.07 629.75 105.23"></polygon>
    <polygon class="cls-1" points="622.48 115.1 622.85 116.03 621.91 116.4 621.59 115.47"></polygon>
    <polygon class="cls-1" points="627.93 113.72 627.93 113.96 627.93 114.17 627.89 114.37 627.72 114.82 627.52 115.22 627.24 115.63 626.95 115.91 626.67 116.16 626.42 116.24 626.18 116.36 625.94 116.48 625.65 116.6 625.41 116.68 625.12 116.68 625 116.64 624.88 116.6 624.76 116.52 624.64 116.4 624.51 116.07 624.43 115.75 624.43 115.42 624.51 115.14 624.64 114.9 624.8 114.65 624.96 114.41 625.2 114.21 625.49 114.04 625.77 113.84 626.38 113.56 627.03 113.31 627.64 113.11 627.76 113.31 627.89 113.52"></polygon>
    <polygon class="cls-1" points="620.49 119.69 620.41 119.97 620.25 120.22 620.05 120.5 619.8 120.79 619.64 120.91 619.44 121.07 618.05 121.6 617.89 121.44 617.77 121.23 617.65 121.07 617.57 120.91 617.53 120.75 617.49 120.62 617.49 120.34 617.57 120.1 617.73 119.89 617.89 119.69 618.18 119.53 618.46 119.36 618.75 119.2 619.4 118.96 620.05 118.71 620.33 118.63 620.61 118.51 620.57 118.96 620.57 119.36"></polygon>
    <polygon class="cls-1" points="629.92 117.58 629.88 117.82 629.79 118.02 629.67 118.23 629.55 118.47 629.43 118.67 629.35 118.92 628.9 119.04 628.49 119.24 627.64 119.61 627.19 119.73 626.75 119.81 626.5 119.85 626.3 119.81 626.1 119.77 625.89 119.69 625.81 119.49 625.77 119.28 625.77 119.08 625.77 118.92 625.81 118.55 625.98 118.31 626.14 118.02 626.42 117.82 626.71 117.66 627.03 117.54 627.36 117.37 627.72 117.29 628.45 117.21 628.82 117.17 629.14 117.13 629.71 117.13 629.79 117.25 629.88 117.37"></polygon>
    <polygon class="cls-1" points="624.19 122.25 624.19 122.49 624.15 122.69 624.07 122.94 623.94 123.14 623.82 123.34 623.5 123.71 623.13 124.08 622.81 124.44 622.48 124.77 622.24 124.81 621.95 124.93 621.71 125.05 621.47 125.17 621.18 125.25 620.94 125.25 620.82 125.25 620.65 125.17 620.53 125.09 620.41 125.01 620.41 124.64 620.49 124.32 620.57 123.95 620.7 123.63 620.86 123.3 621.06 123.02 621.26 122.74 621.51 122.45 621.75 122.21 622.04 122 622.32 121.84 622.65 121.68 622.93 121.56 623.25 121.52 623.58 121.48 623.9 121.52 624.03 121.76 624.15 122"></polygon>
    <polygon class="cls-1" points="631.58 123.47 631.3 123.79 631.05 124.08 630.73 124.32 630.53 124.4 630.36 124.48 630.12 124.52 629.88 124.56 629.67 124.52 629.51 124.44 629.35 124.32 629.27 124.2 629.14 124.04 629.1 123.87 629.02 123.71 629.02 123.55 629.02 123.14 629.1 122.78 629.27 122.37 629.47 122.09 629.88 121.84 630.32 121.68 630.77 121.6 631.01 121.6 631.22 121.6 631.42 121.6 631.66 121.68 631.83 121.76 631.99 121.84 632.11 122 632.23 122.17 632.31 122.33 632.35 122.57 632.07 122.86 631.83 123.14"></polygon>
    <polygon class="cls-1" points="620 127.69 619.88 127.97 619.72 128.3 619.6 128.58 619.44 128.87 619.35 129.15 617.49 129.88 617.32 129.68 617.24 129.48 617.16 129.27 617.08 129.07 617.04 128.67 617.12 128.3 617.24 127.89 617.4 127.57 617.69 127.24 617.97 127 618.22 126.96 618.46 126.84 618.99 126.59 619.27 126.51 619.52 126.47 619.64 126.51 619.76 126.55 619.88 126.63 620.05 126.76 620.09 127.08 620.09 127.37"></polygon>
    <polygon class="cls-1" points="626.26 125.74 626.38 126.15 626.54 126.63 626.95 127.53 627.15 128.02 627.32 128.46 627.48 128.87 627.52 129.31 627.52 129.48 627.48 129.68 627.44 129.88 627.4 130.05 627.28 130.21 627.11 130.37 626.95 130.53 626.75 130.66 626.5 130.78 626.18 130.94 625.85 131.02 625.45 131.1 625.24 130.94 625.08 130.74 624.88 130.49 624.72 130.17 624.55 129.84 624.39 129.48 624.27 129.11 624.19 128.71 624.11 128.3 624.07 127.85 624.07 127.45 624.11 127 624.19 126.59 624.35 126.19 624.55 125.78 624.88 125.46 626.26 124.89 626.22 125.09 626.22 125.29"></polygon>
    <polygon class="cls-1" points="616.55 137.88 616.51 138.09 616.43 138.25 616.35 138.41 616.1 138.74 615.78 139.06 615.45 139.35 615.17 139.63 614.93 139.96 614.76 139.96 614.6 139.92 614.36 139.75 614.2 139.55 614.07 139.31 613.99 139.06 613.91 138.78 613.83 138.49 613.71 138.29 613.95 137.97 614.24 137.68 614.56 137.44 614.93 137.23 615.33 137.07 615.7 137.03 615.94 137.03 616.15 137.07 616.35 137.11 616.51 137.19 616.55 137.44 616.59 137.68"></polygon>
    <polygon class="cls-1" points="621.67 136.26 621.71 136.54 621.71 136.83 621.63 137.15 621.59 137.4 621.43 137.68 621.14 138.25 620.78 138.74 620.41 139.18 620.25 139.39 620.13 139.59 619.19 139.92 619.03 139.63 618.91 139.31 618.83 138.94 618.79 138.58 618.83 138.25 618.87 137.88 618.95 137.52 619.11 137.19 619.27 136.87 619.48 136.54 619.68 136.3 619.96 136.02 620.25 135.81 620.53 135.65 620.86 135.49 621.18 135.41 621.43 135.69 621.59 135.98"></polygon>
    <polygon class="cls-1" points="626.02 135.53 626.02 135.77 625.98 136.02 625.85 136.22 625.65 136.38 625.37 136.5 623.94 137.03 623.25 135.16 623.58 135.08 624.19 134.76 624.51 134.64 624.84 134.55 625.16 134.51 625.33 134.51 625.45 134.55 625.61 134.64 625.77 134.72 625.89 135 625.98 135.24"></polygon>
    <polygon class="cls-1" points="623.94 140.77 623.99 141.05 623.94 141.34 623.9 141.62 623.82 141.91 623.7 142.19 623.42 142.72 623.05 143.25 622.85 143.45 622.69 143.69 622.52 143.85 622.36 144.06 621.91 144.22 621.71 144.02 621.55 143.77 621.43 143.45 621.39 143.16 621.35 142.84 621.39 142.51 621.47 142.19 621.55 141.86 621.67 141.54 621.87 141.21 622.08 140.93 622.28 140.65 622.56 140.4 622.85 140.2 623.13 140.04 623.46 139.92 623.7 140.16 623.82 140.48"></polygon>
    <polygon class="cls-1" points="617.93 143.33 617.97 143.53 618.01 143.73 617.97 143.94 617.93 144.38 617.77 144.79 617.61 145.24 617.24 146.05 617.12 146.17 617 146.25 616.71 146.29 616.43 146.33 616.15 146.25 615.86 146.17 615.58 146.05 615.01 145.8 615.01 145.56 615.01 145.28 615.05 145.03 615.13 144.79 615.21 144.5 615.33 144.26 615.45 144.02 615.62 143.81 615.78 143.61 615.98 143.41 616.23 143.25 616.47 143.08 616.71 142.96 616.96 142.84 617.24 142.76 617.57 142.68 617.73 142.92 617.85 143.12"></polygon>
    <polygon class="cls-1" points="609 149.38 608.91 149.58 608.79 149.78 608.67 149.91 608.55 150.07 608.35 150.19 608.18 150.27 607.98 150.35 607.78 150.39 607.53 150.39 607.29 150.39 607 150.31 606.76 150.27 606.48 150.15 606.44 149.91 606.4 149.66 606.44 149.42 606.52 149.18 606.64 148.93 606.8 148.69 606.96 148.53 607.17 148.32 607.37 148.2 607.61 148.08 607.86 148.04 608.1 148.04 608.39 148.08 608.63 148.2 608.87 148.36 609.12 148.61 609.08 148.89 609.08 149.13"></polygon>
    <polygon class="cls-1" points="613.1 148.28 613.02 148.44 612.94 148.65 612.85 148.81 612.61 149.13 612.33 149.38 611.96 149.62 611.6 149.78 611.27 149.95 611.11 149.91 610.95 149.87 610.7 149.74 610.54 149.54 610.42 149.3 610.34 149.01 610.25 148.73 610.17 148.49 610.05 148.24 610.3 148.12 610.5 148 610.86 147.79 611.19 147.67 611.51 147.55 611.8 147.55 612.16 147.55 612.57 147.55 612.77 147.59 613.02 147.63 613.1 147.88 613.1 148.08"></polygon>
    <polygon class="cls-1" points="620.09 147.84 620.45 147.39 620.82 146.98 621.02 146.82 621.22 146.66 621.47 146.54 621.67 146.45 621.91 146.41 622.2 146.41 622.48 146.45 622.81 146.58 622.93 146.78 623.05 146.98 623.09 147.19 623.09 147.43 623.09 147.63 623.05 147.84 622.89 148.28 622.69 148.69 622.4 149.09 622.12 149.38 621.83 149.62 621.63 149.74 621.43 149.83 621.02 149.91 620.61 149.99 620.25 149.95 619.88 149.91 619.56 149.83 618.87 149.62 618.58 149.54 618.26 149.5 617.93 149.5 617.65 149.54 617.32 149.7 617.16 149.78 617 149.91 616.84 150.07 616.67 150.23 616.51 150.43 616.35 150.68 616.06 150.48 615.86 150.31 615.7 150.15 615.62 149.95 615.58 149.78 615.62 149.58 615.66 149.38 615.74 149.18 615.94 148.77 616.23 148.32 616.47 147.84 616.59 147.59 616.67 147.31 616.92 147.14 617.16 147.02 617.32 146.94 617.53 146.94 617.69 146.98 617.81 147.06 617.97 147.23 618.1 147.35 618.34 147.67 618.62 148 618.75 148.16 618.91 148.32 619.07 148.4 619.27 148.49 619.48 148.36 619.68 148.2"></polygon>
    <polygon class="cls-1" points="609.16 155.51 609.24 155.71 609.32 155.92 609.36 156.32 609.32 156.73 609.16 157.1 609 157.42 608.71 157.75 608.43 157.99 608.26 158.19 608.06 158.35 607.9 158.48 607.7 158.56 607.57 158.64 607.41 158.68 607.09 158.68 606.84 158.64 606.56 158.52 606.07 158.19 605.54 157.87 605.3 157.7 605.01 157.62 604.69 157.62 604.57 157.66 604.24 157.79 604.08 157.91 603.88 158.03 603.71 158.19 603.47 158.11 603.27 157.99 603.1 157.87 602.98 157.66 602.9 157.5 602.86 157.3 602.82 157.1 602.82 156.89 602.86 156.69 602.9 156.49 602.98 156.28 603.1 156.08 603.23 155.92 603.39 155.76 603.55 155.63 603.71 155.51 603.92 155.55 604.16 155.67 604.69 155.92 605.3 156.16 605.91 156.4 606.23 156.45 606.52 156.49 606.8 156.45 607.09 156.4 607.33 156.28 607.61 156.08 607.82 155.84 607.9 155.67 608.02 155.47 608.95 155.11 609.08 155.31"></polygon>
    <polygon class="cls-1" points="614.76 155.06 614.68 155.31 614.6 155.84 614.6 156.4 614.64 157.54 614.68 158.11 614.72 158.64 614.68 159.17 614.64 159.61 614.56 159.86 614.48 160.06 614.4 160.22 614.28 160.39 614.11 160.55 613.95 160.63 613.75 160.75 613.5 160.83 613.26 160.87 612.94 160.87 612.57 160.87 612.2 160.83 612.29 160.47 612.33 160.02 612.33 159.53 612.33 159.04 612.33 158.56 612.33 157.54 612.37 157.01 612.45 156.53 612.57 156.08 612.77 155.67 612.9 155.47 613.02 155.27 613.18 155.11 613.38 154.94 613.59 154.82 613.83 154.7 614.11 154.58 614.4 154.5 614.72 154.41 615.09 154.37 614.97 154.58 614.85 154.82"></polygon>
    <polygon class="cls-1" points="621.1 155.47 620.82 156.32 620.65 156.69 620.49 157.05 620.25 157.42 620.05 157.75 619.8 158.03 619.52 158.31 619.23 158.56 618.91 158.8 618.91 158.76 618.26 158.48 618.46 158.35 618.62 158.19 618.75 157.99 618.87 157.79 618.95 157.58 618.99 157.34 619.03 156.85 619.03 156.32 618.95 155.8 618.91 155.27 618.87 154.74 618.83 154.25 618.87 153.76 618.91 153.6 618.99 153.4 619.07 153.24 619.19 153.12 619.35 152.99 619.56 152.87 619.76 152.83 620.05 152.79 620.33 152.79 620.65 152.83 621.06 152.87 621.51 152.99 621.43 153.81 621.3 154.66"></polygon>
    <polygon class="cls-1" points="606.48 163.59 606.31 163.8 605.95 164.16 605.58 164.41 605.22 164.57 604.85 164.69 604.49 164.73 604.12 164.73 603.75 164.69 603.35 164.61 602.94 164.45 602.5 164.32 602.01 164.16 601.52 164 600.99 163.88 600.46 163.72 600.26 163.47 600.14 163.23 600.1 163.03 600.1 162.82 600.14 162.62 600.26 162.46 600.38 162.29 600.55 162.17 600.95 161.93 601.4 161.73 601.64 161.64 601.85 161.56 602.25 161.44 602.37 161.68 602.5 161.93 602.62 162.09 602.78 162.21 602.9 162.33 603.06 162.42 603.23 162.46 603.39 162.46 603.75 162.46 604.08 162.33 604.85 162.05 605.18 161.89 605.54 161.77 605.87 161.68 606.19 161.64 606.31 161.68 606.48 161.73 606.6 161.81 606.72 161.93 606.8 162.09 606.92 162.29 607 162.54 607.09 162.78 606.88 163.07 606.68 163.35"></polygon>
    <polygon class="cls-1" points="610.95 162.86 611.03 163.11 611.03 163.35 611.03 163.55 610.99 163.76 610.9 163.96 610.7 164.37 610.42 164.73 610.05 165.14 609.73 165.54 609.4 165.71 609.04 165.79 608.63 165.87 608.26 165.91 608.06 165.87 607.9 165.83 607.74 165.75 607.61 165.62 607.49 165.46 607.41 165.3 607.33 165.1 607.33 164.85 607.7 164.45 608.02 164 608.35 163.55 608.63 163.15 609 162.74 609.2 162.54 609.4 162.38 609.65 162.25 609.89 162.13 610.17 162.05 610.5 162.01 610.7 162.29 610.86 162.62"></polygon>
    <polygon class="cls-1" points="615.13 163.72 614.89 163.96 614.64 164.16 614.32 164.32 613.99 164.45 613.63 164.57 613.46 164.32 613.3 164.08 613.22 163.84 613.18 163.59 613.18 163.39 613.22 163.19 613.3 162.98 613.38 162.82 613.63 162.46 613.95 162.13 614.32 161.81 614.6 161.52 614.85 161.52 615.01 161.64 615.17 161.77 615.29 161.97 615.5 162.33 615.62 162.74 615.5 163.11 615.33 163.43"></polygon>
    <path class="cls-4" d="m437.75 253.6c4.79-3.18 9.3-9.33 13.39-11.25 16.34-7.68 22.54 2.67 26.15 8.5s-0.8 10.57 0.44 17.31c1.23 6.74 0.94 13.93-10.11 14.44s-14 1.81-23.27-6.76c-9.27-8.58-4.57-8.03-7.28-11.79s-9.62-5.15-5.98-7.6l6.66-2.83z"></path>
    <path class="cls-24" d="m461.73 266.56c-4.25 0.61-7.55-1.06-10.25-4.2-0.78-0.91-1.88-1.36-2.93-1.89-0.34-0.17-0.86-0.25-0.84-0.76s0.51-0.57 0.89-0.68c2.37-0.7 4.58-1.92 7.18-1.83 2.29 0.08 4.3 0.81 5.99 2.29 1.87 1.63 3.57 3.45 5.04 5.48 0.67 0.93 0.4 1.12-0.55 1.36-1.51 0.37-3.03 0.2-4.53 0.23z"></path>
    <path class="cls-4" d="m521.94 248.79c1.48 5.55 5.86 11.79 6.37 16.29 2.05 17.94-9.74 20.5-16.42 22.06s-9.76-4.14-16.54-5.12c-6.78-0.99-13.49-3.57-10.44-14.2s2.76-13.84 13.85-19.88 9.07-1.76 13.5-3.13 7.96-7.47 9.12-3.23l0.55 7.22z"></path>
    <path class="cls-24" d="m501.99 267.37c0.78-4.23 3.42-6.81 7.26-8.37 1.11-0.45 1.89-1.35 2.72-2.17 0.27-0.27 0.51-0.73 0.99-0.56 0.48 0.18 0.37 0.66 0.36 1.06-0.09 2.47 0.35 4.96-0.57 7.39-0.81 2.15-2.15 3.82-4.08 4.95-2.15 1.25-4.41 2.28-6.81 3.02-1.09 0.34-1.19 0.02-1.11-0.96 0.14-1.55 0.79-2.94 1.23-4.36z"></path>
    <path class="cls-13" d="m511.46 310.06c-0.43 1.73-1.19 3.22-2.07 4.55-1.87 2.84-4.42 5.13-7.3 6.44-4.2 1.92-9.11 1.76-13.67-1.8-2.05-1.6-4.33-2.01-6.5-3.09-3.01-1.5-5.74-4.43-7.71-7.99-1.71-3.08-2.84-6.63-3.08-10.13-0.38-5.43 1.23-10.38 3.87-13.78 2.64-3.41 6.24-5.37 10.05-6.38 2.76-0.73 5.81-1.07 7.75-3.5 0.81-1.02 1.8-2.45 2.98-1.61 0.3 0.21 0.55 0.55 0.77 0.9 1.27 2.02 1.77 4.71 3.23 6.5 0.77 0.96 1.74 1.55 2.58 2.4 1.04 1.06 1.85 2.48 2.63 3.87 2.05 3.65 4.08 7.37 5.42 11.42s1.95 8.51 1.04 12.18"></path>
    <path class="cls-20" d="m502.08 320.62c0.01 0.15 0.02 0.29 0.01 0.43-4.2 1.92-9.11 1.76-13.66-1.8-2.05-1.6-4.33-2.01-6.5-3.09-3.01-1.5-5.74-4.43-7.71-7.99 2.77 2.59 6.13 3.98 9.3 4.62 4.3 0.88 8.54 0.68 12.84 1.88 1.22 0.35 2.47 0.82 3.57 1.79 1.1 0.98 2.03 2.54 2.16 4.15"></path>
    <path class="cls-26" d="m619.65 208.71c1.96 0.61 4 1.12 6.09 1.14 3.64 0.03 7.11-1.44 10.04-3.35s6.9-3.87 8.23-6.31c0.8-2.94-9.41-11.96-17-14.47s-16.53-1.92-23.36 1.92c-3.06 1.72-7.53 5.95-4.48 9.2 3.1 3.3 7.6 6.11 11.76 8.27 2.77 1.44 5.69 2.64 8.72 3.59z"></path>
    <ellipse class="cls-29" transform="rotate(-84.51 633.37 198.01)" cx="633.39" cy="198" rx="6.55" ry="11.67"></ellipse>
    <path class="cls-9" d="m633.25 213.9c-5.38 2.16-11.65 1.24-17.41 0.07-1.46-0.3-2.93-0.61-4.33-1.07-2.8-0.93-5.29-2.44-7.72-3.97-2.12-1.34-7.22-4.81-7.55-9.76-0.15-2.28-0.46-4.64 0.51-6.76 0.71-1.56 1.93-2.89 3.19-4.15 1.29-1.3 2.64-2.57 4.13-3.7 7.29-5.53 18.03-7.4 27.11-4.56 2.42 0.76 4.71 1.82 6.88 3.01 2.69 1.48 5.26 3.21 7.11 5.47 1.45 1.78 2.4 3.82 3.35 5.84-7.72-1.19-15.44-2.37-23.2-3.28-7.43-0.87-15.15-1.47-22.31 0.51 4.56 2.32 21.48 7.33 22.92 7.76 2.83 0.84 5.65 1.67 8.48 2.51 1.44 0.43 2.88 0.85 4.31 1.28 1.07 0.32 2.93 0.53 3.76 1.25 1.61 1.4-1.27 3.59-2.29 4.64-1.95 1.99-4.19 3.82-6.94 4.93z"></path>
  </g>
  <metadata></metadata>
</svg>
