<?xml version="1.0" encoding="UTF-8"?>
<svg xmlns="http://www.w3.org/2000/svg" xmlns:cc="http://creativecommons.org/ns#" xmlns:dc="http://purl.org/dc/elements/1.1/" xmlns:rdf="http://www.w3.org/1999/02/22-rdf-syntax-ns#" version="1.1" viewBox="0 0 745.51 419.53">
  <title>Ölflaschen unterschiedlicher Größen beschriftet mit Olivenöl, Rapsöl, Leinöl, Sojaöl und Walnussöl, daneben eine Pakung Margarine</title>
  <defs>
    <style>.cls-1{clip-path:url(#a);}.cls-2{fill:none;}.cls-2,.cls-3,.cls-4,.cls-5,.cls-6,.cls-7,.cls-8,.cls-9,.cls-10,.cls-11,.cls-12,.cls-13,.cls-14,.cls-15,.cls-16,.cls-17,.cls-18,.cls-19,.cls-20,.cls-21,.cls-22,.cls-23,.cls-24,.cls-25,.cls-26{stroke-width:0px;}.cls-3{fill:#f7eb56;}.cls-4{fill:#f9eb37;}.cls-5{fill:#7977ae;}.cls-6{fill:#4e8a3f;}.cls-7{fill:#72724f;}.cls-8{fill:#7b441e;}.cls-9{fill:#498049;}.cls-10{fill:#544934;}.cls-11{fill:#3a6639;}.cls-12{fill:#3f3f3e;}.cls-13{fill:#434737;}.cls-14{fill:#dbd7f3;}.cls-15{fill:#dccdb1;}.cls-16{fill:#b09362;}.cls-17{fill:#86613d;}.cls-18{fill:#8b8d6b;}.cls-19{fill:#a0c038;}.cls-20{fill:#826d31;}.cls-21{fill:#fff;}.cls-22{fill:#e7af41;}.cls-23{fill:#ebe6b0;}.cls-24{fill:#f5dc34;}.cls-25{fill:#e7d4af;}.cls-26{fill:#f5d410;}</style>
    <clipPath id="a">
      <path class="cls-2" d="M597.77,317.86l11.36,52.73c.76,3.52,3.84,6,7.41,6h60.78c3.57,0,6.65-2.49,7.41-6l11.3-52.73h-98.26Z"></path>
    </clipPath>
  </defs>
  <rect class="cls-26" width="745.51" height="419.53"></rect>
  <path class="cls-23" d="m375.8 388.41c173.83 0 314.75-3.95 314.75-8.82s-140.92-8.82-314.75-8.82-314.75 3.95-314.75 8.82 140.92 8.82 314.75 8.82"></path>
  <path class="cls-11" d="m353.44 103.14v-49.16h-53.2v49.16c0 7.66-4.14 14.8-10.76 18.63-9 5.18-14.49 14.7-14.49 25.05v229.77h103.71v-229.77c0-10.35-5.48-19.87-14.49-25.05-6.62-3.83-10.76-10.97-10.76-18.63"></path>
  <path class="cls-3" d="m360.06 33.28c0-1.55-1.24-2.79-2.8-2.79h-60.86c-1.55 0-2.79 1.24-2.79 2.79v8.69c0 1.55 1.24 2.79 2.79 2.79v21.22h60.86v-21.22c1.55 0 2.8-1.24 2.8-2.79v-8.69z"></path>
  <path class="cls-6" d="m280.99 158.2h91.7v185.99c0 12.73-10.25 22.98-22.98 22.98h-45.75c-12.73 0-22.98-10.25-22.98-22.98v-185.99z"></path>
  <path class="cls-24" d="m360.79 238.41c0 18.11-14.7 32.81-32.81 32.81s-32.81-14.7-32.81-32.81 32.81-58.06 32.81-58.06 32.81 39.95 32.81 58.06"></path>
  <path class="cls-24" d="M320.21,290.37c-1.55,0-3.11-.21-4.55-.73-2.48-.83-4.76-2.38-6.42-4.45-1.55,1.24-3.21,2.17-5.07,2.79-1.76.62-3.62.83-5.49.83-5.28,0-9.73-2.17-12.21-6.11-3.31-5.28-2.07-11.9.83-16.04-.31-.41-.73-.93-1.04-1.45-3.21-5.38-3.83-13.35,1.24-18.42,2.59-2.59,6.21-3.93,9.83-3.93,2.48,0,4.97.62,7.14,1.76,1.24.72,2.38,1.55,3.31,2.59.73-.83,1.45-1.66,2.38-2.38,3-2.38,6.83-3.83,10.66-3.83,2.79,0,5.48.83,7.76,2.48,5.38,4.04,6.31,11.49,4.45,16.56-.83,2.07-2.07,4.04-3.73,5.49.21.21.41.41.62.62,4.14,4.66,6.11,12.52,2.07,18.32-2.79,3.83-7.14,6-11.8,5.9"></path>
  <path class="cls-6" d="M321.04,238.93c-4.35.1-8.59,1.55-12.01,4.35-.41.31-.83.73-1.24,1.03-.72-.52-1.45-1.03-2.28-1.45-2.48-1.34-5.28-1.97-8.18-1.97-4.24-.1-8.28,1.55-11.38,4.55-5.8,5.8-5.18,14.9-1.55,21.01.1.1.21.31.31.41-2.79,4.76-3.73,11.59-.1,17.18,2.9,4.45,7.97,7.04,13.97,7.04,2.07,0,4.24-.31,6.21-.93,1.45-.52,2.9-1.14,4.14-1.97,1.76,1.66,3.73,2.9,6,3.62,1.66.52,3.41.83,5.17.83,5.28.1,10.35-2.38,13.46-6.73,4.45-6.42,2.59-14.8-1.55-20.08,1.24-1.45,2.28-3.1,2.9-4.86,2.17-5.8,1.04-14.18-5.17-18.94-2.59-1.97-5.69-2.9-9-2.9h.31v-.21ZM320.94,243.07c2.38,0,4.66.73,6.52,2.07,4.55,3.41,5.38,9.73,3.83,14.18-1.03,2.48-2.8,4.66-5.07,6.11.83.62,1.55,1.35,2.28,2.07,3.31,3.73,5.49,10.66,1.97,15.84-2.38,3.21-6.11,5.07-10.14,4.86-1.34,0-2.69-.21-3.93-.62-2.79-1.04-5.17-3-6.83-5.48-1.66,1.76-3.73,3.1-6,3.83-1.55.52-3.21.72-4.86.72-3.93,0-8.18-1.45-10.45-5.07-3-4.76-1.66-11.07,1.45-14.59.1-.1.21-.31.41-.41-.73-.73-1.35-1.55-1.86-2.48-2.59-4.24-3.52-11.49.93-15.94,2.28-2.17,5.28-3.31,8.38-3.31,2.17,0,4.24.52,6.21,1.45,1.86,1.03,3.31,2.48,4.45,4.24.93-1.66,2.07-3.11,3.52-4.24,2.59-1.97,5.9-3.11,9.21-3.21"></path>
  <path class="cls-6" d="m310.49 257.04c3.66 0 6.62 2.97 6.62 6.62s-2.97 6.62-6.62 6.62-6.62-2.97-6.62-6.62 2.97-6.62 6.62-6.62"></path>
  <path class="cls-21" d="m338.02 258.18c1.55 2.28 6.62 1.86 10.04 0.31 6.11-2.79 7.76-9.94 8.69-13.56s1.86-7.76-0.62-11.8c-1.24-2.17-4.24-5.59-6.93-4.97-3.21 0.73-2.38 6.62-6.73 17.39-3.11 7.76-5.9 10.45-4.45 12.63"></path>
  <path class="cls-8" d="m235.94 180.77v-35.22h-38.03v35.22c0 5.49-2.97 10.6-7.71 13.27-6.45 3.71-10.38 10.53-10.38 17.94v164.6h74.29v-164.52c0-7.41-3.93-14.24-10.38-17.94-4.82-2.74-7.78-7.78-7.78-13.35"></path>
  <path class="cls-14" d="M240.76,130.72c0-1.11-.89-2-2-2h-43.67c-1.11,0-2,.89-2,2v6.23c0,1.11.89,2,2,2v15.2h43.6v-15.2c1.11,0,2-.89,2-2l.07-6.23Z"></path>
  <path class="cls-15" d="M184.04,220.22h65.69v133.24c0,9.12-7.34,16.46-16.46,16.46h-32.7c-9.12,0-16.46-7.34-16.46-16.46v-133.24h-.07Z"></path>
  <path class="cls-16" d="m241.2 277.68c0 12.98-10.53 23.5-23.5 23.5s-23.5-10.53-23.5-23.5 23.5-41.67 23.5-41.67 23.5 28.69 23.5 41.67"></path>
  <path class="cls-18" d="m140.77 180.77v-35.22h-38.03v35.22c0 5.49-2.97 10.6-7.71 13.27-6.45 3.71-10.38 10.53-10.38 17.94v164.6h74.29v-164.52c0-7.41-3.93-14.24-10.38-17.94-4.82-2.74-7.78-7.78-7.78-13.35"></path>
  <path class="cls-12" d="M145.59,130.72c0-1.11-.89-2-2-2h-43.67c-1.11,0-2,.89-2,2v6.23c0,1.11.89,2,2,2v15.2h43.6v-15.2c1.11,0,2-.89,2-2l.07-6.23Z"></path>
  <path class="cls-7" d="M88.87,220.22h65.69v133.24c0,9.12-7.34,16.46-16.46,16.46h-32.7c-9.12,0-16.46-7.34-16.46-16.46v-133.24h-.07Z"></path>
  <path class="cls-19" d="m146.03 277.68c0 12.98-10.53 23.5-23.5 23.5s-23.5-10.53-23.5-23.5 23.5-41.67 23.5-41.67 23.5 28.69 23.5 41.67"></path>
  <path class="cls-13" d="M132.17,291.39c-2.37-4.37-6.67-6.75-10.01-5.86-1.48-2.96-2-6.38-1.34-9.79,2.45-3.49,5.26-6.75,8.45-9.79l-2.07-2.15c-5.56,5.34-10.16,11.49-13.64,18.17-1.78,3.48-2.97,6.52-3.56,9.42-3.71.59-6.38,5.12-6.08,10.38.3,5.56,3.78,9.86,7.78,9.71,4.01-.22,7.05-4.89,6.75-10.45-.22-4.45-2.52-8.08-5.41-9.27.52-2.52,1.56-5.26,3.19-8.45.52-.97.97-1.85,1.48-2.74.22,2.22.89,4.45,1.93,6.45-2.3,2.45-2.45,7.12-.22,11.27,2.67,4.89,7.71,7.27,11.2,5.34,3.56-1.85,4.23-7.34,1.56-12.23"></path>
  <path class="cls-13" d="m140.17 264.11c8.45-0.74 15.72 3.26 15.72 3.26s-6.45 5.19-14.9 5.93-15.72-3.26-15.72-3.26 6.52-5.19 14.9-5.93"></path>
  <path class="cls-13" d="m107.55 261.07c7.12 4.6 10.45 12.16 10.45 12.16s-8.3 0.15-15.42-4.37-10.45-12.16-10.45-12.16 8.3-0.22 15.42 4.37"></path>
  <path class="cls-13" d="m119.49 254.91c2.08 8.23-0.67 16.02-0.67 16.02s-6.15-5.49-8.3-13.72 0.67-16.02 0.67-16.02 6.15 5.49 8.3 13.72"></path>
  <path class="cls-20" d="m558.72 180.77v-35.22h-38.03v35.22c0 5.49-2.97 10.6-7.71 13.27-6.45 3.71-10.38 10.53-10.38 17.94v164.6h74.29v-164.52c0-7.41-3.93-14.24-10.38-17.94-4.82-2.74-7.78-7.78-7.78-13.35"></path>
  <path class="cls-10" d="M563.54,130.72c0-1.11-.89-2-2-2h-43.67c-1.11,0-2,.89-2,2v6.23c0,1.11.89,2,2,2v15.2h43.6v-15.2c1.11,0,2-.89,2-2l.07-6.23Z"></path>
  <path class="cls-19" d="M506.82,220.22h65.69v133.24c0,9.12-7.34,16.46-16.46,16.46h-32.7c-9.12,0-16.46-7.34-16.46-16.46v-133.24h-.07Z"></path>
  <path class="cls-10" d="m563.99 277.68c0 12.98-10.53 23.5-23.5 23.5s-23.5-10.53-23.5-23.5 23.5-41.67 23.5-41.67 23.5 28.69 23.5 41.67"></path>
  <path class="cls-25" d="m455.7 180.77v-35.22h-38.03v35.22c0 5.49-2.97 10.6-7.71 13.27-6.45 3.71-10.38 10.53-10.38 17.94v164.6h74.29v-164.52c0-7.41-3.93-14.24-10.38-17.94-4.82-2.74-7.78-7.78-7.78-13.35"></path>
  <path class="cls-9" d="M460.52,130.72c0-1.11-.89-2-2-2h-43.67c-1.11,0-2,.89-2,2v6.23c0,1.11.89,2,2,2v15.2h43.6v-15.2c1.11,0,2-.89,2-2l.07-6.23Z"></path>
  <path class="cls-9" d="M403.8,220.22h65.69v133.24c0,9.12-7.34,16.46-16.46,16.46h-32.7c-9.12,0-16.46-7.34-16.46-16.46v-133.24h-.07Z"></path>
  <path class="cls-19" d="m460.96 277.68c0 12.98-10.53 23.5-23.5 23.5s-23.5-10.53-23.5-23.5 23.5-41.67 23.5-41.67 23.5 28.69 23.5 41.67"></path>
  <path class="cls-10" d="m540.7 258.66c10.57 0 19.15 8.57 19.15 19.15s-8.57 19.15-19.15 19.15-19.15-8.57-19.15-19.15 8.57-19.15 19.15-19.15"></path>
  <path class="cls-17" d="M540.14,272.21c-.86-1.94-1.55-3.92-2.07-5.94-.73-2.84-.69-4.04-1.76-4.73-1.68-1.08-4.48.3-5.81,1.34-1.2.86-2.11,2.11-2.54,3.53-.34,1.25-.3,2.54.09,3.79-1.59.56-2.88,1.63-3.74,3.1-.35.65-1.34,2.41-.65,4.52.43,1.21,1.29,2.24,2.41,2.84-.65,1.21-.9,2.58-.65,3.96.09.6.47,2.67,2.32,3.61.82.43,1.72.56,2.63.43.13,1.25.64,2.41,1.42,3.4,1.08,1.42,2.71,2.28,4.52,2.41,1.46.04,2.92-.43,4.09-1.33,1.72.95,3.7,1.16,5.59.64.52-.17,3.1-.95,4.05-3.4.26-.69.39-1.46.34-2.19.43.09,2.54.43,4.17-.86,1.89-1.51,2.41-4.65.86-7.36.56-.34,1.98-1.33,2.41-3.1.6-2.45-1.03-5.38-4.17-6.8.22-1.63-.09-3.27-.86-4.73-1.89-3.36-6.5-4.99-8.22-3.66-.65.52-.69,1.29-.86,2.41-.6,2.93-1.81,5.72-3.57,8.13"></path>
  <path class="cls-10" d="M540.1,295.06c-.34,0-.65-.3-.65-.65v-17.3c0-.34.3-.65.65-.65s.65.3.65.65v17.3c0,.35-.3.65-.65.65"></path>
  <path class="cls-10" d="M536.35,280.52c-.86,0-1.76-.3-2.41-.95-.26-.26-.3-.64-.04-.9.26-.26.65-.3.9-.04.69.6,1.68.78,2.5.39.9-.47,1.68-1.03,2.32-1.72.26-.26.65-.26.9-.04.26.26.26.64.04.9-.73.77-1.68,1.46-2.71,1.98-.47.26-.99.39-1.51.39"></path>
  <path class="cls-10" d="M533.43,275.14c-2.15,0-3.96-1.72-4.13-3.92-.04-.34.26-.64.6-.69.34-.04.64.26.69.6.09,1.59,1.46,2.8,3.05,2.71h.13c.09,0,.22-.04.3-.04.34,0,.64.3.64.64s-.3.65-.64.65h-.09c-.09,0-.22.04-.3.04h-.26Z"></path>
  <path class="cls-10" d="M548.49,276.13c-1.16,0-2.19-.43-2.84-.95-.26-.22-.3-.64-.09-.9.22-.26.65-.3.9-.09.64.52,1.85.86,2.93.52.95-.3,1.63-1.03,2.02-2.19.09-.35.47-.52.82-.43.34.13.52.47.43.82-.65,2.02-1.89,2.75-2.88,3.05-.47.09-.9.17-1.29.17"></path>
  <path class="cls-10" d="M544.36,283.96c-1.72,0-3.4-.73-4.6-2.11-.22-.26-.22-.69.09-.9.26-.22.69-.22.9.09,1.42,1.59,3.74,2.11,5.68,1.16.3-.17.69-.04.86.3.17.3.04.69-.3.86-.82.39-1.72.6-2.63.6"></path>
  <path class="cls-10" d="M530.89,287.7c-.13,0-.22-.04-.34-.09-.3-.17-.39-.6-.22-.9.64-1.08.9-1.94.69-2.5-.17-.52-.82-.73-1.21-.82-.26-.09-.73-.22-.73-.73v-.17c.04-.3.13-1.12-.39-1.68-.34-.39-.99-.6-1.85-.6-.35,0-.65-.3-.65-.65s.3-.64.65-.64c1.25,0,2.19.34,2.8,1.03.52.56.77,1.33.73,2.28.56.17,1.42.6,1.81,1.55.35.95.09,2.11-.82,3.62-.04.17-.26.3-.47.3"></path>
  <path class="cls-10" d="M545.73,290.67c-.26,0-.52-.17-.6-.43-.3-.9-.39-1.85-.3-2.75.13-1.08.82-2.02,1.85-2.45l.09-.04c.52-.13,1.08-.17,1.59-.17-.43-1.55.47-3.18,1.98-3.62.43-.17.95-.17,1.46-.04.35.09.56.43.47.77-.09.34-.43.56-.77.47-.3-.04-.56-.04-.73,0h-.04c-.86.26-1.33,1.16-1.12,2.02.26.82,0,1.21-.26,1.42-.26.22-.56.22-.69.22h-.04c-.47-.04-.99,0-1.46.09-.6.26-.95.77-1.03,1.38-.09.73,0,1.51.21,2.24.09.35-.09.69-.43.82-.04.09-.13.09-.17.09"></path>
  <path class="cls-10" d="M542.21,275.14c-.34,0-.65-.3-.65-.65,0-.64-.86-1.38-1.51-1.76-.64.39-1.51,1.12-1.51,1.76,0,.35-.3.65-.64.65s-.65-.3-.65-.65c0-1.72,2.24-2.92,2.5-3.05l.3-.17.3.17c.26.13,2.5,1.34,2.5,3.05,0,.35-.3.65-.65.65"></path>
  <path class="cls-25" d="m425.19 284c6.24-0.44 11.05-4.24 10.75-8.5s-5.59-7.36-11.83-6.92c-6.23 0.44-11.05 4.24-10.75 8.5s5.59 7.35 11.83 6.92"></path>
  <path class="cls-21" d="m423.7 273.25c2.54-0.18 4.55-0.89 4.5-1.59s-2.14-1.12-4.68-0.95c-2.54 0.18-4.55 0.89-4.5 1.59s2.15 1.12 4.68 0.95"></path>
  <path class="cls-25" d="M441.9,278.7c6.24.33,11.48-2.86,11.71-7.12.22-4.26-4.65-7.98-10.9-8.31-6.24-.33-11.48,2.86-11.71,7.12-.22,4.26,4.65,7.98,10.9,8.31"></path>
  <path class="cls-21" d="M441.72,267.84c2.54.13,4.63-.33,4.66-1.03.04-.7-1.99-1.37-4.53-1.51-2.54-.13-4.63.33-4.66,1.03-.04.7,1.99,1.38,4.53,1.51"></path>
  <path class="cls-25" d="m449.66 288.73c6.19 0.87 11.69-1.85 12.28-6.08s-3.94-8.36-10.13-9.23-11.69 1.85-12.28 6.08 3.94 8.36 10.13 9.23"></path>
  <path class="cls-21" d="m449.03 277.85c2.54 0.04 4.61-0.49 4.62-1.19s-2.04-1.31-4.58-1.35-4.61 0.49-4.62 1.19 2.04 1.31 4.58 1.35"></path>
  <path class="cls-24" d="M291.82,337.22h2.83c2.81,0,6.17-.09,6.17,3.54,0,1.54-1.03,2.81-2.7,3.04v.04c.71.06,1.12.77,1.39,1.35l2.1,5.12h-2.93l-1.58-4.09c-.38-.98-.71-1.35-1.82-1.35h-.84v5.44h-2.63v-13.09ZM294.44,342.81h.86c1.29,0,2.78-.19,2.78-1.82s-1.46-1.71-2.78-1.71h-.86v3.53Z"></path>
  <path class="cls-24" d="m307.81 337.22h2.96l5.14 13.09h-2.91l-1.13-3h-5.31l-1.14 3h-2.72l5.1-13.09zm1.45 2.63h-0.04l-1.89 5.4h3.83l-1.89-5.4z"></path>
  <path class="cls-24" d="M317.94,337.22h3.32c2.85,0,5.46.83,5.46,3.96s-2.23,4.16-5.04,4.16h-1.11v4.97h-2.63v-13.09ZM320.57,343.28h.92c1.31,0,2.49-.43,2.49-1.95s-1.14-2.04-2.49-2.04h-.92v3.99Z"></path>
  <path class="cls-24" d="M336.17,339.62c-.83-.36-1.74-.56-2.66-.56s-2.06.39-2.06,1.82c0,2.27,5.74,1.31,5.74,5.7,0,2.87-2.27,3.96-4.91,3.96-1.43,0-2.06-.19-3.36-.51l.24-2.36c.9.49,1.93.81,2.96.81s2.33-.51,2.33-1.69c0-2.49-5.74-1.46-5.74-5.79,0-2.93,2.27-3.99,4.58-3.99,1.12,0,2.18.15,3.13.47l-.24,2.16Z"></path>
  <path class="cls-24" d="m345.9 337c4.11 0 6.41 2.78 6.41 6.73s-2.27 6.81-6.41 6.81-6.41-2.79-6.41-6.81 2.25-6.73 6.41-6.73zm0 11.47c2.68 0 3.68-2.38 3.68-4.74s-1.07-4.67-3.68-4.67-3.68 2.36-3.68 4.67 0.99 4.74 3.68 4.74zm-3.02-12.54v-2.17h2.18v2.17h-2.18zm6.04-2.18v2.17h-2.18v-2.17h2.18z"></path>
  <path class="cls-24" d="m355.26 337.22h2.63v11.03h5.08v2.06h-7.71v-13.09z"></path>
  <path class="cls-8" d="m199.21 345.54h1.5v6.28h2.89v1.17h-4.39v-7.46z"></path>
  <path class="cls-8" d="m204.86 345.54h4.4v1.17h-2.91v1.84h2.66v1.17h-2.66v2.09h2.93v1.17h-4.42v-7.46z"></path>
  <path class="cls-8" d="m211 345.54h1.5v7.46h-1.5v-7.46z"></path>
  <path class="cls-8" d="M214.33,345.54h1.84l2.84,5.58h.02v-5.58h1.43v7.46h-1.83l-2.85-5.58h-.02v5.58h-1.43v-7.46Z"></path>
  <path class="cls-8" d="m225.73 345.42c2.34 0 3.65 1.58 3.65 3.83s-1.29 3.88-3.65 3.88-3.65-1.59-3.65-3.88 1.28-3.83 3.65-3.83zm0 6.53c1.53 0 2.09-1.36 2.09-2.7s-0.61-2.66-2.09-2.66-2.09 1.35-2.09 2.66 0.57 2.7 2.09 2.7zm-1.72-7.14v-1.24h1.24v1.24h-1.24zm3.44-1.24v1.24h-1.24v-1.24h1.24z"></path>
  <path class="cls-8" d="m231.07 345.54h1.5v6.28h2.9v1.17h-4.39v-7.46z"></path>
  <path class="cls-19" d="m99.29 345.42c2.34 0 3.65 1.58 3.65 3.83s-1.29 3.88-3.65 3.88-3.65-1.59-3.65-3.88 1.28-3.83 3.65-3.83zm0 6.53c1.53 0 2.09-1.36 2.09-2.7s-0.61-2.66-2.09-2.66-2.09 1.35-2.09 2.66 0.57 2.7 2.09 2.7z"></path>
  <path class="cls-19" d="m104.62 345.54h1.5v6.28h2.89v1.17h-4.39v-7.46z"></path>
  <path class="cls-19" d="m110.15 345.54h1.5v7.46h-1.5v-7.46z"></path>
  <path class="cls-19" d="M112.81,345.54h1.6l1.91,5.85h.02l1.89-5.85h1.48l-2.51,7.46h-1.84l-2.56-7.46Z"></path>
  <path class="cls-19" d="m121.02 345.54h4.4v1.17h-2.91v1.84h2.66v1.17h-2.66v2.09h2.93v1.17h-4.42v-7.46z"></path>
  <path class="cls-19" d="M127.19,345.54h1.84l2.84,5.58h.02v-5.58h1.43v7.46h-1.83l-2.85-5.58h-.02v5.58h-1.43v-7.46Z"></path>
  <path class="cls-19" d="m138.59 345.42c2.34 0 3.65 1.58 3.65 3.83s-1.29 3.88-3.65 3.88-3.65-1.59-3.65-3.88 1.28-3.83 3.65-3.83zm0 6.53c1.53 0 2.09-1.36 2.09-2.7s-0.61-2.66-2.09-2.66-2.09 1.35-2.09 2.66 0.57 2.7 2.09 2.7zm-1.72-7.14v-1.24h1.24v1.24h-1.24zm3.44-1.24v1.24h-1.24v-1.24h1.24z"></path>
  <path class="cls-19" d="m143.93 345.54h1.5v6.28h2.89v1.17h-4.39v-7.46z"></path>
  <path class="cls-25" d="M420.89,346.91c-.47-.2-.99-.32-1.52-.32s-1.17.22-1.17,1.04c0,1.29,3.27.75,3.27,3.25,0,1.63-1.29,2.25-2.8,2.25-.81,0-1.18-.11-1.91-.29l.14-1.35c.51.28,1.1.46,1.69.46s1.32-.29,1.32-.96c0-1.42-3.27-.83-3.27-3.3,0-1.67,1.29-2.28,2.61-2.28.64,0,1.24.09,1.78.27l-.14,1.23Z"></path>
  <path class="cls-25" d="m426.43 345.42c2.34 0 3.65 1.58 3.65 3.83s-1.29 3.88-3.65 3.88-3.65-1.59-3.65-3.88 1.28-3.83 3.65-3.83zm0 6.53c1.53 0 2.09-1.36 2.09-2.7s-0.61-2.66-2.09-2.66-2.09 1.35-2.09 2.66 0.57 2.7 2.09 2.7z"></path>
  <path class="cls-25" d="M431.15,351.7c.2.07.42.13.71.13.97,0,.97-.78.97-1.31v-4.97h1.5v5.68c0,.79-.51,1.9-2.04,1.9-.41,0-.73-.03-1.14-.14v-1.29Z"></path>
  <path class="cls-25" d="m438.39 345.54h1.69l2.93 7.46h-1.66l-0.64-1.71h-3.02l-0.65 1.71h-1.55l2.91-7.46zm0.82 1.5h-0.02l-1.08 3.08h2.18l-1.08-3.08z"></path>
  <path class="cls-25" d="m447.58 345.42c2.34 0 3.65 1.58 3.65 3.83s-1.29 3.88-3.65 3.88-3.65-1.59-3.65-3.88 1.28-3.83 3.65-3.83zm0 6.53c1.53 0 2.09-1.36 2.09-2.7s-0.61-2.66-2.09-2.66-2.09 1.35-2.09 2.66 0.57 2.7 2.09 2.7zm-1.72-7.14v-1.24h1.24v1.24h-1.24zm3.44-1.24v1.24h-1.24v-1.24h1.24z"></path>
  <path class="cls-25" d="m452.91 345.54h1.5v6.28h2.89v1.17h-4.39v-7.46z"></path>
  <path class="cls-10" d="M511.03,339.48h1.62l1.43,6.53h.02l1.31-6.53h2.09l1.35,6.53h.02l1.44-6.53h1.5l-2,8.17h-1.98l-1.39-6.53h-.02l-1.36,6.53h-1.99l-2.04-8.17Z"></path>
  <path class="cls-10" d="m524.94 339.48h1.74l3.01 8.17h-1.71l-0.66-1.87h-3.11l-0.67 1.87h-1.6l2.99-8.17zm0.84 1.64h-0.02l-1.11 3.37h2.24l-1.11-3.37z"></path>
  <path class="cls-10" d="m531 339.48h1.54v6.88h2.98v1.29h-4.52v-8.17z"></path>
  <path class="cls-10" d="M536.74,339.48h1.89l2.93,6.11h.02v-6.11h1.47v8.17h-1.88l-2.94-6.11h-.02v6.11h-1.47v-8.17Z"></path>
  <path class="cls-10" d="M545.03,339.48h1.54v4.72c0,1.39.42,2.31,1.6,2.31s1.59-.91,1.59-2.31v-4.72h1.54v5.22c0,2.19-1.17,3.09-3.14,3.09s-3.14-.9-3.14-3.09v-5.22Z"></path>
  <path class="cls-10" d="M557.48,340.98c-.48-.22-1.02-.35-1.56-.35s-1.21.25-1.21,1.14c0,1.42,3.37.82,3.37,3.56,0,1.79-1.33,2.47-2.88,2.47-.84,0-1.21-.12-1.97-.32l.14-1.47c.53.3,1.13.5,1.74.5s1.36-.32,1.36-1.05c0-1.56-3.37-.91-3.37-3.62,0-1.83,1.33-2.49,2.68-2.49.66,0,1.28.09,1.84.29l-.14,1.35Z"></path>
  <path class="cls-10" d="M563.92,340.98c-.48-.22-1.02-.35-1.56-.35s-1.21.25-1.21,1.14c0,1.42,3.37.82,3.37,3.56,0,1.79-1.33,2.47-2.88,2.47-.84,0-1.21-.12-1.97-.32l.14-1.47c.53.3,1.13.5,1.74.5s1.36-.32,1.36-1.05c0-1.56-3.37-.91-3.37-3.62,0-1.83,1.33-2.49,2.68-2.49.66,0,1.28.09,1.84.29l-.14,1.35Z"></path>
  <path class="cls-10" d="m565.72 345.14v-1.29h2.89v1.29h-2.89z"></path>
  <path class="cls-10" d="m537.04 352.53c2.41 0 3.76 1.73 3.76 4.2s-1.33 4.25-3.76 4.25-3.76-1.74-3.76-4.25 1.32-4.2 3.76-4.2zm0 7.16c1.57 0 2.16-1.49 2.16-2.96s-0.63-2.91-2.16-2.91-2.16 1.47-2.16 2.91 0.58 2.96 2.16 2.96zm-1.77-7.83v-1.36h1.28v1.36h-1.28zm3.55-1.35v1.36h-1.28v-1.36h1.28z"></path>
  <path class="cls-10" d="m542.54 352.67h1.54v6.88h2.98v1.29h-4.52v-8.17z"></path>
  <path class="cls-14" d="M212.12,253.42c-.53,3.04-1.96,6.24-3.34,9.08h0c-.14.29-.28.58-.42.86h-.07s-.99-.01-.99-.01h-.69s-.08,0-.08,0h-.64s-.34-.01-.34-.01c-2.46-1.23-6-2.32-7.95-4.31-1.28-1.31-1.25-3.08-.64-4.7,1.08-2.87,3.56-4.58,6.55-5.02,3.21-.47,9.45-.69,8.61,4.13"></path>
  <path class="cls-14" d="M196.47,260.58c3.04.53,6.24,1.96,9.08,3.34h0c.29.14.57.28.85.42v.07s-.01.99-.01.99v.69s0,.08,0,.08v.64s-.01.34-.01.34c-1.23,2.46-2.32,6-4.31,7.95-1.31,1.28-3.08,1.25-4.7.64-2.87-1.08-4.58-3.56-5.02-6.55-.47-3.21-.69-9.45,4.13-8.61"></path>
  <path class="cls-14" d="M203.63,276.22c.53-3.04,1.96-6.24,3.34-9.08h0c.14-.29.28-.58.42-.86h.07s.99.01.99.01h.69s.08,0,.08,0h.64s.34.01.34.01c2.46,1.23,6,2.32,7.95,4.31,1.28,1.31,1.25,3.08.64,4.7-1.08,2.87-3.56,4.58-6.55,5.02-3.21.47-9.45.69-8.61-4.13"></path>
  <path class="cls-14" d="M219.28,269.06c-3.04-.53-6.24-1.96-9.08-3.34h0c-.29-.14-.57-.28-.85-.42v-.07s.01-.99.01-.99v-.69s0-.08,0-.08v-.64s.01-.34.01-.34c1.23-2.46,2.32-6,4.31-7.95,1.31-1.28,3.08-1.25,4.7-.64,2.87,1.08,4.58,3.56,5.02,6.55.47,3.21.69,9.45-4.13,8.61"></path>
  <path class="cls-5" d="m210.56 264c0.45 1.48-0.39 3.05-1.87 3.5s-3.05-0.39-3.5-1.87 0.39-3.05 1.87-3.5 3.05 0.39 3.5 1.87"></path>
  <path class="cls-8" d="m216.29 291.58c-2.32 0.37-4.51-1.22-4.87-3.54-0.37-2.32 1.22-4.51 3.54-4.88s8.6 0.57 8.97 2.9c0.37 2.32-5.31 5.15-7.63 5.52"></path>
  <path class="cls-8" d="m223.56 298.67c-2.27-0.62-3.61-2.97-2.98-5.23 0.62-2.27 2.96-3.61 5.23-2.98 2.27 0.62 7.6 4.06 6.98 6.33s-6.96 2.51-9.23 1.89"></path>
  <path class="cls-8" d="m213.25 301.85c-2.05 1.16-4.65 0.45-5.81-1.6s-0.44-4.65 1.6-5.81c2.05-1.16 8.25-2.49 9.41-0.44s-3.16 6.69-5.2 7.85"></path>
  <path class="cls-14" d="M237.07,271.91c-1.16,1.29-2.79,2.38-4.28,3.32h0c-.15.1-.3.19-.45.28l-.04-.02-.46-.3-.33-.21-.04-.02-.3-.19-.16-.11c-.8-1.31-2.16-2.88-2.49-4.4-.22-1,.32-1.83,1.09-2.42,1.37-1.04,3.05-1.12,4.6-.44,1.66.73,4.69,2.48,2.86,4.51"></path>
  <path class="cls-14" d="M227.52,270.67c1.29,1.16,2.38,2.79,3.32,4.28h0c.1.15.19.3.28.45l-.02.04-.3.46-.21.33-.02.04-.19.3-.11.16c-1.31.8-2.88,2.16-4.4,2.49-1,.22-1.83-.32-2.42-1.09-1.04-1.37-1.12-3.05-.44-4.6.73-1.66,2.48-4.69,4.51-2.86"></path>
  <path class="cls-14" d="M226.27,280.22c1.16-1.29,2.79-2.38,4.28-3.32h0c.15-.1.3-.19.45-.28l.04.02.46.3.33.21.04.02.3.19.16.11c.8,1.31,2.16,2.88,2.49,4.4.22,1-.32,1.83-1.09,2.42-1.37,1.04-3.05,1.12-4.6.44-1.66-.73-4.69-2.48-2.86-4.51"></path>
  <path class="cls-14" d="M235.83,281.46c-1.29-1.16-2.38-2.79-3.32-4.28h0c-.1-.15-.19-.3-.28-.45l.02-.04.3-.46.21-.33.02-.04.19-.3.11-.16c1.31-.8,2.88-2.16,4.4-2.49,1-.22,1.83.32,2.42,1.09,1.04,1.37,1.12,3.05.44,4.6-.73,1.66-2.48,4.69-4.51,2.86"></path>
  <path class="cls-5" d="m233.19 276.48c-0.23 0.84-1.09 1.34-1.93 1.11s-1.34-1.09-1.11-1.93 1.09-1.34 1.93-1.11 1.34 1.09 1.11 1.93"></path>
  <path class="cls-4" d="M696.02,317.86h-98.26l11.36,52.73c.76,3.52,3.84,6,7.41,6h60.78c3.57,0,6.65-2.49,7.41-6l11.3-52.73Z"></path>
  <g class="cls-1" clip-path="url(#a)">
    <path class="cls-19" d="m646.87 360.74c28.1 0 50.89 7.84 50.89 17.52s-22.78 17.52-50.89 17.52-50.89-7.84-50.89-17.52 22.78-17.52 50.89-17.52"></path>
  </g>
  <path class="cls-22" d="M647.14,343.71h0c-.05-.11-.65-4.98-2.06-7.3-.86-1.19-1.51-2.49-1.89-3.84.32-.27.65-.49.97-.7.81-.43,1.73-.7,2.7-.81.54-.05,1.13,0,1.68.11.54.11,1.08.33,1.57.65.97.65,1.57,1.68,1.62,2.81,0,.65.05,1.19,0,1.79-.05.6-.05,1.08-.16,1.62-.11.92-.32,1.79-.7,2.65-.11.16-.16.38-.27.54s-.22.32-.32.43l-.6.86c-.22.33-.38.65-.6.97-.22.16-.38.33-.65.43h-.22c-.16,0-.38-.05-.54-.11-.16.05-.32-.05-.54-.11"></path>
  <path class="cls-22" d="M648.6,344.35h.11c.11,0,.27-.05.38-.11.54-.16,1.08-.49,1.46-.92.76-.86,1.41-1.84,1.95-2.87.65-1.19,1.03-2.81,1.41-4.54.11-.7.38-1.35.76-1.95.32-.43.86-.6,1.41-.54.32.05.65.11.92.27.38.16.7.38.97.65.38.33.7.65.97,1.03.33.43.6.86.81,1.35.86,1.68,1.13,3.62.7,5.46-.05.16-.11.33-.16.54-.05.22-.11.38-.16.54-.11.33-.27.65-.49.92-.27.43-.65.81-1.14.97-.97.22-1.95.49-2.92.7s-1.95.38-2.97.43c-1.3.11-2.6-.11-3.78-.54,0,0-.38-.49-.6-.86-.11-.11-.16-.27-.22-.43,0-.11.11-.11.49-.11h.11Z"></path>
  <path class="cls-22" d="M646.44,345c-.22.11-.49.22-.7.22-.11.05-.27.05-.43.05-.22-.05-.49-.16-.7-.22-.87-.27-1.73-.49-2.65-.54s-1.84-.22-2.7-.49c-1.08-.38-2.11-1.03-2.87-1.89-.86-1.03-1.13-2.43-.65-3.68.38-1.08,1.08-2.06,2-2.7.59-.43,1.3-.76,2-.97.22-.05.43-.11.59-.11,2.06-.92,6.54,8.76,6.71,8.92.05.05.11.11.11.05s0,0,0,0v.11c-.11.32-.22.65-.38.92-.11.11-.22.22-.32.32"></path>
  <path class="cls-22" d="M641.41,353.76c-.65.54-2.06.54-3.57-.32-.16-.11-.38-.22-.6-.33l-.27-.22-.22-.11c-.27-.16-.54-.32-.81-.54-.6-.49-1.14-1.03-1.57-1.62-.49-.7-.86-1.46-1.08-2.27-.22-.76-.27-1.51-.11-2.27.11-.54.54-1.03,1.08-1.13.7-.05,1.41.05,2.06.32,1.19.38,2.38.6,3.57.7,1.08.11,2.11.16,3.08.32l.7.11c.22.05.43.05.6.05.27-.05.6-.11.87-.16.38-.11.76-.27,1.08-.49.11-.11.27-.22.38-.32.05-.05.11-.11.11-.11.22-.32.33-.43.38-.38.05.05.16.22.22.43.05.22.16.49.22.65l.11.33c-.32,1.03-.76,1.95-1.41,2.81-.76,1.03-1.62,1.95-2.59,2.81-.7.54-1.51,1.14-2.22,1.73"></path>
  <path class="cls-22" d="M656.44,348.84c.76.11,1.41.49,1.84,1.14.33.65.43,1.35.22,2.06-.22,1.03-.7,1.95-1.41,2.7-.65.81-1.46,1.46-2.33,2-1.3.76-2.7,1.24-4.22,1.46-.22.05-.43.05-.7.05h-.97c-.7-.05-1.41-.22-2-.49-.65-.27-1.19-.76-1.51-1.41-.27-.7-.16-1.51.22-2.16.6-1.24,1.08-2.32,1.46-3.24.32-.81.6-1.62.81-2.43.22-.76.33-1.57.38-2.38h.11c.7.49,1.46.87,2.27,1.19.81.32,1.57.6,2.43.81.97.16,2.11.38,3.41.7"></path>
  <path class="cls-22" d="M641.73,371.77c-.38,0-.7-.27-.76-.65-.05-.22-.87-5.68-.22-10.11.65-4.43,3.41-8.54,3.52-8.71.22-.38.65-.49,1.03-.27.38.22.49.65.27,1.03,0,.05-.05.05-.05.05-.05.05-2.65,3.89-3.24,8.06-.6,4.16.22,9.63.22,9.68.05.43-.22.81-.65.86l-.11.05Z"></path>
  <polygon class="cls-22" points="697.65 319.42 697.65 315.91 596.15 315.91 596.15 319.42 592.69 319.42 592.69 324.4 701.05 324.4 701.05 319.42"></polygon>
  <metadata></metadata>
</svg>
