<?xml version="1.0" encoding="UTF-8"?>
<svg xmlns="http://www.w3.org/2000/svg" xmlns:cc="http://creativecommons.org/ns#" xmlns:dc="http://purl.org/dc/elements/1.1/" xmlns:rdf="http://www.w3.org/1999/02/22-rdf-syntax-ns#" version="1.1" viewBox="0 0 745.51 419.53" xml:space="preserve">
  <title>Eine Sammlung von Hartkäse, Weichkäse, Quark, Frischmilch, Jogurt und Plfanzenmilch</title>
  <defs>
    <style>.cls-1{clip-path:url(#b);}.cls-2{fill:none;}.cls-2,.cls-3,.cls-4,.cls-5,.cls-6,.cls-7,.cls-8,.cls-9,.cls-10,.cls-11,.cls-12,.cls-13,.cls-14,.cls-15,.cls-16,.cls-17,.cls-18,.cls-19,.cls-20,.cls-21,.cls-22,.cls-23,.cls-24,.cls-25,.cls-26,.cls-27,.cls-28,.cls-29,.cls-30,.cls-31,.cls-32,.cls-33{stroke-width:0px;}.cls-34{clip-path:url(#a);}.cls-3{fill:rgba(0,157,224,.5);}.cls-4{fill:#f7f7f7;}.cls-5{fill:#f2f2f2;}.cls-6{fill:#5e858e;}.cls-7{fill:#79a8b5;}.cls-8{fill:#4f8b3f;}.cls-9{fill:#81b3c6;}.cls-10{fill:#3a6639;}.cls-11{fill:#372d22;}.cls-12{fill:#c3d7e6;}.cls-13{fill:#d2ccbf;}.cls-14{fill:#dbd2b9;}.cls-15{fill:#daebf5;}.cls-16{fill:#c7c2b6;}.cls-17{fill:#d8e3eb;}.cls-18{fill:#b2d7f5;}.cls-19{fill:#b3b3b3;}.cls-20{fill:#b4cad8;}.cls-21{fill:#6aa742;}.cls-22{fill:#f1f4f6;}.cls-23{fill:#f1f1f1;}.cls-24{fill:#f1f5f8;}.cls-25{fill:#f1f6fb;}.cls-26{fill:#fff;}.cls-27{fill:#e7af41;}.cls-28{fill:#f0d295;}.cls-29{fill:#faefba;}.cls-30{fill:#f1cd49;}.cls-31{fill:#f5dc96;}.cls-32{fill:#f4f6f9;}.cls-33{fill:#009245;}</style>
    <clipPath id="b">
      <rect class="cls-2" width="745.51" height="419.53"></rect>
    </clipPath>
    <clipPath id="a">
      <rect class="cls-2" x="24.86" y="173.65" width="124.88" height="100.96"></rect>
    </clipPath>
  </defs>
  <g class="cls-1" clip-path="url(#b)">
    <rect class="cls-3" width="745.51" height="419.53" fill="#7fceef"></rect>
    <path class="cls-22" d="M419.17,44.57c-.69.33-1.45.54-2.22.63-.29.04-.57.06-.86.06h-24.68v2.93h27.76v-3.62ZM377.45,44.6v17.72l-.42.27s0,0,.01,0l.41-.27v-7.76h0v-6.37h0v-3.6s0,0,0,0M419.17,54.56h-30.36v7.76l-.36.24c4.27-.03,9.21-.06,13.86-.1,1.97-.02,3.88-.04,5.66-.06,6.39-.04,11.21-.08,11.21-.08v-7.75Z"></path>
    <path class="cls-26" d="M440.75,99.28v170.24c0,8.8-7.12,15.93-15.93,15.93h-53.04c-8.8,0-15.93-7.12-15.93-15.93V99.28c0-1.07.04-2.12.13-3.16.04-.73.13-1.44.21-2.18.61-4.88,2.05-9.49,4.19-13.72.42-.82.86-1.61,1.32-2.41.9-1.55,1.91-3.04,3.02-4.44l.06-.08c.52-.67,1.05-1.34,1.63-1.97l.1-.13c.42-.48.86-.96,1.34-1.43.78-.84,1.63-1.63,2.49-2.39.69-.61,1.4-1.19,2.12-1.74.73-.55,1.47-1.09,2.22-1.59s1.53-.98,2.33-1.44c1.61.04,14.25-.04,25.27-.13,1.97-.02,3.88-.04,5.66-.06,6.39-.04,11.21-.08,11.21-.08,12.89,7.29,21.58,21.1,21.58,36.96"></path>
    <rect class="cls-9" x="355.86" y="129.19" width="84.89" height="69.45"></rect>
    <rect class="cls-6" x="377.44" y="48.2" width="41.72" height="6.37"></rect>
    <rect class="cls-6" x="413.34" y="43.86" width="3.6" height="7.51"></rect>
    <rect class="cls-6" x="404.83" y="43.86" width="3.6" height="7.51"></rect>
    <rect class="cls-6" x="396.31" y="43.86" width="3.6" height="7.51"></rect>
    <rect class="cls-6" x="387.8" y="43.86" width="3.6" height="7.51"></rect>
    <rect class="cls-6" x="379.29" y="43.86" width="3.6" height="7.51"></rect>
    <path class="cls-9" d="M423.4,37.95c0,2.03-.82,3.85-2.14,5.17-.61.61-1.32,1.09-2.1,1.45-.69.33-1.45.54-2.22.63-.29.04-.56.06-.86.06h-35.56c-.42,0-.84-.04-1.24-.1-.65-.1-1.28-.31-1.84-.57-2.51-1.17-4.23-3.71-4.23-6.64,0-2.03.82-3.86,2.14-5.18s3.16-2.14,5.18-2.14h35.56c4.02,0,7.31,3.27,7.31,7.31"></path>
    <path class="cls-26" d="M374.82,42.53c.7.87,1.6,1.59,2.63,2.07h0c-1.03-.48-1.93-1.19-2.63-2.07"></path>
    <path class="cls-32" d="M377.44,44.59h0s0,0,0,0v3.6h1.84v-3.04c-.65-.1-1.28-.31-1.84-.57M387.8,45.26h-4.91v2.93h4.91v-2.93Z"></path>
    <path class="cls-26" d="m359.65 279.84c2.92 3.44 7.28 5.61 12.14 5.61h11.36-0.44-10.92c-4.87 0-9.22-2.18-12.14-5.61"></path>
    <path class="cls-32" d="M388.81,54.56h-11.36v7.76l-.41.27c.3,0,.95.01,1.87.01,2.06,0,5.5-.02,9.53-.04l.36-.24v-7.76Z"></path>
    <path class="cls-26" d="M388.44,62.56c-4.03.02-7.47.04-9.53.04-.92,0-1.57,0-1.87-.01h0c-.8.47-1.57.95-2.33,1.45-.75.5-1.49,1.05-2.22,1.59-.71.55-1.42,1.13-2.12,1.74-.86.75-1.72,1.55-2.49,2.39-.48.46-.92.94-1.34,1.43l-.11.13c-.59.63-1.11,1.3-1.63,1.97l-.06.09c-1.11,1.4-2.12,2.89-3.02,4.44-.46.8-.9,1.59-1.32,2.41-2.14,4.23-3.58,8.84-4.19,13.73-.08.73-.17,1.45-.21,2.18-.08,1.05-.13,2.1-.13,3.16v29.9h11.36v-29.9c0-1.07.04-2.12.13-3.16.04-.73.13-1.44.21-2.18.61-4.88,2.05-9.49,4.19-13.73.42-.82.86-1.61,1.32-2.41.9-1.55,1.91-3.04,3.02-4.44l.06-.09c.52-.67,1.05-1.34,1.63-1.97l.1-.13c.42-.48.86-.96,1.34-1.43.78-.84,1.64-1.63,2.5-2.39.69-.61,1.4-1.19,2.12-1.74.73-.55,1.47-1.09,2.22-1.59s1.53-.98,2.33-1.44l.05-.04ZM367.22,198.63h-11.36v70.9c0,3.93,1.42,7.53,3.78,10.31,2.92,3.43,7.27,5.61,12.14,5.61h10.92c-8.6-.23-15.49-7.27-15.49-15.92v-70.9Z"></path>
    <polyline class="cls-9" points="367.22 152.94 367.22 129.19 355.87 129.19 355.87 198.63 367.22 198.63 367.22 173.88"></polyline>
    <polygon class="cls-6" points="387.8 48.2 382.89 48.2 382.89 51.37 379.29 51.37 379.29 48.2 377.45 48.2 377.45 54.56 388.81 54.56 388.81 51.37 387.8 51.37"></polygon>
    <polygon class="cls-6" points="387.8 45.26 387.8 48.19 387.8 51.37 388.81 51.37 388.81 45.26"></polygon>
    <path class="cls-6" d="M379.29,45.16v6.22h3.6v-6.11h-2.36c-.42,0-.84-.04-1.24-.1h0"></path>
    <path class="cls-9" d="M391.89,30.64h-11.36c-2.01,0-3.86.82-5.18,2.14-1.32,1.32-2.14,3.14-2.14,5.18,0,1.73.6,3.32,1.6,4.57.7.87,1.6,1.58,2.63,2.06.56.25,1.19.46,1.84.56h0c.4.06.82.1,1.24.1h8.28v-.66c-2.52-1.17-4.23-3.71-4.23-6.64,0-2.03.82-3.86,2.14-5.18,1.32-1.32,3.16-2.14,5.18-2.14"></path>
    <path class="cls-26" d="M368.05,156.62h4.58l3.39,10.81h.04l3.39-10.81h4.58v14.26h-2.74v-11.77h-.04l-3.84,11.77h-2.74l-3.84-11.77-.04.04v11.73h-2.74v-14.26Z"></path>
    <path class="cls-26" d="m387.7 156.62h2.86v14.26h-2.86v-14.26z"></path>
    <path class="cls-26" d="m394.23 156.62h2.86v12.01h5.54v2.25h-8.4v-14.26z"></path>
    <path class="cls-26" d="M414.41,170.68c-1.04.25-2.17.45-3.25.45-4.62,0-7.83-2.31-7.83-7.13s2.98-7.62,7.83-7.62c.94,0,2.19.18,3.23.59l-.2,2.41c-1.08-.61-2.06-.76-3.08-.76-2.94,0-4.78,2.25-4.78,5.17s1.8,5.09,4.84,5.09c1.12,0,2.45-.25,3.13-.59l.12,2.39Z"></path>
    <path class="cls-26" d="m417.13 156.62h2.86v5.76h5.72v-5.76h2.86v14.26h-2.86v-6.25h-5.72v6.25h-2.86v-14.26z"></path>
    <path class="cls-23" d="M322.73,240.2c0,5.41-13.63,17.29-50.61,17.69-.63.01-1.28.01-1.94.01-38.72,0-52.54-12.2-52.54-17.7,0-2.61,17.76-57.66,17.76-57.66,5.01-1.03,21.11-1.6,36.71-1.6,14.33.01,28.24.51,32.84,1.6,0,0,17.76,55.32,17.76,57.66"></path>
    <path class="cls-26" d="m304.97 182.53c0 3.32-14.54 6.04-32.84 6.22h-1.93c-19.21 0-34.78-2.78-34.78-6.23s15.57-6.22 34.78-6.22c0.65 0 1.29 0 1.93 0.01 18.31 0.18 32.84 2.89 32.84 6.21"></path>
    <path class="cls-26" d="M228.05,245.98c-.16,0-.32-.02-.49-.06-1.02-.27-1.62-1.31-1.36-2.33l13.83-52.27c.27-1.02,1.31-1.62,2.33-1.36,1.02.27,1.62,1.31,1.35,2.33l-13.83,52.27c-.22.85-1,1.42-1.84,1.42"></path>
    <path class="cls-26" d="M245.16,251.62c-.12,0-.23-.01-.35-.03-1.04-.19-1.72-1.18-1.53-2.21l9.96-54.48c.19-1.04,1.19-1.72,2.22-1.53,1.04.19,1.72,1.18,1.53,2.22l-9.96,54.48c-.17.92-.97,1.56-1.87,1.56"></path>
    <path class="cls-26" d="M267.15,253.53c-1.05,0-1.9-.85-1.9-1.91v-55.58c0-1.05.85-1.91,1.9-1.91s1.91.85,1.91,1.91v55.58c0,1.05-.85,1.91-1.91,1.91"></path>
    <path class="cls-26" d="M286.56,253.44c-.96,0-1.78-.72-1.89-1.7l-6.14-55.58c-.12-1.05.64-1.99,1.68-2.11,1.05-.12,1.99.64,2.1,1.69l6.15,55.58c.12,1.05-.64,1.99-1.68,2.1-.07,0-.14.01-.21.01"></path>
    <path class="cls-26" d="M306.24,245.96c-.86,0-1.63-.58-1.85-1.45l-12.44-50.33c-.25-1.02.37-2.05,1.39-2.31,1.02-.25,2.05.37,2.31,1.39l12.45,50.33c.25,1.02-.37,2.05-1.39,2.31-.15.03-.31.06-.46.06"></path>
    <path class="cls-15" d="m609.27 186.7h99.66v162.37c0 3.75-3 6.76-6.76 6.76h-86.14c-3.75 0-6.76-3-6.76-6.76v-162.37z"></path>
    <rect class="cls-18" x="616.56" y="137.96" width="84.79" height="16.97"></rect>
    <polygon class="cls-18" points="709.01 186.7 609.35 186.7 616.56 154.86 701.35 154.86"></polygon>
    <rect class="cls-25" x="620.24" y="141.71" width="2.85" height="8.94"></rect>
    <rect class="cls-25" x="628.43" y="141.71" width="2.85" height="8.94"></rect>
    <rect class="cls-25" x="636.69" y="141.71" width="2.85" height="8.94"></rect>
    <rect class="cls-25" x="644.87" y="141.71" width="2.85" height="8.94"></rect>
    <rect class="cls-25" x="653.13" y="141.71" width="2.85" height="8.94"></rect>
    <rect class="cls-25" x="661.32" y="141.71" width="2.85" height="8.94"></rect>
    <rect class="cls-25" x="669.58" y="141.71" width="2.85" height="8.94"></rect>
    <rect class="cls-25" x="677.77" y="141.71" width="2.85" height="8.94"></rect>
    <rect class="cls-25" x="686.03" y="141.71" width="2.85" height="8.94"></rect>
    <rect class="cls-25" x="694.22" y="141.71" width="2.85" height="8.94"></rect>
    <path class="cls-25" d="m658.99 157.48c6.31 0 11.42 5.11 11.42 11.42s-5.11 11.42-11.42 11.42-11.42-5.11-11.42-11.42 5.11-11.42 11.42-11.42"></path>
    <path class="cls-19" d="m658.99 158.31c-5.78 0-10.59 4.73-10.59 10.59s4.73 10.51 10.59 10.51 10.52-4.73 10.52-10.51-4.73-10.59-10.52-10.59m0 22.83c-6.76 0-12.32-5.48-12.32-12.24s5.48-12.32 12.32-12.32 12.32 5.48 12.32 12.32-5.56 12.24-12.32 12.24"></path>
    <path class="cls-30" d="m658.84 224.25c16.18 0 29.29 13.11 29.29 29.29s-13.11 29.29-29.29 29.29-29.29-13.11-29.29-29.29 13.11-29.29 29.29-29.29"></path>
    <path class="cls-26" d="m663.65 240.92c0 5.03-4.96 9.09-4.96 9.09s-5.03-4.05-5.03-9.09 5.03-9.09 5.03-9.09 4.96 4.05 4.96 9.09"></path>
    <path class="cls-26" d="m670.48 254.82c-3.53 3.53-9.99 2.93-9.99 2.93s-0.6-6.38 2.93-9.99 9.99-2.93 9.99-2.93 0.6 6.46-2.93 9.99"></path>
    <path class="cls-26" d="m654.34 247.76c3.6 3.53 2.93 9.99 2.93 9.99s-6.38 0.68-9.99-2.93c-3.6-3.6-2.93-9.99-2.93-9.99s6.46-0.6 9.99 2.93"></path>
    <path class="cls-26" d="m670.48 267.81c-3.53 3.6-9.99 2.93-9.99 2.93s-0.6-6.38 2.93-9.99c3.53-3.6 9.99-2.93 9.99-2.93s0.6 6.38-2.93 9.99"></path>
    <path class="cls-26" d="m654.34 260.75c3.6 3.53 2.93 9.99 2.93 9.99s-6.38 0.68-9.99-2.93c-3.6-3.6-2.93-9.99-2.93-9.99s6.46-0.68 9.99 2.93"></path>
    <path class="cls-29" d="M103.87,319.15l.45,58.6c.02,2.63,2.17,4.75,4.8,4.72l130.09-.99-2.73-13.03c-2.81-13.28-2.83-26.98-.14-40.3l2.37-11.84-108.09.82-19.73-3.87c-3.21-.55-6.31,1.53-6.94,4.81-.08.33-.08.66-.07,1.07"></path>
    <path class="cls-27" d="M226.88,379.61l-117.94.9c-2.54.02-4.69-2.02-4.71-4.64l-.43-56.88c-.02-3.2,2.5-5.76,5.7-5.79.33,0,.74,0,1.07.07l19.07,3.79,109.08-.83-.04-4.76-108.59.83-18.58-3.72h-.08s-.08,0-.08,0c-.66-.08-1.23-.16-1.89-.15-5.74.04-10.39,4.76-10.42,10.59l.43,56.96c.04,5.17,4.26,9.32,9.43,9.29l130.25-.99-.04-4.76-12.23.09Z"></path>
    <path class="cls-28" d="m161.96 359.74c2.45-0.02 4.45 1.95 4.47 4.4s-1.95 4.45-4.4 4.47-4.45-1.95-4.47-4.4 1.95-4.45 4.4-4.47"></path>
    <path class="cls-28" d="m214.06 324.3c2.18-0.02 3.95 1.73 3.97 3.91s-1.73 3.95-3.91 3.97-3.95-1.73-3.97-3.91 1.73-3.95 3.91-3.97"></path>
    <path class="cls-28" d="M219.6,361.11c3.17-.02,5.76,2.53,5.79,5.7.02,3.17-2.53,5.76-5.7,5.79-3.17.02-5.76-2.53-5.79-5.7-.02-3.17,2.53-5.76,5.7-5.79"></path>
    <path class="cls-28" d="m173.77 337c2.58-0.02 4.69 2.06 4.71 4.64s-2.06 4.69-4.64 4.71-4.69-2.06-4.71-4.64 2.06-4.7 4.64-4.71"></path>
    <path class="cls-28" d="m129.29 326.83c2.49-0.02 4.53 1.99 4.55 4.48s-1.99 4.53-4.48 4.55-4.53-1.99-4.55-4.48 1.98-4.53 4.48-4.55"></path>
    <path class="cls-28" d="M121.78,364.07c2.04-.01,3.71,1.63,3.72,3.66.02,2.04-1.63,3.71-3.66,3.72-2.04.02-3.71-1.63-3.72-3.66-.02-2.04,1.63-3.7,3.66-3.72"></path>
    <path class="cls-31" d="M227.97,94.96l.14-30.97-123.33-.55-.29,63.46c-.02,4.94,4,9,8.94,9.02l42.19.19c.47-4.94,4.89-8.6,9.91-8.12,4.31.47,7.7,3.89,8.13,8.21l54.04.24.11-23.61c-4.93-.83-8.23-5.42-7.49-10.36.65-3.86,3.71-6.9,7.66-7.51"></path>
    <path class="cls-30" d="M228.37,64.26c-1.97-.91-51.41-25.27-63.78-30.27-1.79-.73-3.67-1.36-5.65-1.73-1.88-.37-7.62-1.38-16.97,1.09-5.39,1.41-14.56,3.79-23.21,11.74-6.76,6.25-12.18,13.95-13.9,18.34,33.3.15,84.1,1.45,123.51.82"></path>
    <path class="cls-30" d="m136.13 76.86c5.3 0.02 9.58 4.34 9.56 9.65-0.02 5.3-4.34 9.58-9.65 9.56s-9.59-4.34-9.56-9.65c0.02-5.3 4.34-9.59 9.65-9.56"></path>
    <path class="cls-30" d="M126.66,107.7c4.07.02,7.35,3.33,7.33,7.39-.02,4.07-3.33,7.35-7.39,7.33-4.07-.02-7.35-3.33-7.33-7.39.02-4.07,3.33-7.35,7.39-7.33"></path>
    <path class="cls-30" d="M161.18,95.38c2.83.01,5.11,2.31,5.09,5.14-.01,2.83-2.32,5.11-5.14,5.09-2.83-.01-5.11-2.31-5.09-5.14.01-2.83,2.31-5.11,5.14-5.09"></path>
    <path class="cls-30" d="m177.7 74.54c2.18 0.01 3.94 1.79 3.93 3.97s-1.79 3.94-3.97 3.93c-2.18 0-3.94-1.79-3.93-3.97s1.79-3.94 3.97-3.93"></path>
    <path class="cls-30" d="M195.74,94.45c7.49.03,13.53,6.13,13.49,13.62-.03,7.48-6.13,13.53-13.62,13.49-7.48-.03-13.53-6.13-13.49-13.61.03-7.49,6.13-13.53,13.62-13.49"></path>
    <path class="cls-30" d="m209.38 76.38c2.48 0.01 4.48 2.03 4.47 4.51s-2.03 4.48-4.51 4.47c-2.48 0-4.48-2.03-4.47-4.51 0-2.48 2.03-4.48 4.51-4.47"></path>
    <path class="cls-14" d="M538.06,84.71l-15.64,7.3-12.72-27.26c-2.01-4.32-.15-9.45,4.17-11.47s9.45-.15,11.47,4.17l12.72,27.26Z"></path>
    <path class="cls-9" d="m585.69 80.1v46.03c0 11.57-9.38 20.97-20.97 20.97h-38.23c-11.59 0-21-9.4-21-20.97v-46.03h80.2z"></path>
    <path class="cls-26" d="m589.56 89.06h-87.94c-2.56 0-4.63-2.07-4.63-4.63s2.07-4.63 4.63-4.63h87.94c2.56 0 4.63 2.07 4.63 4.63s-2.07 4.63-4.63 4.63"></path>
    <rect class="cls-26" x="505.49" y="103.57" width="80.2" height="21.32"></rect>
    <rect class="cls-7" x="505.47" y="89.06" width="80.22" height="6.94"></rect>
    <path class="cls-26" d="m546.19 136.11c-7.93 0-14.36-6.43-14.36-14.36v-10.88c0-7.93 6.43-14.36 14.36-14.36s14.36 6.43 14.36 14.36v10.88c0 7.93-6.43 14.36-14.36 14.36"></path>
    <path class="cls-9" d="M511.13,119.15c.34.13.71.22,1.21.22,1.65,0,1.65-1.32,1.65-2.23v-8.42h2.54v9.64c0,1.34-.87,3.22-3.46,3.22-.69,0-1.23-.05-1.94-.24v-2.19Z"></path>
    <path class="cls-9" d="m525 108.5c3.97 0 6.19 2.68 6.19 6.5s-2.19 6.57-6.19 6.57-6.19-2.7-6.19-6.57 2.17-6.5 6.19-6.5zm0 11.09c2.59 0 3.55-2.3 3.55-4.58s-1.03-4.51-3.55-4.51-3.55 2.28-3.55 4.51 0.96 4.58 3.55 4.58z"></path>
    <path class="cls-9" d="M543.56,111.17c-.98-.45-2.25-.67-3.26-.67-2.95,0-4.58,1.99-4.58,4.58s1.59,4.51,4.29,4.51c.69,0,1.23-.07,1.67-.18v-3.3h-2.68v-1.99h5.11v6.81c-1.34.36-2.74.65-4.09.65-4.09,0-6.94-2.05-6.94-6.32s2.64-6.76,6.94-6.76c1.47,0,2.63.2,3.71.53l-.16,2.14Z"></path>
    <path class="cls-9" d="M546.86,108.72h2.54v7.3c0,2.16.69,3.57,2.63,3.57s2.63-1.41,2.63-3.57v-7.3h2.54v8.08c0,3.39-1.92,4.78-5.16,4.78s-5.16-1.39-5.16-4.78v-8.08Z"></path>
    <path class="cls-9" d="M559.99,108.72h2.73c2.72,0,5.96-.09,5.96,3.42,0,1.49-1,2.72-2.61,2.93v.04c.69.05,1.09.74,1.34,1.3l2.03,4.94h-2.83l-1.52-3.95c-.36-.94-.69-1.3-1.76-1.3h-.82v5.25h-2.54v-12.64ZM562.52,114.12h.83c1.25,0,2.68-.18,2.68-1.76s-1.41-1.65-2.68-1.65h-.83v3.41Z"></path>
    <path class="cls-9" d="m573.75 110.71h-3.62v-1.99h9.78v1.99h-3.62v10.65h-2.54v-10.65z"></path>
    <path class="cls-12" d="M521.99,210.47c.15-.11.22-.23.22-.34,0-1.91-20.31-3.45-45.37-3.45s-45.37,1.55-45.37,3.45c0,.12.08.23.22.34,2.28,1.74,21.62,3.1,45.15,3.1s42.87-1.36,45.15-3.1"></path>
    <polygon class="cls-11" points="501.53 224.14 501.55 224.17 502.48 226.13 503.93 226.27 504.8 225.58 503.75 224.14"></polygon>
    <polygon class="cls-11" points="494.47 224.56 494.49 224.6 495.6 226.67 497.17 226.74 498.08 225.96 496.86 224.45"></polygon>
    <path class="cls-20" d="M521.99,210.47c-2.28,1.74-21.62,3.1-45.15,3.1s-42.87-1.36-45.15-3.1h-.36l11.62,107.26c.36,3.29,15.53,5.91,33.89,5.91s33.53-2.62,33.89-5.91l11.62-107.26h-.36Z"></path>
    <path class="cls-26" d="M434.25,276.81c-.22,0-.4.18-.4.4s.18.4.4.4.4-.18.4-.4-.18-.4-.4-.4"></path>
    <path class="cls-20" d="M522.35,210.47h-.36c-2.28,1.74-21.62,3.11-45.15,3.11s-42.87-1.36-45.15-3.11h-.36l11.62,107.26c.36,3.29,15.53,5.91,33.89,5.91s33.53-2.62,33.89-5.91l11.62-107.26ZM459.75,227.45c5.15-.19,11-.3,17.19-.3,6.92,0,13.4.14,18.97.37,11.19.43,18.71,1.21,18.71,2.11,0,.06-.04.13-.11.19,0,0,0,.02,0,.03,0,.09-.06.18-.18.27h.3l-9.62,84.03c-.3,2.58-12.85,4.63-28.06,4.63s-27.76-2.05-28.06-4.63l-9.62-84.03h.3c-.07-.05-.12-.1-.15-.15-.24-.11-.36-.22-.36-.34,0-.95,8.41-1.78,20.69-2.18"></path>
    <path class="cls-24" d="M476.95,227.15c-6.2,0-12.04.11-17.19.3,5.13-.17,10.94-.26,17.09-.26,6.96,0,13.48.12,19.07.33-5.57-.23-12.05-.37-18.97-.37M514.51,229.83c-1.51,1.26-17.8,2.26-37.67,2.26s-34.88-.92-37.42-2.11c.03.05.08.1.15.15h-.3l9.62,84.03c.3,2.58,12.85,4.63,28.06,4.63s27.76-2.05,28.06-4.63l9.62-84.03h-.3c.12-.09.19-.18.19-.27,0,0,0-.02,0-.03"></path>
    <path class="cls-17" d="M459.75,227.45c-12.28.4-20.69,1.23-20.69,2.18,0,.11.12.23.36.34-.02-.04-.04-.08-.04-.12,0-1.05,8.27-1.96,20.37-2.4M495.91,227.52c11.02.46,18.45,1.32,18.59,2.31.08-.06.11-.13.11-.19,0-.9-7.52-1.69-18.71-2.11"></path>
    <path class="cls-26" d="M476.84,227.19c-6.15,0-11.96.1-17.09.26-12.1.45-20.37,1.36-20.37,2.4,0,.04.01.08.04.12,2.54,1.19,18.33,2.11,37.42,2.11s36.16-1,37.67-2.26c-.14-.98-7.57-1.84-18.59-2.3-5.6-.21-12.12-.33-19.07-.33"></path>
    <g class="cls-34" clip-path="url(#a)">
      <path class="cls-26" d="M141.89,220.7c-1.85.93-34.23.83-63.15.56-23.89-.22-45.4-.56-45.4-.56,0,0-8.73-16.98,0-23.67,8.77-6.7,14.41-1.54,18.52-8.24,4.14-6.67,3.09-10.28,12.87-9.75,3.71.19,6.61-1.25,9.85-2.68,5.31-2.35,11.52-4.7,23.64.09,1.73.68,3.18,1.36,4.38,2.07,11.11,6.26,3.3,12.59,13.58,15.03,1.36.34,3.03.59,5.12.77,10.46.89,15.62,3.09,18.15,5.43,2.22,1.97,2.44,4.07,2.44,5.52,0,3.09,3.36,13.73,0,15.43"></path>
      <path class="cls-4" d="M43.23,193.05c1.64-.42,3.55-.88,5.78-1.38,0,0,0,0,.01,0-1.68.95-3.59,1.07-5.79,1.37M33.35,197.02c-.03-.05-.27-.62,2.77-1.81-.89.48-1.81,1.07-2.77,1.81"></path>
      <path class="cls-4" d="M96.66,196.93c-.07,0-.37-.15-.94-.54-.17-.12-.33-.22-.49-.32.18.07.35.14.5.22.67.32,1.04.65.93.65M72.87,205.05c-3.57,0-7.76-.66-12.64-2.23-15.95-5.14-26.87-5.79-26.87-5.79,0,0,0,0,0,0,.96-.73,1.88-1.32,2.77-1.8,1.47-.57,3.71-1.29,7.1-2.17,2.2-.3,4.11-.42,5.79-1.37.44.24,11.52,6.25,23.28,6.25,1.63,0,3.27-.12,4.9-.38,8.54-1.37,12.33-2.39,14.8-2.39,1.28,0,2.2.27,3.23.91-.61-.24-1.37-.43-2.2-.43-1.37,0-2.93.53-4.26,2.29-2.85,3.75-7.81,7.12-15.9,7.12"></path>
      <path class="cls-4" d="M103.39,195.63c-2.89,0-1.35-2.24,1.07-5.42,2.59-3.33-1.85-11.7-1.85-11.7,11.11,6.26,3.3,12.59,13.58,15.03,0,0-8.64,1.82-12.25,2.07-.2.02-.38.02-.54.02"></path>
      <path class="cls-4" d="M143.19,213.82h-71.15c7.18-1.44,18.16-3.83,24.63-6.12,4.39-1.55,5.87-1.96,7.53-1.96.91,0,1.86.12,3.38.25,1.52.12,3.59.24,6.74.24,1.32,0,2.82-.02,4.54-.07,16.94-.49,20.37-6.08,20.59-6.42,2.22,1.97,2.44,4.07,2.44,5.52,0,1.59.9,5.2,1.3,8.55"></path>
      <path class="cls-13" d="M120.6,272.65c-1.36,1.1-3.94,1.96-5.68,1.96h-55.87c-1.75,0-3.47-.56-4.91-1.56-2.29-1.6-3.31-2.76-5.82-4.67-19-14.45-22.78-44.49-23.46-52.55-.09-1.1.78-2.02,1.88-2.02h121.08c1.03,0,1.86.8,1.89,1.83.15,7.22-1.27,34.47-29.11,57.01"></path>
      <path class="cls-5" d="M149.14,224.46c.55-3.93.61-7,.57-8.81-.02-1.03-.86-1.83-1.89-1.83h.94c.49,0,.89.38.92.87.09,1.53.15,4.99-.55,9.77M53.9,272.89c-3.88-2.73-13.26-10.07-16.91-17.26,2.99,4.82,6.71,9.25,11.33,12.77,2.42,1.84,3.45,2.98,5.58,4.5M115.57,274.62h-57.1c-1.25,0-2.5-.34-3.54-1.03-.18-.12-.4-.27-.65-.44,1.41.94,3.07,1.47,4.77,1.47h55.87c1.59,0,3.88-.72,5.3-1.68-1.1.93-3.2,1.68-4.64,1.68"></path>
      <path class="cls-16" d="M114.92,274.62h-55.87c-1.7,0-3.36-.52-4.76-1.47-.12-.08-.25-.17-.38-.27-2.12-1.51-3.16-2.66-5.58-4.5-4.62-3.51-8.34-7.95-11.33-12.77-.02-.03-.03-.06-.05-.1,6.54,2.4,15.12,4.4,27.2,4.4,4.8,0,10.15-.32,16.14-1.05,48-5.85,62.94-44.82,63.06-45.06h4.48c1.03,0,1.86.8,1.88,1.83.04,1.81-.02,4.87-.57,8.81-1.69,11.51-7.85,30.61-28.93,48.48-1.42.96-3.7,1.68-5.3,1.68"></path>
      <path class="cls-26" d="M70.97,189.84c-2.07,0-4.13-.16-5.96-.4-5.77-.77-2.46-2.57,0-7.2.58-1.1,1.24-1.48,1.95-1.48.79,0,1.65.47,2.53.94.89.47,1.81.94,2.72.94.81,0,1.62-.37,2.41-1.44,2.29-3.1,5.92-4.01,9.34-4.01,3.11,0,6.05.75,7.64,1.3,3.34,1.15-5.66,5.53-9.26,8.56-2.46,2.06-6.94,2.78-11.38,2.78"></path>
    </g>
    <ellipse class="cls-33" cx="67.3" cy="189.86" rx="3.66" ry="2.29"></ellipse>
    <ellipse class="cls-33" cx="76.34" cy="178.76" rx="3.66" ry="2.29"></ellipse>
    <ellipse class="cls-33" cx="106.59" cy="197.67" rx="3.66" ry="2.29"></ellipse>
    <ellipse class="cls-33" cx="79.99" cy="207.02" rx="3.66" ry="2.29"></ellipse>
    <ellipse class="cls-33" cx="93.29" cy="192.96" rx="3.66" ry="2.29"></ellipse>
    <ellipse class="cls-33" cx="91.22" cy="182.65" rx="3.66" ry="2.29"></ellipse>
    <ellipse class="cls-33" cx="48.02" cy="200.59" rx="3.66" ry="2.29"></ellipse>
    <ellipse class="cls-33" cx="132.82" cy="202.87" rx="3.66" ry="2.29"></ellipse>
    <path class="cls-8" d="M481.52,441.28c2.23-46.87-6.87-93.5-26.56-136.08-.36-.79-1.16-1.17-1.95-.81-.78.24-1.17,1.16-.91,1.82,12.67,43.53,25.63,91.27,16.96,134.03l12.47,1.05Z"></path>
    <path class="cls-21" d="M461.39,435.11c5.72-54.77,35.41-109.07,66.24-157.54.36-.68.11-1.45-.44-1.79s-1.2-.19-1.63.23c-36.02,45.67-61.45,98.7-74.57,155.2l10.41,3.9Z"></path>
    <path class="cls-10" d="M471.54,441.62c27.32-50.27,34.6-113.86,37.62-173.12,0-.74.69-1.24,1.43-1.24.6.1,1.14.55,1.16,1.17,2.86,60.09-7.14,120.05-29.34,175.81l-10.86-2.63Z"></path>
    <path class="cls-10" d="m487.14 446.02c3.01-45.64 1.14-91.46-5.72-136.74-0.12-0.76-0.9-1.25-1.54-1.11s-1.09 0.68-1.07 1.3c1.09 45.32 7.02 91.8-2.73 135.12l11.05 1.43z"></path>
    <path class="cls-10" d="M501.18,432.82c7.2-48.02,19.28-95.13,36.13-140.6.24-.7,1.03-1.06,1.73-.82s1.06,1.03.84,1.61c-11.17,46.76-27.39,93.69-27.47,140.91l-11.23-1.09Z"></path>
    <path class="cls-21" d="M437.2,434.94c7.37-50.57,19.62-100.23,36.54-148.39.24-.7.93-1.2,1.75-.94.7.24,1.2.93.94,1.75l-.02.12c-11.24,49.45-27.63,98.92-28,148.67l-11.21-1.21Z"></path>
    <path class="cls-21" d="M491.77,435.59c.94-14.08-1.69-4.69,10.5-43.44,12.19-38.75,47.88-92.19,53.34-101.61.18-.34,0-.74-.34-.91-.24-.04-.48-.08-.76.12-6.66,8.49-13.13,17.37-19.35,26.17-8.14,11.56-16.49,22.96-23.91,35.37-3.72,6.27-7.12,12.83-10.06,19.59-2.82,6.78-5.42,13.72-7.54,20.73-4.25,14.03-7.16,28.16-10.15,42.02l8.27,1.96Z"></path>
    <path class="cls-8" d="M538.06,460.01c2.16-32.89,4.26-66.17,2.58-99.56-.72-16.68-2.81-33.21-6.16-49.58-3.46-15.65-3.99-16.97-6.69-25.26-.24-.78-1.02-1.27-1.68-1.01-.78.24-1.27,1.02-1.01,1.68,1.68,8.49,1.16,5.71,3.46,25.47,2.31,19.76,8.43,115.59,2.32,147.84l7.17.43Z"></path>
    <path class="cls-8" d="M513.27,461.64c7.03-56.03,37.9-109.28,67.63-159.28.32-.44.18-1.08-.38-1.41-.44-.32-1.08-.18-1.39.26-35.41,47.24-61.2,100.94-75.8,158.19l9.94,2.23Z"></path>
    <path class="cls-21" d="M519.3,466.17c17.98-52.05,59.2-98.21,100.21-138.44.5-.58.44-1.39-.03-1.84s-1.12-.46-1.64-.15c-45.42,36.32-82.21,82.21-107.8,134.27l9.25,6.16Z"></path>
    <path class="cls-10" d="M444.54,441.99c3.48-52.75,1.32-105.71-6.61-158.05-.14-.87-1.04-1.45-1.78-1.28-.74.16-1.26.79-1.24,1.5,1.26,52.39,8.12,106.11-3.15,156.18l12.78,1.65Z"></path>
    <path class="cls-8" d="M404.66,446.56c-22.96-40.92-55.39-75.63-94.66-101.3-.73-.48-1.6-.38-2.09.35-.53.62-.38,1.6.19,2.02,33.82,30.19,70.12,63.8,85.43,104.65l11.12-5.72Z"></path>
    <path class="cls-21" d="M384.32,452c-24.18-49.47-27.79-111.25-27.35-168.7-.06-.76-.67-1.29-1.33-1.28s-1.12.47-1.26,1.06c-6.33,57.81.22,116.26,19.05,171.13l10.89-2.21Z"></path>
    <path class="cls-10" d="M396.38,452.14c-3.49-57.11-31.03-114.89-59.88-166.73-.39-.62-.07-1.42.55-1.81.56-.23,1.26-.13,1.6.38,34.28,49.43,57.59,105.58,68.32,164.63l-10.6,3.53Z"></path>
    <path class="cls-10" d="M411.93,447.61c-21.64-40.29-47.52-78.15-77.34-112.91-.5-.58-1.43-.58-1.89-.13-.46.46-.57,1.16-.22,1.67,24.95,37.85,54.62,74.12,69.32,116.01l10.13-4.65Z"></path>
    <path class="cls-10" d="M416.84,428.97c-19.35-44.54-34.08-90.88-43.91-138.37-.17-.72.31-1.44,1.03-1.61s1.44.31,1.57.92c15.32,45.57,26.44,93.96,51.41,134.04l-10.1,5.03Z"></path>
    <path class="cls-21" d="M363.71,464.69c-20.56-46.79-36.5-95.39-47.69-145.19-.17-.72.15-1.51.98-1.73.72-.17,1.51.15,1.73.98l.05.11c16.69,47.89,29.02,98.53,55.08,140.9l-10.15,4.92Z"></path>
    <path class="cls-21" d="M410.33,436.3c-6.67-12.44-3.92-3.08-14.12-42.4-10.2-39.32-8.28-103.56-8.64-114.43-.03-.38-.39-.62-.77-.59-.22.09-.45.19-.58.5-1.14,10.72-1.93,21.69-2.53,32.45-.77,14.11-1.82,28.21-1.53,42.66.17,7.28.77,14.65,1.86,21.94,1.2,7.24,2.67,14.5,4.59,21.58,3.84,14.15,8.86,27.67,13.67,41.01l8.05-2.72Z"></path>
    <path class="cls-8" d="m462.53 432.47c-15.6-29.04-31.46-58.36-50.59-85.79-9.45-13.76-20-26.67-31.51-38.78-11.24-11.44-12.37-12.27-19.06-17.87-0.62-0.53-1.54-0.54-1.96 0.03-0.53 0.62-0.54 1.54 0.03 1.96 5.93 6.31 4.01 4.23 16.44 19.76s68.42 93.54 80.34 124.12l6.31-3.44z"></path>
    <path class="cls-8" d="M442.37,446.99c-23.74-51.23-25.8-112.75-27.1-170.91.04-.54-.42-1-1.07-.99-.54-.04-1,.42-1.04.96-4.98,58.83,1.62,118.04,19.6,174.32l9.61-3.38Z"></path>
    <path class="cls-21" d="M449.88,447.64c-12.35-53.66-1.87-114.66,11.58-170.51.12-.76-.36-1.41-1-1.55s-1.19.2-1.47.74c-19.26,54.88-26.13,113.29-20.22,171l11.11.32Z"></path>
    <path class="cls-10" d="m373.68 466.77c-25.02-46.57-54.92-90.33-89.4-130.51-0.58-0.67-1.65-0.67-2.19-0.14s-0.65 1.34-0.25 1.93c28.84 43.75 63.14 85.67 80.13 134.1l11.71-5.37z"></path>
  </g>
  <metadata></metadata>
</svg>
