<?xml version="1.0" encoding="UTF-8"?>
<svg xmlns="http://www.w3.org/2000/svg" xmlns:cc="http://creativecommons.org/ns#" xmlns:dc="http://purl.org/dc/elements/1.1/" xmlns:rdf="http://www.w3.org/1999/02/22-rdf-syntax-ns#" version="1.1" viewBox="0 0 745.51 419.53">
  <title>Symboliserte Wellen, darin schwimmt ein Fisch eine Muschel ein Scampi</title>
  <defs>
    <style>.cls-1{clip-path:url(#c);}.cls-2,.cls-3,.cls-4,.cls-5{fill:none;}.cls-2,.cls-6,.cls-7,.cls-8,.cls-9,.cls-10,.cls-11,.cls-12,.cls-13,.cls-14,.cls-15,.cls-16,.cls-17,.cls-18,.cls-19,.cls-20,.cls-21,.cls-22{stroke-width:0px;}.cls-3{stroke-width:3.21px;}.cls-3,.cls-4{stroke:#e8e8e8;}.cls-3,.cls-4,.cls-5{stroke-linecap:round;stroke-linejoin:round;}.cls-23{clip-path:url(#b);}.cls-24{clip-path:url(#a);}.cls-4{stroke-width:1.61px;}.cls-5{stroke:#858585;stroke-width:4px;}.cls-6{fill:#f8e7c0;}.cls-7{fill:#525394;}.cls-8{fill:#4f616c;}.cls-9{fill:#2c295b;}.cls-10{fill:#272426;}.cls-11{fill:#364353;}.cls-12{fill:#222;}.cls-13{fill:#e38365;}.cls-14{fill:#dec099;}.cls-15{fill:#c5c5c5;}.cls-16{fill:#e0a497;}.cls-17{fill:#db8b72;}.cls-18{fill:#bddce7;}.cls-19{fill:#b32f0b;}.cls-20{fill:#d06a6c;}.cls-21{fill:#fff;}.cls-22{fill:#e8a38e;}</style>
    <clipPath id="c">
      <rect class="cls-2" width="745.51" height="419.53"></rect>
    </clipPath>
    <clipPath id="b">
      <path class="cls-2" d="M496.57,266.66c-38.67,6.48-67.75,22.6-102.2,41.74-16.75,9.26-29.94,17.88-38.67,23.79l5.32,5.73-5.6,5.71,10.32,5.03c42.84,2.28,78.7,2.01,105.06,1.23,0,0,41.89-1.33,136.77-18.28,10.99-1.89,32.84-6.07,51.73-23.05,2.8-2.42,5.39-5.06,7.75-7.91l-4.71-5.22c.72-1.71,1.31-3.37,2.08-4.94-27.04-10.48-55.18-17.82-83.81-21.94-16.94-2.37-33.21-4.67-51.05-4.67-10.33,0-21.19.77-33,2.76"></path>
    </clipPath>
    <clipPath id="a">
      <path class="cls-2" d="M107.41,136.19c-2.76-.36-10.09-1.44-14.89-6.96-2.88-3.36-5.64-9.24-3.84-13.81,2.52-6.36,12.85-7.8,18.61-8.52,28.93-3.6,43.46-5.4,61.95-6.96,32.18-2.64,28.33-12.97,57.27-15.73,4.32-.36,46.34-3.84,83.32,22.45,16.21,11.53,37.46,32.9,32.3,43.82-.6,1.2-2.76,5.04-18.73,7.32-25.45,3.6-42.62-3-72.16-7.68-12.85-2.04-22.09-2.76-33.62-3.6,0-.12-75.16-5.88-110.22-10.33Z"></path>
    </clipPath>
  </defs>
  <g class="cls-1" clip-path="url(#c)">
    <rect class="cls-18" width="745.51" height="419.53"></rect>
    <path class="cls-7" d="M-121.4,133.17c24.56-25.08,54.67-45.36,88.49-55.5,33.45-10.03,68.34-8.58,100.47,5.28,17.74,7.65,34.29,17.7,51.24,26.9s32.77,16.46,50.36,21.82c33.52,10.21,70.32,12.45,103.82.91,17.18-5.92,32.72-15.51,47.17-26.41,9.67-7.29,18.32-15.64,27.49-23.51,17.64-15.15,42.6-21.67,65.41-16.79,25.64,5.49,47.37,22.64,68.12,37.71,25.56,18.56,51.65,36.37,81.43,47.53,53.94,20.2,112.87,15.72,166.88-1.88,9.59-3.12,19.03-6.65,28.36-10.47,3.53-1.44,1.98-7.25-1.6-5.79-57.37,23.48-121.41,35.01-181.72,15.92-29.06-9.2-54.99-25.17-79.64-42.78-21.75-15.54-43.16-33.44-68.6-42.66-22.85-8.29-49.17-6.37-70.36,5.84-8.7,5.01-15.87,12.14-23.29,18.81-12.09,10.86-25.23,20.68-39.36,28.75-32.42,18.52-70.95,21.13-106.91,13.14-18.08-4.02-35.52-10.51-52.07-18.79-17.3-8.66-33.77-18.87-51.08-27.52-15.92-7.96-32.58-14.44-50.26-17.09-15.91-2.39-32.02-2.05-47.87.67-33.84,5.8-65.25,22.31-91.58,44.01-6.71,5.53-13.08,11.45-19.17,17.66-2.7,2.76,1.54,7.01,4.24,4.24h0Z"></path>
    <path class="cls-7" d="M-81.86,229.67c24.56-25.08,54.67-45.36,88.49-55.5s68.34-8.58,100.47,5.28c17.74,7.65,34.29,17.7,51.24,26.9s32.77,16.46,50.36,21.82c33.52,10.21,70.32,12.45,103.82.91,17.18-5.92,32.72-15.51,47.17-26.41,9.67-7.29,18.32-15.64,27.49-23.51,17.64-15.15,42.6-21.67,65.41-16.79,25.64,5.49,47.37,22.64,68.12,37.71,25.56,18.56,51.65,36.37,81.43,47.53,53.94,20.2,112.87,15.72,166.88-1.88,9.59-3.12,19.03-6.65,28.36-10.47,3.53-1.44,1.98-7.25-1.6-5.79-57.37,23.48-121.41,35.01-181.72,15.92-29.06-9.2-54.99-25.17-79.64-42.78-21.75-15.54-43.16-33.44-68.6-42.66-22.85-8.29-49.17-6.37-70.36,5.84-8.7,5.01-15.87,12.14-23.29,18.81-12.09,10.86-25.23,20.68-39.36,28.75-32.42,18.52-70.95,21.13-106.91,13.14-18.08-4.02-35.52-10.51-52.07-18.79s-33.77-18.87-51.08-27.52c-15.92-7.96-32.58-14.44-50.26-17.09-15.91-2.39-32.02-2.05-47.87.67-33.84,5.8-65.25,22.31-91.58,44.01-6.71,5.53-13.08,11.45-19.17,17.66-2.7,2.76,1.54,7.01,4.24,4.24h0Z"></path>
    <path class="cls-7" d="M-9.42,337.68c24.56-25.08,54.67-45.36,88.49-55.5,33.45-10.03,68.34-8.58,100.47,5.28,17.74,7.65,34.29,17.7,51.24,26.9,16.14,8.76,32.77,16.46,50.36,21.82,33.52,10.21,70.32,12.45,103.82.91,17.18-5.92,32.72-15.51,47.17-26.41,9.67-7.29,18.32-15.64,27.49-23.51,17.64-15.15,42.6-21.67,65.41-16.79,25.64,5.49,47.37,22.64,68.12,37.71,25.56,18.56,51.65,36.37,81.43,47.53,53.94,20.2,112.87,15.72,166.88-1.88,9.59-3.12,19.03-6.65,28.36-10.47,3.53-1.44,1.98-7.25-1.6-5.79-57.37,23.48-121.41,35.01-181.72,15.92-29.06-9.2-54.99-25.17-79.64-42.78-21.75-15.54-43.16-33.44-68.6-42.66-22.85-8.29-49.17-6.37-70.36,5.84-8.7,5.01-15.87,12.14-23.29,18.81-12.09,10.86-25.23,20.68-39.36,28.75-32.42,18.52-70.95,21.13-106.91,13.14-18.08-4.02-35.52-10.51-52.07-18.79-17.3-8.66-33.77-18.87-51.08-27.52-15.92-7.96-32.58-14.44-50.26-17.09-15.91-2.39-32.02-2.05-47.87.67-33.84,5.8-65.25,22.31-91.58,44.01-6.71,5.53-13.08,11.45-19.17,17.66-2.7,2.76,1.54,7.01,4.24,4.24h0Z"></path>
    <path class="cls-19" d="M145.93,324.82s-.05-.27,0-.95c0-.35.05-.72.14-1.13.09-.41.12-.93.3-1.43.3-1.04.69-2.28,1.35-3.61.54-1.39,1.44-2.79,2.33-4.36.92-1.56,2.13-3.1,3.3-4.81,1.28-1.62,2.71-3.29,4.14-5.03,1.55-1.69,3.11-3.36,4.94-4.98,1.79-1.62,3.73-3.12,5.76-4.51,2.04-1.38,4.18-2.64,6.41-3.68,2.17-1.13,4.65-1.73,6.38-3.06,1.82-1.29,3.2-3,4.04-4.81.83-1.81,1.13-3.74,1.59-5.45,1.68-6.88,2.81-11.47,2.81-11.47,0,0-1,4.62-2.5,11.54-.41,1.72-.65,3.64-1.46,5.55-.82,1.89-2.19,3.7-4.06,5.1-1.9,1.49-4.29,2.1-6.38,3.26-2.16,1.07-4.23,2.36-6.19,3.76-1.95,1.41-3.83,2.94-5.52,4.55-1.71,1.57-3.28,3.34-4.72,5-1.37,1.75-2.72,3.43-3.94,5.06-1.09,1.7-2.24,3.25-3.09,4.78-.81,1.54-1.66,2.92-2.13,4.24-.6,1.28-.91,2.44-1.17,3.4-.21.93-.34,1.74-.33,2.17-.03.42.02.75.02.75l-1.98.13Z"></path>
    <path class="cls-22" d="M127.54,284.67c-4.27,2.38-8.72,5.08-13.25,8.13-1.58,1.06-2.97,2.12-4.23,3.19,2.75,1.14,5.72,1.56,7.72,2.32,3.68-3.26,8.08-6.5,12.44-9.44-.84-1.57-1.74-2.96-2.68-4.2"></path>
    <path class="cls-22" d="m114.29 292.8c4.53-3.05 8.97-5.75 13.25-8.13-1.02-1.35-2.07-2.53-3.16-3.53-6.17 3.1-12.87 7.21-18.29 12.29 1.14 1.17 2.53 1.96 3.98 2.56 1.26-1.06 2.66-2.13 4.23-3.19"></path>
    <path class="cls-22" d="M103.1,334.9c1.71-2.32,3.62-4.61,5.62-6.73-4.22-4.28-7.37-9.39-7.72-14.89-1.94.38-3.89.78-5.81,1.34-.11,6.11,2.17,12.87,7.91,20.28"></path>
    <path class="cls-22" d="M108.73,328.17c2.25-2.39,4.62-4.57,7.02-6.37-.29-.17-.56-.34-.77-.54-5.73-5.36-2.06-1.12-5.41-7.07-.48-.85-.68-1.77-.68-2.72-2.5.78-5.18,1.27-7.88,1.81.36,5.5,3.5,10.61,7.72,14.89"></path>
    <path class="cls-22" d="M149.11,328.25c-3.13-3.67-4.84-6.86-5.37-9.67-2.51,1.17-5.68,2.19-9.02,2.95,1.59,3.87.59,9.57-.47,15.88,4.43-1.86,9.4-5.15,14.86-9.16"></path>
    <path class="cls-22" d="M149.24,328.41c-.05-.06-.08-.11-.13-.16-5.46,4.01-10.43,7.3-14.86,9.16-.71,4.26-1.46,8.79-1.46,13.22,9.05-.78,18.31-4.65,25.94-8.11-1.53-3.57-4.39-8.19-9.5-14.11"></path>
    <path class="cls-13" d="M150.82,273.7c-1.38-.73-5.36-.32-8.84.45-1.89.42-9.26,2.78-17.61,6.98,1.09,1,2.15,2.18,3.16,3.53,8.78-4.89,16.81-8.46,23.28-10.96"></path>
    <path class="cls-13" d="M127.54,284.67c.94,1.24,1.83,2.63,2.68,4.2,6.33-4.27,12.52-7.91,16.13-10.07,4.88-2.93,5.68-4.45,4.47-5.09-6.47,2.5-14.5,6.07-23.28,10.96"></path>
    <path class="cls-13" d="M196.8,297.34c4.18,2.7,6.89,7.24,8.63,11.92,8.82-8.45,23.03-17.29,30.03-19.78,1.63-.58,2.53-1.03,2.95-1.38-6.42-.35-18.96.66-40.04,8.61-.53.2-1.04.42-1.56.62"></path>
    <path class="cls-13" d="M196.8,297.34c-18.25,7.31-34.42,21.17-47.69,30.91.05.06.08.11.13.17,5.11,5.92,7.97,10.54,9.5,14.11,2.01-.91,3.9-1.79,5.64-2.58,13.85-6.27,29.09-15.85,36.35-25.52,1.25-1.67,2.87-3.41,4.7-5.17-1.74-4.68-4.45-9.22-8.63-11.92"></path>
    <path class="cls-13" d="M149.11,328.25c13.27-9.74,29.43-23.6,47.69-30.91.52-.21,1.04-.43,1.56-.63,21.09-7.95,33.62-8.96,40.04-8.61,1.73-1.44-5.28-1.1-5.28-1.1,0,0-23.61,2.2-44.66,6.81-2.03.45-4.23,1.11-6.49,1.91-12.51,4.39-27.56,13.47-34.14,20.22-.92.94-2.34,1.83-4.09,2.65.53,2.81,2.24,6,5.37,9.67"></path>
    <path class="cls-13" d="M123.21,338.2c-4.75-2.17-10.17-5.67-14.48-10.03-2,2.12-3.91,4.41-5.62,6.73,2.35,3.03,5.26,6.16,8.84,9.4,6.11,5.53,13.41,6.98,20.86,6.34,0-4.43.74-8.96,1.46-13.22-4.18,1.75-7.88,2.24-11.05.79"></path>
    <path class="cls-13" d="M123.21,338.2c3.17,1.45,6.87.97,11.05-.79,1.06-6.31,2.06-12.01.47-15.88-7.43,1.7-15.63,2.14-18.98.26-2.4,1.8-4.77,3.98-7.02,6.37,4.31,4.36,9.74,7.86,14.48,10.03"></path>
    <path class="cls-13" d="M110.06,295.99c-6.96,5.86-9.42,11.77-9.06,17.29,2.71-.53,5.38-1.03,7.88-1.81-.01-3.91,3.7-8.55,8.9-13.16-2-.76-4.97-1.18-7.72-2.32"></path>
    <path class="cls-13" d="M110.06,295.99c-1.45-.6-2.84-1.39-3.98-2.56-6.21,5.81-10.74,12.9-10.89,21.19,1.92-.56,3.87-.96,5.81-1.34-.36-5.52,2.09-11.43,9.06-17.29"></path>
    <path class="cls-10" d="M200.92,313.37c-1.08-1.14-.99-2.85.2-3.81,1.18-.96,3.02-.8,4.1.34,1.08,1.14.99,2.85-.2,3.81-1.18.95-3.02.8-4.1-.34"></path>
    <path class="cls-14" d="m534.27 267.5-48.06-27.99s5.76 10.39 1.71 13.82c-3.58 3.13-18.18 5.53-18.18 5.53l2.6 7.55-6.38 2.19 6.48 9.12 61.83-10.23z"></path>
    <polygon class="cls-14" points="369.95 330.05 320.46 324.53 332.28 340.26 324.7 366.44 381.22 342.47"></polygon>
    <path class="cls-15" d="M662.36,295.44c.72-1.71,1.32-3.37,2.08-4.94-27.04-10.48-55.18-17.82-83.81-21.93-26.76-3.74-51.86-7.32-84.05-1.91-38.67,6.47-67.75,22.6-102.2,41.74-16.75,9.26-29.94,17.88-38.67,23.79l5.32,5.74-5.6,5.71,10.32,5.03c42.84,2.28,78.7,2.01,105.06,1.23,0,0,41.89-1.33,136.77-18.28,10.99-1.89,32.84-6.07,51.73-23.05,2.81-2.42,5.39-5.06,7.75-7.91l-4.71-5.22Z"></path>
    <g class="cls-23" clip-path="url(#b)">
      <path class="cls-9" d="M675.11,295.27c-3.23,7.95-46.69-13.03-112.45-12.95-38.56.03-67.47,7.37-95.08,14.25-81.7,20.56-127.34,52.87-131.23,46.64-3.54-5.62,30.72-35.47,63.3-55.41,24.57-14.87,51.09-26.18,79.05-33.33,15.89-4.16,40.5-10.45,73.41-9.56,17.76.43,46.62,1.41,78.58,16.46,20.98,9.8,47.05,27.61,44.42,33.9"></path>
    </g>
    <path class="cls-21" d="m616.69 285.4c-6.18 2.13-9.47 8.86-7.34 15.04s8.86 9.47 15.04 7.34 9.47-8.86 7.34-15.04-8.86-9.46-15.04-7.34"></path>
    <path class="cls-12" d="m618.35 290.22c-3.52 1.21-5.39 5.05-4.18 8.57s5.05 5.39 8.57 4.18 5.39-5.05 4.18-8.57-5.05-5.39-8.57-4.18"></path>
    <polygon class="cls-14" points="526.59 336.08 500.14 367.89 498.74 354.1 490.8 351.75 495.58 342.39"></polygon>
    <path class="cls-20" d="m87.96 117.46c2.52-11.53 14.53-20.17 31.94-22.33 92.81-11.41 67.11-19.57 126.18-25.09 27.97-2.64 49.1 6.36 54.75 8.4 19.21 6.96 32.3 13.69 42.02 24.01 9 9.36 11.41 22.33 8.76 32.06-10.69 39.74-42.86 25.81-65.55 18.73-97.85-30.5-200.98-21.85-198.1-35.78z"></path>
    <path class="cls-16" d="M107.41,136.19c-2.76-.36-10.09-1.44-14.89-6.96-2.88-3.36-5.64-9.24-3.84-13.81,2.52-6.36,12.85-7.8,18.61-8.52,28.93-3.6,43.46-5.4,61.95-6.96,32.18-2.64,28.33-12.97,57.27-15.73,4.32-.36,46.34-3.84,83.32,22.45,16.21,11.53,37.46,32.9,32.3,43.82-.6,1.2-2.76,5.04-18.73,7.32-25.45,3.6-42.62-3-72.16-7.68-12.85-2.04-22.09-2.76-33.62-3.6,0-.12-75.16-5.88-110.22-10.33Z"></path>
    <g class="cls-24" clip-path="url(#a)">
      <path class="cls-6" d="M318.71,189.86c-.72,0-1.44-.36-1.92-.96-.84-1.08-.72-2.64.36-3.48,15.97-12.97,30.14-27.97,42.14-44.54-19.69,16.45-40.22,32.42-63.75,43.7-1.08.48-2.4.12-3.12-.84-.72-1.08-.48-2.4.36-3.24,15.13-13.93,27.97-30.01,38.18-47.78,2.16-3.84,4.32-7.8,4.32-12.01,0-3.48-2.04-7.56-5.52-8.16-3-.6-6.48,1.56-10.33,6.36-3.24,4.08-16.09,18.01-28.57,30.74-25.21,25.57-27.85,25.09-29.65,24.73-1.2-.12-7.68.96-11.89,1.56-12.61,2.04-14.53,2.4-15.61,0-.36-.84-.36-2.16.84-3.24,82.36-70.36,87.04-88.72,88.24-100.01-31.22,36.14-75.4,76.36-110.94,91.61,1.2.72,2.4,1.8,2.04,3.48-.48,2.16-2.76,2.28-3.48,2.4-6.84.48-13.21-3.12-16.33-9.24-2.88-6.24-2.04-13.33,2.16-18.61,3.96-5.04,9.96-7.32,15.85-9.48.84-.36,1.8-.6,2.64-.96,22.57-8.52,41.66-25.45,58.47-40.46,4.32-3.84,8.64-8.04,9.12-13.09.36-4.32-2.28-9.12-6.72-11.65-3.24-1.92-7.44-3-12.37-3,.48,7.56-2.52,15.85-8.4,22.81-5.88,6.84-13.81,11.77-20.89,16.21l-24.25,15.13c-5.04,3.24-11.05,6.48-17.41,5.04-9.6-2.28-12.49-13.57-13.93-21.73l-5.4-32.66c-.84-5.4-1.92-11.05-5.16-15.25-2.76-3.48-8.52-5.4-11.89-2.76-4.44,3.36-2.52,11.17,1.08,16.93.24,0,.48.12.6.12,7.92,1.8,14.89,9.12,17.53,18.61,2.4,8.28,1.68,17.17.96,24.85-1.32,15.61-7.56,19.81-12.61,20.65-7.2,1.2-12.73-4.56-16.81-9.6-14.65-18.25-27.49-38.18-38.18-59.07-4.08,10.93-3.36,24.25,2.04,37.46,5.64,13.81,15.37,25.81,24.73,37.34l34.7,42.62c.48.48.6,1.2.6,1.92s-.36,1.32-.96,1.68c-3.84,3-9.72,3.36-15.01.96-2.76-1.32-4.8-3.24-6.84-5.16-1.2-1.2-2.4-2.28-3.72-3.24-25.21-18.13-45.5-47.3-61.83-70.84-13.33-19.09-25.09-36.02-34.7-40.1,4.08,8.76,11.29,21.85,18.25,34.58,8.4,15.37,17.05,31.22,20.65,39.98.48,1.08.12,2.28-.84,2.88-5.64,4.2-13.57,2.28-18.49-1.92-3.6-3-6-6.84-8.4-10.45-.72-1.08-1.44-2.16-2.16-3.24-10.33-15.01-26.89-24.85-45.26-26.77-1.32-.12-2.4-1.44-2.28-2.76.12-1.32,1.44-2.4,2.76-2.28,19.81,2.16,37.7,12.73,49.1,29.05.72,1.08,1.44,2.28,2.16,3.36,2.28,3.48,4.44,6.84,7.32,9.36,2.76,2.4,7.08,3.84,10.45,2.64-3.84-8.76-11.77-23.29-19.45-37.46-8.28-15.13-16.93-30.86-20.41-39.5-.24-.72-.12-1.56.36-2.28s1.2-1.08,2.04-1.08h.12c12.85,0,26.17,19.09,42.98,43.22,16.09,23.17,36.14,51.87,60.63,69.63,1.56,1.08,3,2.4,4.32,3.72,1.8,1.68,3.48,3.36,5.52,4.2,2.04.96,4.92,1.56,7.56.84l-32.78-40.22c-9.6-11.89-19.57-24.13-25.57-38.54-6.84-16.57-6.72-33.5.24-46.34.48-.84,1.32-1.32,2.28-1.32s1.8.6,2.16,1.44c10.93,21.97,24.37,43.22,39.86,62.67,3.24,3.96,7.44,8.52,12.01,7.8,6.24-.96,7.92-10.57,8.4-16.09.6-7.68,1.32-15.73-.84-23.17-1.56-5.64-4.92-10.45-9.12-13.09,2.64,4.8,4.56,10.09,2.76,15.61-1.2,3.72-4.08,6.72-8.04,8.28-4.08,1.68-8.76,1.44-12.37-.48-6.96-3.96-9.84-13.93-6.12-21.25,2.64-5.04,7.92-8.52,13.69-9.36-3.6-7.44-4.44-16.09,1.68-20.77,6-4.68,14.65-1.8,18.97,3.6,3.96,5.04,5.28,11.77,6.24,17.53l5.4,32.66c1.8,10.81,5.04,16.45,10.09,17.65,4.44,1.08,9.24-1.68,13.57-4.44l24.25-15.13c6.96-4.32,14.29-8.88,19.69-15.25,5.04-6,7.68-12.97,7.2-19.33-16.09,1.68-30.5,10.81-38.9,24.73-.36.6-.72,1.32-1.08,1.92-1.56,2.76-3.12,5.52-5.52,7.8-3.12,3-8.64,5.04-13.09,2.52s-6.12-8.04-4.92-15.73c1.92-12.49,6.12-22.81,12.61-30.74,7.92-9.6,19.09-15.01,30.01-14.41,11.65.48,22.21,8.4,25.21,18.73,6.24,0,11.65,1.2,15.85,3.72,6.12,3.6,9.72,10.09,9.12,16.45-.72,6.84-5.76,11.89-10.81,16.33-17.17,15.25-36.62,32.54-60.03,41.42-.84.36-1.8.72-2.64.96-5.4,1.92-10.45,3.84-13.57,7.8-3,3.84-3.6,8.88-1.56,13.33,1.32,2.64,3.6,4.68,6.36,5.64v-.72c.12-.96.6-2.28,2.76-3.24,37.7-15.25,86.32-60.75,117.9-99.05.84-.96,2.28-1.2,3.36-.48,1.08.72,1.44,2.16.84,3.24-1.32,2.52-1.56,4.68-1.8,7.44-1.2,11.77-2.88,29.41-84.76,100.01,1.8-.24,3.72-.6,5.28-.84,7.56-1.2,11.41-1.8,13.21-1.68,6.36-2.4,46.94-44.9,53.91-53.55,5.04-6.36,10.09-9.12,15.13-8.16,6.36,1.08,9.6,7.56,9.6,13.09s-2.52,10.09-5.04,14.41c-7.68,13.33-16.81,25.81-27.25,37.1,22.33-13.09,42.26-30.14,61.71-46.82.96-.84,2.28-.84,3.24,0,.96.84,1.2,2.16.48,3.24-14.17,23.17-32.06,43.58-53.19,60.63-.72.72-1.32.96-1.8.96ZM262.05,169.33h0ZM235.63,44.95c-9,0-18.13,4.68-24.73,12.73-5.88,7.08-9.72,16.57-11.41,28.21-.48,3.24-.84,8.76,2.4,10.69,2.16,1.2,5.28,0,7.2-1.8s3.24-4.08,4.56-6.6c.36-.72.72-1.32,1.2-2.04,9.12-15.13,24.73-25.09,42.14-27.01-2.88-7.8-11.05-13.57-20.29-14.05-.24-.12-.6-.12-1.08-.12ZM153.51,72.08c-4.8,0-9.72,2.64-11.77,6.72-2.52,5.04-.6,11.89,4.08,14.53,2.28,1.2,5.28,1.32,8.04.24,2.52-.96,4.44-2.88,5.16-5.16,1.68-5.28-1.8-10.93-5.16-16.33-.12,0-.24,0-.36,0Z"></path>
    </g>
    <path class="cls-5" d="M92.4,129.23c10.69,12.37,100.49,12.73,125.1,17.17,30.26,5.4,44.06,5.04,74.2,10.93,3.48.72,23.77,2.88,30.62,2.4,6.6-.36,16.81-4.56,21.01-7.68"></path>
    <path class="cls-11" d="M583.92,165.53c-14.44.3-17.33-.83-24.42,1.65-6.92,2.42-10.28,5.64-15.26,4.27-5.05-1.39-8.66-6.66-9.67-11.44-1.72-8.19,4.15-15.18,7.34-18.97,6.45-7.68,15.41-8.83,25.94-16.74,13.42-10.08,7.02-13.32,18.91-19.66,3.27-1.74,9.8-5.14,18.7-5.61,2.43-.13,24.8-.98,33.76,15.2,5.99,10.82,2.19,22.4,1.36,24.92-4.94,15.05-18.73,21.37-21.26,22.54-7.12,3.27-16.55,3.46-35.41,3.85Z"></path>
    <path class="cls-8" d="M579.13,121.72c4.13-3,12.32-8.83,23.21-11.81,9.09-2.49,17.24-4.72,23.55-.15,6.85,4.96,7.53,15.04,6.51,21.08-1.84,10.88-10.6,16.71-13.8,18.84-6.7,4.46-13.17,5.36-18.73,6.13-11.96,1.66-22.91-.75-23.49-.88-4.87-1.11-6.37-2.1-10.24-1.9-6.18.32-8.21,3.15-13.33,2.31-.48-.08-6.67-1.17-7.97-5.13-1.54-4.66,4.7-10.26,6.12-11.54,5.83-5.23,10-4.19,18.67-9.5,4.58-2.8,3.8-3.33,9.5-7.46Z"></path>
    <path class="cls-17" d="M607.15,150.91c13.06-1.66,14.97-9.92,17.96-13.1.39-.42,4.71-4.39,2.22-13.12-2.82-9.88-15.17-11.96-15.84-12.07-7.48-1.14-16.04,1.84-19.89,8.13-2.15,3.51-5.32,8.13-2.96,10.69,1.6,1.73,2.26,3.97,2.79,5.34.78,2.03.01,4.51-5.05,6.68-7.74,3.32-14.01-8.34-14.57,1.46-.1,1.81,5.21,8.07,19.54,6.34,1.17-.14,5.64.94,15.8-.35Z"></path>
    <path class="cls-3" d="M619.75,122.82c-1.73-.6-10.74-3.56-18.99,1.12-2.07,1.17-3.66,2.58-4.86,3.9"></path>
    <path class="cls-11" d="M563.66,125.64c-7.47,12.36-8.97,14.26-13.55,24.61-2.97,6.7-3.24,12.76-7.06,16.23-3.88,3.52-8.52,10.42-13.1,8.71-7.84-2.92-12.35-18.28-13.85-23-3.04-9.56-.07-11.86-1.13-24.98-1.35-16.73-6.66-18.94-5.67-32.38.27-3.7.89-11.03,5.25-18.81,1.19-2.13,12.43-21.49,30.89-20.41,12.35.72,20.1,10.12,21.79,12.16,10.08,12.22,8.06,27.25,7.68,30.01-1.04,7.76-1.51,11.7-11.26,27.84Z"></path>
    <path class="cls-4" d="M562.27,100.15c3.45-8.18-5.76-30.94-15.25-31-22.76-.14-25.91,24.38-26.97,31.21"></path>
    <path class="cls-4" d="M553.63,117.03c3.1-12.27,1.02-35.51-8.46-35.57-22.76-.14-24,35.63-25.05,42.45"></path>
    <path class="cls-4" d="M541.79,142.36c3.45-8.18,7.61-41.05-1.88-41.11-22.76-.14-14.69,44.45-14.57,50.27"></path>
  </g>
  <metadata></metadata>
</svg>
