<?xml version="1.0" encoding="UTF-8"?>
<svg xmlns="http://www.w3.org/2000/svg" xmlns:cc="http://creativecommons.org/ns#" xmlns:dc="http://purl.org/dc/elements/1.1/" xmlns:rdf="http://www.w3.org/1999/02/22-rdf-syntax-ns#" version="1.1" viewBox="0 0 745.51 419.53">
  <title>Ein Bonbon, ein Donut, ein Salzstreuer und ein Schälchen Pommes Frites hiter roter Signalfarbe</title>
  <defs>
    <style>.cls-1{clip-path:url(#b);}.cls-2{fill:none;}.cls-2,.cls-3,.cls-4,.cls-5,.cls-6,.cls-7,.cls-8,.cls-9,.cls-10,.cls-11,.cls-12,.cls-13,.cls-14,.cls-15,.cls-16,.cls-17,.cls-18,.cls-19,.cls-20,.cls-21,.cls-22,.cls-23,.cls-24,.cls-25,.cls-26{stroke-width:0px;}.cls-27{clip-path:url(#a);}.cls-3{fill:#da0000;}.cls-3,.cls-4,.cls-5,.cls-6,.cls-7,.cls-8,.cls-9,.cls-10,.cls-26{fill-rule:evenodd;}.cls-4{fill:#dbdbfd;}.cls-5{fill:#dbdbdb;}.cls-6{fill:#ededed;}.cls-7,.cls-23,.cls-25{fill:#fff;}.cls-8{fill:#ededfd;}.cls-9{fill:#bc0000;}.cls-10{fill:#f8f8f8;}.cls-11{fill:#f9eb37;}.cls-12{fill:#81b3c6;}.cls-13{fill:#a1bf38;}.cls-14{fill:#3a6639;}.cls-15{fill:#3f2d1f;}.cls-16{fill:#d1d1d0;}.cls-17{fill:#e1a346;}.cls-18{fill:#d4833c;}.cls-19{fill:#bc9c6a;}.cls-20{fill:#c1272d;}.cls-21{fill:#993331;}.cls-22{fill:#6ba6c8;}.cls-24{fill:#e7e7e7;}.cls-25{isolation:isolate;opacity:.5;}</style>
    <clipPath id="b">
      <path class="cls-2" d="M82.8,165.38c3.15,2.72,7.25,3.95,11.36,3.29l4.11-.66c1.35-.2,2.8.21,3.87,1.1l.42.32c2.02,1.77,5.08,1.51,6.79-.57.83-1.01,1.23-2.22,1.09-3.5l-2.57-31.86c14.37-1.18,25.03-13.77,23.84-28.15-.57-7.03-3.96-13.55-9.48-18.06l20.76-25.38c1.71-2.08,1.39-5.2-.69-6.92-.95-.76-2.16-1.17-3.32-1.14l-2.2.05c-1.16.02-2.31-.32-3.2-1.02l-3.57-2.8c-2.85-2.29-6.48-3.38-10.14-3.25l-3.3.14c-1.04.03-2.07-.19-2.96-.77l-3.11-2.05c-2.27-1.54-5.34-.9-6.82,1.43-.58.9-.85,1.86-.83,2.9l1.26,32.98c-14.42.76-25.43,13.09-24.74,27.45.61,7.71,4.34,14.72,10.36,19.37l-19.44,25.91c-1.59,2.08-1.2,5.15.94,6.68.89.7,1.98.98,3.14.96l2.26-.11c1.22-.08,2.49.39,3.38,1.21l2.79,2.47Z"></path>
    </clipPath>
    <clipPath id="a">
      <polygon class="cls-2" points="589.89 288.15 498.01 239.38 520.88 226.74 612.77 275.52"></polygon>
    </clipPath>
  </defs>
  <rect class="cls-20" width="745.51" height="419.53"></rect>
  <path class="cls-11" d="M67.85,156.77c2.28,3.48,5.9,5.79,10.03,6.27l4.13.49c1.35.18,2.63.97,3.42,2.12l.31.42c1.46,2.26,4.47,2.84,6.69,1.3,1.07-.75,1.79-1.8,2-3.07l6.23-31.35c14.15,2.79,27.84-6.41,30.63-20.56,1.38-6.92-.1-14.11-4.19-19.96l26.91-18.74c2.22-1.53,2.76-4.62,1.22-6.84-.71-.99-1.76-1.71-2.88-2.01l-2.13-.55c-1.12-.29-2.13-.94-2.8-1.85l-2.67-3.67c-2.12-2.98-5.31-5.02-8.87-5.9l-3.21-.77c-1.01-.26-1.94-.75-2.64-1.55l-2.43-2.82c-1.76-2.1-4.89-2.33-6.95-.49-.8.7-1.33,1.56-1.59,2.57l-7.81,32.07c-14.08-3.21-28.04,5.64-31.29,19.64-1.52,7.58.16,15.35,4.67,21.46l-25.78,19.61c-2.1,1.57-2.56,4.62-.92,6.68.67.92,1.64,1.48,2.76,1.78l2.2.51c1.2.25,2.29,1.05,2.92,2.08l2.01,3.14Z"></path>
  <g class="cls-1" clip-path="url(#b)">
    <rect class="cls-13" transform="translate(-37.49 80.15) rotate(-34.56)" x="104.3" y="59.16" width="11.55" height="82.34"></rect>
    <rect class="cls-14" transform="translate(-44.51 74.71) rotate(-34.56)" x="92.43" y="67.5" width="10.78" height="82.77"></rect>
  </g>
  <path class="cls-19" d="m225.14 172.64c-55.43 0-100.44 45.01-100.44 100.44s45.01 100.44 100.44 100.44 100.44-45.01 100.44-100.44-45.01-100.44-100.44-100.44zm0 138.33c-20.93 0-37.89-16.96-37.89-37.89s16.96-37.89 37.89-37.89 37.89 16.96 37.89 37.89-16.96 37.89-37.89 37.89z"></path>
  <path class="cls-15" d="m310.36 273.33c0-9.85 10.09-21.92 7.2-30.78-2.98-9.27-19.69-12-25.32-19.69s-9.93-15.14-17.71-20.77-15.47-9.02-24.74-12c-8.94-2.9-17.21-13.4-27.05-13.4s-21.35 0.74-30.2 3.64c-9.27 2.98-20.02 7.78-27.72 13.32-7.69 5.54-9.18 19.11-14.81 26.89s-7.45 16.55-10.42 25.81c-2.9 8.94-7.94 17.13-7.94 26.97s7.61 17.29 10.51 26.14c2.98 9.27 0.58 20.19 6.21 27.88s16.55 9.18 24.41 14.81 10.18 22.17 19.44 25.23c8.94 2.9 20.68 1.9 30.53 1.9 10.09-0.17 20.02-1.74 29.62-4.88 9.27-2.98 16.88-10.92 24.57-16.55s16.13-11.58 21.76-19.36 16.46-14.89 19.44-24.16c2.9-8.94-7.78-21.1-7.78-31.03zm-85.22 37.64c-20.93 0-37.89-16.96-37.89-37.89s16.96-37.89 37.89-37.89 37.89 16.96 37.89 37.89-16.96 37.89-37.89 37.89z"></path>
  <path class="cls-23" d="m182.94 218.14h1.65c1.57 0 2.81 1.24 2.81 2.81v19.77c0 1.57-1.24 2.81-2.81 2.81h-1.65c-1.57 0-2.81-1.24-2.81-2.81v-19.69c0-1.57 1.32-2.9 2.81-2.9z"></path>
  <path class="cls-23" d="M200.9,196.8l1.32-.91c1.24-.91,3.06-.58,3.97.66l11.42,16.13c.91,1.24.58,3.06-.66,3.97l-1.32.91c-1.24.91-3.06.58-3.97-.66l-11.42-16.13c-.91-1.32-.58-3.14.66-3.97Z"></path>
  <path class="cls-23" d="M252.77,325.78l1.32-.91c1.24-.91,3.06-.58,3.97.66l11.42,16.13c.91,1.24.58,3.06-.66,3.97l-1.32.91c-1.24.91-3.06.58-3.97-.66l-11.42-16.13c-.91-1.32-.58-3.06.66-3.97Z"></path>
  <path class="cls-23" d="M286.53,209.46l1.24,1.08c1.16,1.08,1.24,2.81.25,3.97l-13.15,14.81c-1.08,1.16-2.81,1.24-3.97.25l-1.24-1.08c-1.16-1.08-1.24-2.81-.25-3.97l13.15-14.81c.99-1.16,2.81-1.24,3.97-.25Z"></path>
  <path class="cls-23" d="M291,307.5l1.24,1.08c1.16,1.08,1.24,2.81.25,3.97l-13.15,14.81c-1.08,1.16-2.81,1.24-3.97.25l-1.24-1.08c-1.16-1.08-1.24-2.81-.25-3.97l13.15-14.81c1.08-1.24,2.81-1.32,3.97-.25Z"></path>
  <path class="cls-23" d="M258.4,202.51l-.17,1.65c-.17,1.57-1.57,2.73-3.06,2.56l-19.69-1.9c-1.57-.17-2.73-1.57-2.56-3.06l.17-1.65c.17-1.57,1.57-2.73,3.06-2.56l19.69,1.9c1.57.08,2.65,1.49,2.56,3.06Z"></path>
  <path class="cls-23" d="M193.37,332.15l-.17,1.65c-.17,1.57-1.57,2.73-3.06,2.56l-19.69-1.9c-1.57-.17-2.73-1.57-2.56-3.06l.17-1.65c.17-1.57,1.57-2.73,3.06-2.56l19.69,1.9c1.57.17,2.73,1.49,2.56,3.06Z"></path>
  <path class="cls-23" d="M295.96,280.28l-.17,1.65c-.17,1.57-1.57,2.73-3.06,2.56l-19.69-1.9c-1.57-.17-2.73-1.57-2.56-3.06l.17-1.65c.17-1.57,1.57-2.73,3.06-2.56l19.69,1.9c1.57.17,2.65,1.49,2.56,3.06Z"></path>
  <path class="cls-23" d="M298.61,235.6l1.32.91c1.24.91,1.57,2.65.66,3.97l-11.42,16.22c-.91,1.24-2.65,1.57-3.97.66l-1.32-.91c-1.24-.91-1.57-2.65-.66-3.97l11.42-16.22c.99-1.24,2.73-1.57,3.97-.66Z"></path>
  <path class="cls-23" d="M230.27,320.9l1.32.91c1.24.91,1.57,2.65.66,3.97l-11.33,16.22c-.91,1.24-2.65,1.57-3.97.66l-1.32-.91c-1.24-.91-1.57-2.65-.66-3.97l11.42-16.22c.91-1.24,2.65-1.57,3.89-.66Z"></path>
  <path class="cls-23" d="M172.02,286.23l1.32.91c1.24.91,1.57,2.65.66,3.97l-11.42,16.22c-.91,1.24-2.65,1.57-3.97.66l-1.32-.91c-1.24-.91-1.57-2.65-.66-3.97l11.42-16.22c.91-1.24,2.65-1.57,3.97-.66Z"></path>
  <path class="cls-23" d="M165.9,257.53l-.66,1.49c-.66,1.41-2.32,2.07-3.81,1.41l-17.95-8.36c-1.41-.66-2.07-2.32-1.41-3.81l.66-1.49c.66-1.41,2.32-2.07,3.81-1.41l17.95,8.36c1.41.66,2.07,2.4,1.41,3.81Z"></path>
  <path class="cls-24" d="m623.89 233.26c7.97 1.16 14.84 6.73 14.84 6.73s11.57-3.81 20.05-1.3 8.8 10.31 11.91 13.07c3.11 2.75 13.16 5.75 18.68 13.29 3.96 5.41-0.32 10.82 1.46 13.91 1.78 3.1 10.36 13.88 10.82 21.86s-5.71 11.22-6.54 16c-0.83 4.77 4.93 9.87 1.25 20.53-3.02 8.75-12.12 8.76-15.52 14.67s-1.18 11.3-10.98 19.13c-6.12 4.89-12.68 1.5-17.52 3.82-5.63 2.69-6.68 9.58-13.5 10.63-8.77 1.39-11.79-5.73-17.17-6.53-4.79-0.72-7.52 2.24-10.19 3.42s-7.96 0.63-7.96 0.63l-95.48-19.08s-5.21-1.04-7.41-2.96-3.93-5.56-8.72-6.3c-5.37-0.83-10.37 5.07-18.33 1.14-6.2-3.06-5.16-9.96-9.75-14.2-3.93-3.64-11.21-2.37-15.59-8.84-7.03-10.4-3.3-14.91-4.81-21.53s-10.16-9.34-10.45-18.59c-0.35-11.28 6.66-14.44 7.29-19.24s-4.29-9.74-1.49-17.21c2.8-7.46 14.21-15.23 16.86-17.65 2.65-2.43 0.13-8.86 5.53-12.85 7.52-5.56 17.99-5.43 21.79-7.14 3.79-1.71 6.42-9.09 15.25-8.94 8.84 0.15 18.75 7.15 18.75 7.15s8.21-3.28 16.16-2.02l90.75 18.38z"></path>
  <path class="cls-16" d="m489.91 315.04c-4.46 5.56-11.34 14.07-13.66 16.76-11.26 13 5.63 19.51 8.56 14.22 1.51-2.71 9.01-16.9 12.98-24.43-2.91-1.83-5.56-4.03-7.89-6.55z"></path>
  <path class="cls-16" d="m501.65 253.09c3.02-1.46 6.22-2.52 9.52-3.16-1.2-7.94-3.84-25.49-4.4-28.73-1.03-5.95-19.12-5.38-12.78 10.61 1.35 3.44 5.32 14.6 7.67 21.28z"></path>
  <path class="cls-16" d="M448.04,264.36c4.62,4.3,22.63,11.57,32.4,15.36.87-3.84,2.32-7.54,4.3-10.95-8.45-6.77-25.55-17.5-25.55-17.5-7.83-5.2-16.61,8.01-11.15,13.08Z"></path>
  <path class="cls-16" d="M489.22,262.51c1.79-2.03,3.78-3.86,5.95-5.48-4.16-6.25-13.66-20.04-16.52-23.84-3.51-4.67-17.01-.96-11.99,9.02,2.29,4.53,15.22,14.72,22.56,20.29Z"></path>
  <path class="cls-16" d="m481.85 301.88c-8.99 2.87-22.62 7.6-26.05 10.85-8.09 7.7 3.37 15.76 8.25 12.55 3.61-2.37 15.16-10.65 21.76-15.5-1.61-2.48-2.94-5.12-3.96-7.89z"></path>
  <path class="cls-16" d="M479.59,285.24c-10.6-1.77-28.27-4.36-34.13-3.12-7.28,1.58-6.44,17.43,2.91,16.96,0,0,21.7-.57,32.04-2.18-.86-3.83-1.14-7.76-.82-11.67Z"></path>
  <path class="cls-16" d="m645.58 277.3c4.43-5.57 11.32-14.08 13.66-16.76 11.26-12.97-5.63-19.52-8.59-14.24-1.51 2.72-9.01 16.9-13.03 24.42 2.93 1.83 5.61 4.04 7.96 6.57z"></path>
  <path class="cls-16" d="m633.84 339.27c-3.03 1.45-6.22 2.51-9.52 3.16 1.19 7.93 3.84 25.49 4.4 28.73 1.03 5.95 19.11 5.38 12.78-10.61-1.33-3.49-5.31-14.65-7.66-21.28z"></path>
  <path class="cls-16" d="M687.44,327.99c-4.61-4.3-22.62-11.57-32.4-15.36-.86,3.86-2.31,7.57-4.29,10.99,8.45,6.73,25.56,17.48,25.56,17.48,7.82,5.16,16.59-8.05,11.13-13.11Z"></path>
  <path class="cls-16" d="M646.26,329.82c-1.79,2.03-3.78,3.86-5.95,5.48,4.15,6.24,13.65,20.04,16.52,23.84,3.51,4.67,17.02.96,12-9.02-2.3-4.53-15.25-14.73-22.57-20.29Z"></path>
  <path class="cls-16" d="m653.68 290.47c8.99-2.87 22.62-7.59 26.05-10.85 8.1-7.7-3.36-15.76-8.24-12.55-3.61 2.37-15.17 10.65-21.77 15.5 1.62 2.47 2.95 5.12 3.96 7.89z"></path>
  <path class="cls-16" d="M657.31,310.3c10.74-.12,28.59-.67,34.15-2.95,6.89-2.83,3.31-18.28-5.84-16.19,0,0-21.27,4.36-31.18,7.75,1.53,3.63,2.49,7.47,2.87,11.39Z"></path>
  <path class="cls-21" d="m640.97 342.51c-10.98-2.19-10.19-6.18-21.16-8.38-7.28-1.45-14.13-2.18-17.94-7.89-3.81-5.72-9.19-30.16 7.87-39.62 6.01-3.32 13.4-7.03 20.68-5.58 10.98 2.19 10.9 2.56 21.88 4.76 7.27 1.45 16.34 5.06 19.04 11.37 10.16 23.76-6.13 34.39-11.83 38.21s-11.28 8.58-18.55 7.13z"></path>
  <polygon class="cls-18" points="557.97 284.14 455.41 301.55 465.83 277.59 568.39 260.18"></polygon>
  <polygon class="cls-18" points="610.81 313.91 510.15 340.21 518.44 315.43 619.09 289.13"></polygon>
  <polygon class="cls-17" points="589.89 288.15 498.01 239.38 520.88 226.74 612.77 275.52"></polygon>
  <g class="cls-27" clip-path="url(#a)">
    <path class="cls-21" d="m623.01 300.65c-10.98-2.19-10.19-6.18-21.16-8.38-7.28-1.45-14.13-2.18-17.94-7.9s-9.19-30.16 7.87-39.62c6.01-3.33 13.4-7.03 20.68-5.58 10.98 2.19 10.9 2.56 21.88 4.76 7.27 1.45 16.34 5.05 19.04 11.37 10.17 23.76-6.13 34.39-11.82 38.2-5.69 3.82-11.29 8.6-18.56 7.14z"></path>
  </g>
  <polygon class="cls-17" points="544.56 353.51 491.16 264.23 517.27 265.26 570.67 354.53"></polygon>
  <polygon class="cls-17" points="485.6 311.53 554.32 233.43 561.32 258.6 492.6 336.7"></polygon>
  <polygon class="cls-18" points="577.05 339 508.72 260.56 534.6 256.95 602.93 335.39"></polygon>
  <path class="cls-25" d="M661.14,307.31c-3.01-.02-2.84,8.37-10.03,12.36-3.49,1.95-5.93,1.3-7.13,3.49-1.56,2.89.39,8.22,3.71,9.82,5.63,2.72,17.14-4.26,18.55-13.33.91-5.86-2.46-12.33-5.1-12.35Z"></path>
  <path class="cls-22" d="M606.16,211.14l-47.59,43.23c-.97.88-2.16,1.48-3.44,1.74l-4.51.93c-2.59.53-5.04,1.62-7.17,3.2l-.18.14-15.05,13.15,2.02,2.68,14.74-9.56c.08-.04.17,0,.2.07.03.05.02.12-.02.17l-13.23,11.57,2.02,2.67,14.68-9.54c.07-.05.16-.04.22.03s.04.16-.03.22h0l-13.18,11.52,2.02,2.67,16.52-10.71.33-.25c2.17-1.64,3.95-3.74,5.2-6.16l2.09-4.03c.6-1.16,1.5-2.14,2.61-2.83l54.53-34.04c4.94-3.16,6.39-9.72,3.23-14.67-.15-.24-.31-.46-.48-.69h0c-3.55-4.67-10.22-5.58-14.89-2.03-.22.17-.43.34-.64.52Z"></path>
  <polygon class="cls-8" points="391.58 40.64 339.64 158.97 455.21 187.93 455.06 55.83 391.58 40.64"></polygon>
  <polygon class="cls-6" points="397.99 45.63 354.98 144.73 449.41 168.39 449.88 58.01 397.99 45.63"></polygon>
  <path class="cls-9" d="M426.07,25.93c8.72,2.41,21.36,9.03,28.83,14.27l.16,15.63c-5.87,1.71-18.5,3.53-33.11-.13-20.71-5.18-25.44-10.04-30.38-15.07l6.84-15.22c1.16-.85,18.82-1.5,27.65.5Z"></path>
  <path class="cls-4" d="M401.63,156.33c16,4.26,32.28,9.48,46.08,18.85,14.84,10.54,6.51,16.93-7.98,17.61-15.4.79-30.93-1.89-45.85-5.52-14.87-3.83-29.83-8.79-43.04-16.75-12.3-7.33-16.93-16.96,1.27-19.29,16.59-1.76,33.41,1.31,49.52,5.1Z"></path>
  <path class="cls-10" d="M405.68,142.28c13.06,3.48,26.42,7.79,37.65,15.49,11.94,8.79,5.37,14.03-6.57,14.84-12.61.69-25.35-1.46-37.57-4.42-12.18-3.15-24.43-7.25-35.22-13.81-10.02-6.23-13.58-14.07,1.2-16.18,13.53-1.51,27.35,1,40.51,4.09Z"></path>
  <path class="cls-3" d="M428.49,25.65c7.54,1.91,15.26,4.57,21.89,8.69,4.38,3.05,7.49,7.27.1,8.85-12.99,2-29.46-2.36-41.43-7.53-3.13-1.51-12.8-5.88-10.63-10.24,5.69-5.22,22.92-1.45,30.07.23Z"></path>
  <path class="cls-26" d="M437.27,30.79c1.16.34,3.38.84,3.75,2.1-1.14,1.31-6.65-.41-7.82-1.51-1.03-1.57,3.35-.83,4.07-.58Z"></path>
  <path class="cls-26" d="M420.85,26.23c.64.27,1.59.45,2.22.74.51.31,2.35,1.23,1.09,1.7-2.09.41-6.11-.5-7.59-2.08-.13-1.39,3.48-.43,4.28-.35Z"></path>
  <path class="cls-26" d="m418.15 30.99c6.62 2.16 3.24 3.37-1.38 1.97-5.4-1.98-2.33-2.8 1.38-1.97z"></path>
  <path class="cls-26" d="M436.62,35.89c5.31,1.28,4.75,3.35-.53,2.1-5.25-1.31-4.73-3.53.53-2.1Z"></path>
  <polygon class="cls-10" points="371.54 105.3 355.1 143.15 449.62 166.48 449.91 125.12 371.54 105.3"></polygon>
  <path class="cls-5" d="M387.26,130.09c-1.09-.17-1.44,1.23-.4,1.59,1.03.21,1.41-1.29.4-1.59h0Z"></path>
  <path class="cls-5" d="M399.63,126.24c-1.09-.17-1.44,1.23-.4,1.59,1.09.17,1.44-1.23.4-1.59h0Z"></path>
  <path class="cls-5" d="M396.63,134.67c-1.03-.17-1.55,1.41-.4,1.59,1.04.41,1.36-1.32.4-1.59h0Z"></path>
  <path class="cls-5" d="M405.18,146.08c-1.04-.25-1.52,1.45-.4,1.59.95.36,1.33-1.33.4-1.59h0Z"></path>
  <path class="cls-5" d="M415.81,138.85c-.96-.2-1.33,1.2-.4,1.59,1.09.22,1.47-1.39.4-1.59h0Z"></path>
  <path class="cls-5" d="M421.55,146.53c-1.03-.07-1.3,1.16-.4,1.59,1.09.16,1.47-1.23.4-1.59h0Z"></path>
  <path class="cls-5" d="M433.04,140.85c-1.09-.17-1.44,1.23-.4,1.59.98.08,1.3-1.2.4-1.59h0Z"></path>
  <path class="cls-5" d="M434.51,156.01c-.98-.3-1.3,1.27-.4,1.59,1.04.25,1.52-1.45.4-1.59h0Z"></path>
  <path class="cls-5" d="M418,163.9c-1.09-.16-1.47,1.23-.4,1.59,1.03.07,1.3-1.16.4-1.59h0Z"></path>
  <path class="cls-5" d="M400.47,159.51c-1-.05-1.34,1.17-.4,1.59,1.14.21,1.47-1.24.4-1.59h0Z"></path>
  <path class="cls-5" d="M384.88,150.26c-1.01-.26-1.49,1.48-.4,1.59,1.06.4,1.44-1.32.4-1.59h0Z"></path>
  <path class="cls-5" d="M371.44,141.99c-.95-.36-1.33,1.33-.4,1.59,1.04.25,1.52-1.45.4-1.59h0Z"></path>
  <path class="cls-5" d="M372.79,130.92c-.37-.14-.94.14-.94.57-.23.46.16.83.54,1.03,1.09.22,1.47-1.39.4-1.59h0Z"></path>
  <path class="cls-5" d="M374.89,119.69c-.96-.16-1.32,1.28-.4,1.59,1.09.17,1.44-1.23.4-1.59h0Z"></path>
  <path class="cls-5" d="M383.7,120.82c-.96-.16-1.32,1.28-.4,1.59,1.09.17,1.44-1.23.4-1.59h0Z"></path>
  <path class="cls-5" d="M360.79,139.68c-1.06-.26-1.35,1.19-.4,1.59,1.04.25,1.52-1.45.4-1.59h0Z"></path>
  <path class="cls-5" d="M376.95,154.86c-1.11-.09-1.42,1.15-.4,1.59,1.09.17,1.44-1.23.4-1.59h0Z"></path>
  <path class="cls-5" d="M446.31,165.83c-1.07-.16-1.49,1.36-.4,1.59,1.03.39,1.44-1.32.4-1.59h0Z"></path>
  <path class="cls-5" d="M443.95,134.32c-1.09-.17-1.44,1.23-.4,1.59.98.08,1.3-1.2.4-1.59h0Z"></path>
  <path class="cls-7" d="M413.27,105.24c10.78,2.92,21.91,6.46,31.19,12.81,9.86,7.32,4.41,11.55-5.46,12.18-10.38.62-21.02-1.13-31.07-3.69-9.62-2.34-19.32-5.7-27.9-10.65-8.35-4.88-13.78-12-.22-14.05,11.16-1.24,22.6.89,33.46,3.39Z"></path>
  <path class="cls-5" d="M421.52,129.23c-1.09-.17-1.44,1.23-.4,1.59.98.08,1.3-1.2.4-1.59h0Z"></path>
  <path class="cls-5" d="M416.68,118.66c-.95-.36-1.33,1.33-.4,1.59,1.04.25,1.52-1.45.4-1.59h0Z"></path>
  <path class="cls-5" d="M403.2,111.63c-.98-.08-1.3,1.2-.4,1.59,1.1.22,1.47-1.27.4-1.59h0Z"></path>
  <path class="cls-5" d="M390.6,105.36c-.96-.16-1.32,1.28-.4,1.59,1.09.17,1.44-1.23.4-1.59h0Z"></path>
  <path class="cls-5" d="M392.72,110.43c-1.08-.2-1.47,1.35-.42,1.68.99.09,1.34-1.28.42-1.68h0Z"></path>
  <path class="cls-5" d="M412.89,108.18c-1.13-.25-1.42,1.23-.4,1.59.43,0,.96-.14.96-.65.25-.5-.18-.75-.57-.94h0Z"></path>
  <path class="cls-5" d="M421.46,112.73c-1.03-.18-1.47,1.4-.4,1.59,1.03.39,1.44-1.32.4-1.59h0Z"></path>
  <path class="cls-5" d="M437.65,117.5c-1.11-.18-1.43,1.22-.4,1.59,1.13-.02,1.43-1.06.4-1.59h0Z"></path>
  <path class="cls-5" d="M432.36,119.38c-1.08-.2-1.47,1.35-.42,1.68,1.12.1,1.46-1.23.42-1.68h0Z"></path>
  <path class="cls-5" d="M446.66,129.56c-1.05-.18-1.43,1.27-.4,1.59,1.11.18,1.43-1.22.4-1.59h0Z"></path>
  <path class="cls-5" d="M378.78,105.24c-1.06-.38-1.4,1.21-.38,1.51,1.05.22,1.49-1.34.38-1.51h0Z"></path>
  <path class="cls-12" d="M398.98,75.01c-.94-.71-2.05-1.26-3.22-1.54-1.15-.28-2.75-.14-3.2,1.68-.7,2.9,6.92,3.45,5.56,9.05-.89,3.66-4.12,4.35-7.5,3.53-1.82-.44-2.57-.88-4.13-1.69l1.04-2.94c1,.9,2.21,1.63,3.53,1.95,1.27.31,3.12.07,3.49-1.43.77-3.18-6.87-3.64-5.53-9.17.91-3.73,4.13-4.4,7.07-3.68,1.44.35,2.73.87,3.85,1.57l-.98,2.68Z"></path>
  <path class="cls-12" d="M409.56,74.33l3.78.92,2.51,18.3-3.71-.9-.51-4.18-6.77-1.64-2.39,3.48-3.47-.84,10.56-15.13ZM410.59,78.13h-.05s-4.09,6.3-4.09,6.3l4.88,1.18-.75-7.48Z"></path>
  <path class="cls-12" d="M422.77,77.54l3.35.81-3.41,14.07,6.49,1.57-.64,2.63-9.84-2.39,4.05-16.71Z"></path>
  <path class="cls-12" d="M430.98,94.33l10.6-9.44-7.54-1.83.64-2.63,11.11,2.69-.66,2.73-10.67,9.42,8.09,1.96-.64,2.63-11.58-2.81.66-2.73Z"></path>
  <metadata></metadata>
</svg>
