<?xml version="1.0" encoding="UTF-8"?>
<svg xmlns="http://www.w3.org/2000/svg" xmlns:cc="http://creativecommons.org/ns#" xmlns:dc="http://purl.org/dc/elements/1.1/" xmlns:rdf="http://www.w3.org/1999/02/22-rdf-syntax-ns#" width="745.51" height="419.53" data-name="Ebene 1" version="1.1" viewBox="0 0 745.51 419.53">
  <title>Eine Frau trinkt aus einem Wasser aus einem Glas. Mineralwasserflasche links dampfender Tee rechts</title>
  <defs>
    <style>.cls-1 {
        fill: #4c556f;
      }

      .cls-1, .cls-2, .cls-3, .cls-4, .cls-5, .cls-6, .cls-7, .cls-8, .cls-9, .cls-10, .cls-11, .cls-12, .cls-13, .cls-14, .cls-15, .cls-16, .cls-17 {
        stroke-width: 0px;
      }

      .cls-2 {
        fill: #75bded;
      }

      .cls-3 {
        fill: #6f6f6f;
      }

      .cls-4 {
        fill: #392a46;
      }

      .cls-5 {
        fill: #c6384c;
      }

      .cls-6 {
        fill: #c7835e;
      }

      .cls-7 {
        fill: #c5b8a0;
      }

      .cls-8 {
        fill: #daebfa;
      }

      .cls-9 {
        fill: #e2c02d;
      }

      .cls-10 {
        fill: #d5dce1;
      }

      .cls-11 {
        fill: #b1d8f6;
      }

      .cls-12 {
        fill: #303880;
      }

      .cls-13 {
        fill: #6aaad2;
      }

      .cls-14 {
        fill: #fff;
      }

      .cls-15 {
        fill: #ecf5fd;
      }

      .cls-16 {
        fill: #eceff8;
      }

      .cls-17 {
        fill: #e7a887;
      }</style>
  </defs>
  <rect class="cls-11" x="-.0044861" width="745.52" height="419.53"></rect>
  <path class="cls-14" d="m380.49 389.72c98.49 0 178.33-79.84 178.33-178.33s-79.85-178.32-178.33-178.32-178.33 79.84-178.33 178.33 79.84 178.33 178.33 178.33"></path>
  <path class="cls-12" d="m542.22 201.75h85.81v91.96c0 4.41-3.61 8.02-8.02 8.02h-69.77c-4.41 0-8.02-3.61-8.02-8.02z"></path>
  <path class="cls-12" d="m628.03 219.93c-12.7 0-22.99 10.29-22.99 22.99s10.29 22.99 22.99 22.99 22.99-10.29 22.99-22.99-10.29-22.99-22.99-22.99m0 59.34c-20.05 0-36.36-16.31-36.36-36.36s16.31-36.36 36.36-36.36 36.36 16.31 36.36 36.36-16.31 36.36-36.36 36.36"></path>
  <path class="cls-14" d="m577.62 195.06c-7.92-3.35-17.3-8.93-19.09-17.75-2.9-14.17 16.74-23.88 13.17-36.16-3.24-11.5-24.55-8.82-30.25-25.67-5.02-14.84 7.48-26.79 16.63-35.61-3.91 32.93 3.57 37.17 13.62 38.95 10.6 1.9 23.33-2.01 33.59 3.91 12.5 7.14 15.29 20.09 11.16 29.58-6.58 15.29-36.5 9.82-42.08 25-2.34 6.25 0.45 12.95 3.24 17.75"></path>
  <path class="cls-9" d="m609.59 226.88h-14.97c-0.94 0-1.74 0.54-2.14 1.34l-6.01 12.97c-0.4 0.93-0.67 1.87-0.67 2.81v23.12c0 0.93 0.8 1.74 1.74 1.74h29.01c0.94 0 1.74-0.8 1.74-1.74v-23.12c0-0.94-0.27-2.01-0.67-2.81l-6.15-12.97c-0.27-0.8-1.07-1.34-1.87-1.34"></path>
  <rect class="cls-7" x="600.76" y="201.75" width="2.67" height="25.13"></rect>
  <path class="cls-4" d="m437.98 112.49c1.16 1.46 2.13 3.11 2.78 5.05 1.47 4.36 1.61 9.08 3.12 13.42 2.88 8.27 10.66 15.44 9.25 24.08-0.96 5.88-6.06 10.32-7.52 16.09-2.53 10.01 6.35 18.98 14.51 25.31 9.94 7.71 22.72 24.21 22.55 37.66-0.13 10.32-9.9 18.31-19.96 20.62-10.06 2.3-20.52 0.47-30.82-0.15s-21.49 0.3-29.38 6.96c-2.48 2.1-4.55 4.7-7.29 6.44-13.84 8.77-31.86-9.41-47.47-4.43-4.38 1.4-8 4.51-12.21 6.35-13.98 6.11-30.8-3.91-37.48-17.63-1.09-2.25-2.07-4.69-4.02-6.25-3.1-2.48-7.53-1.96-11.46-2.47-7.09-0.92-13.52-5.88-16.2-12.51-7.07-17.44 14.9-26.76 18.24-42.76 1.93-9.23-0.95-19.62 3.82-27.76 4.23-7.22 13.02-10.13 19.64-15.25 12.04-9.33 10.17-20.36 13.38-33.31 2.85-11.51 11.4-23.61 21.68-29.46 3.28-1.86 6.82-3.21 10.2-4.9-5-1.98-8.94-6.43-10.3-11.63-1.6-6.11 0.4-12.87 4.55-17.63 4.14-4.76 10.22-7.62 16.47-8.52 2.97-0.43 6.03-0.45 8.94 0.32 6.43 1.69 11.49 7.26 13.31 13.65 0.87 3.08 1.11 6.44 0.62 9.6-0.27 1.72-2.3 5.25-1.75 6.9 0.99 2.98 13.09 3.91 16.31 5.27 6.02 2.53 12.74 7.06 15.84 12.95 1.64 3.1 2.5 6.62 4.51 9.5 4.19 6 11.66 8.88 16.15 14.52"></path>
  <path class="cls-5" d="m535.94 293.8c-68.41-7.26-98.85-22.39-98.85-22.39s-31.56-55.96-19.54-57.68c0 0 18.89 0.42 34.9 5.76 5.06 1.67 11.14 3.99 18.28 7.24 17.26 7.65 41.19 16.02 73.58 36.45 0.23 0.14 9.63 32.53-8.37 30.62"></path>
  <path class="cls-17" d="m422.11 249.43c-3.57 4.47-8.12 8.13-12.89 11.33-6.33 4.25-13.68 7.9-21.26 7.05-4.65-0.52-8.95-2.7-12.89-5.21-5.77-3.66-11.17-8.27-14.33-14.33-4.59-8.8-3.88-19.31-3.05-29.21 0.34-4.09 1.86-4.76 5.6-4.99 0.43-0.03 5.42 0 5.42-0.69l-2.01-46.68s5.47-0.7 12.07-0.61c4.32 0.13 9.03 0.63 13.08 1.99 0.13 0.04 0.25 0.07 0.38 0.13 0.43 0.14 0.88 0.31 1.3 0.49 1.91 0.79 3.63 1.82 5.02 3.16 0.2 0.18 0.36 0.36 0.52 0.54 0.9 0.99 1.61 2.13 2.06 3.45 0.29 0.78 0.47 1.63 0.56 2.55 0 0 6.21 34.46 6.22 34.51-0.03-0.14 10.69 1.44 11.99 2.19 4.63 2.69 7.79 7.68 8.69 12.91 1.14 6.62-0.99 13.51-4.74 19.08-0.55 0.81-1.12 1.59-1.73 2.35"></path>
  <path class="cls-6" d="m405.44 199.28c-16.3 1.19-29.24-4.06-37.73-9.21l-0.69-16.08 11.75-7.87c9.73 0.25 21.98 2.52 22.92 12.27z"></path>
  <path class="cls-17" d="m420.18 138.46c-1.93-12.06-4.39-22.22-9.01-27.24-20.25-22.02-57.53-12.52-63.37 6.89-1.9 6.3-1.69 14.96-0.07 25.1-4.93-0.29-13.96 0.72-10.92 12.66 2.53 9.95 10.72 11.04 16.64 10.41 10.27 25.82 33.4 27.35 44.64 25.92 11.97-1.53 27.92-17.23 22.09-53.73"></path>
  <path class="cls-4" d="m351.26 102.01-12.41 12.53c-0.94 7.41-2.55 14.38-0.55 21.59 0.65 2.33 1.56 4.71 3.38 6.31 1.57 1.38 3.97 1.97 5.81 1.14 0.3-0.13 0.57-0.3 0.84-0.51 1.7-1.36 2.02-3.78 2.15-5.96 0.26-4.15 0.32-8.34 1.18-12.42 0.91-4.32 3.12-9.05 6.16-12.27 3.5-3.7 9.07-4.38 13.37-6.77 3-1.67 4.86-5.51 7.61-6.83 3.32-1.59 9.74 1.28 13.01 2.24 5.32 1.56 12.3 3.71 16.06 8.09 4.37 5.08 9.65 13.3 11.89 19.59 0.24 0.69 2.24 4.68 2.9 4.98 3.67 1.67 1.92-12.34 2.19-14.38 0.78-5.86-0.37-12-3.36-17.12-4.9-8.36-12.97-11.91-22.13-13.16-4.95-0.67-8.93 0.4-13.91 0.63-6.43 0.31-13.51 0.74-19.46 3.92-5 2.68-9.65 5.71-14.73 8.38"></path>
  <path class="cls-3" d="m393.9 298.1c-6 3.51-10.7 5.58-17.92 4.91-5.86-0.54-18.94-2.44-21.9-8.29-0.22-0.44-0.79-0.17-0.83 0.23-0.97 9.21 14.14 11.19 20.41 12.15 7.89 1.21 17.64 0.43 22.72-6.52 1.12-1.52-1.01-3.34-2.48-2.49"></path>
  <path class="cls-6" d="m390.2 173.23c0.32 0.17 0.65 0.32 0.99 0.45 3.3 1.24 7.17 0.52 10.02-1.5 2.13-1.51 4.56-5.1 3.44-7.86-0.46-1.14-1.6-1.97-2.83-2.06-2.5-0.19-4.31 2.3-6.62 3.27-1.29 0.54-2.73 0.6-4.08 0.95-1.36 0.34-2.76 1.12-3.19 2.45-0.33 1.01-0.01 2.16 0.65 3 0.43 0.55 1 0.98 1.62 1.32"></path>
  <path class="cls-4" d="m396.45 136.28c3.79 2.63 11.09 0.5 12.81-3.86 0.32-0.82-0.62-1.39-1.24-0.81-2.61 2.44-6.77 4.06-10.22 2.61-1.23-0.52-2.57 1.22-1.35 2.06"></path>
  <path class="cls-4" d="m375.15 143.66c1.67-0.57 4.69-2.38 4.67-4.4 0-0.56-0.73-0.87-1.16-0.55-1.33 1.01-2.15 2.18-3.77 2.85-2.05 0.85-3.79 0.2-5.81-0.3-0.55-0.14-1.05 0.59-0.68 1.04 1.62 1.98 4.42 2.15 6.75 1.36"></path>
  <path class="cls-5" d="m456.1 372.91c-0.58 0.27-1.16 0.54-1.73 0.81-0.25 0.11-0.51 0.22-0.76 0.32l-0.7 0.32c-1.5 0.67-3.02 1.32-4.53 1.91-0.45 0.22-0.92 0.4-1.37 0.58-20.59 8.31-43.08 12.86-66.65 12.86-7.95 0-15.77-0.52-23.43-1.53-2.19-0.27-4.35-0.6-6.52-0.98-6.3-1.07-12.52-2.46-18.57-4.17-0.18-0.04-0.34-0.09-0.51-0.14-0.43-0.13-0.85-0.25-1.27-0.38 2.55-7.69 5.13-15.37 6.7-23.3 1.77-8.94 2.06-17.77 1.73-26.63-0.32-10.2-1.48-20.39-2.04-30.71-3.83 7.37-7.04 15.05-10.08 22.78-6.34 16.04-12.59 34.68-17.52 50.18-2.55-1.1-5.07-2.21-7.51-3.49-0.17-0.09-0.27-0.15-0.38-0.2-5.69-2.78-11.22-5.91-16.51-9.28-4.9-3.11-9.65-6.45-14.2-10.03 3.18-12.41 7.1-27.09 11.89-44.27 3.36-12.01 6.97-22.51 10.66-31.63 14.9-36.97 31.03-51.64 36.29-55.69 0.07-0.05 0.14-0.13 0.22-0.16 0.4-0.31 0.72-0.54 0.98-0.72 0.07-0.05 0.14-0.09 0.22-0.14 0.06-0.04 0.11-0.06 0.15-0.09 0.07-0.06 0.13-0.11 0.25-0.15 0.27-0.16 0.56-0.32 0.85-0.47 0.27-0.14 0.56-0.28 0.85-0.42 0.26-0.12 0.5-0.24 0.76-0.34 0.14-0.06 0.31-0.13 0.45-0.16 0.29-0.13 0.58-0.22 0.87-0.32 0.63-0.22 1.3-0.4 1.97-0.56 0.05 0 0.14-0.06 0.23-0.06 4.64-1.16 9.89-1.31 14.25-1.72 0.8-0.07 1.57-0.18 2.37-0.23 0.18-0.04 0.42-0.04 0.65-0.04 1.72-0.14 3.34-0.23 4.77-0.32 0.25-0.04 0.49-0.04 0.72-0.06 0.2-0.02 0.38-0.02 0.58-0.04 0.07 0.07 0.13 0.16 0.22 0.23 0.4 0.47 0.84 0.93 1.32 1.43 6.81 7.07 18.19 10.68 27.8 10.44 9.39-0.24 18.59-4.03 25.56-10.24 0.65-0.58 1.28-1.17 1.88-1.81 0.2-0.18 0.38-0.38 0.58-0.58 0.69 0.07 8.53 0.96 9.14 1.05 3.61 0.52 7.68 0.14 10.28 3.23 2.82 3.36 1.68 9.3 2.28 13.58 1.53 11.04 5.24 21.68 9.47 31.94 1.55 3.77 3.2 7.66 4.5 11.6 0.29 0.85 0.54 1.7 0.8 2.55 1.75 6.07 2.49 12.21 0.69 18.19-2.1 6.94-7.6 13.04-7.4 20.57 0.22 7.41 0.13 15.34 1.1 22.81 1.34 10.08 4.3 19.87 6.81 29.71 0.33 1.28 0.65 2.6 0.9 3.94"></path>
  <path class="cls-8" d="m428.65 139.84-25.11 32.5c-0.47 0.6-1.33 0.71-1.93 0.25l-3.42-2.64c-0.6-0.47-0.71-1.33-0.25-1.93l25.11-32.5c0.47-0.6 1.33-0.71 1.93-0.25l3.42 2.64c0.6 0.46 0.71 1.33 0.25 1.93"></path>
  <path class="cls-17" d="m420.7 181.83s-8.21 2.01-5.34 5.76 12.21 0.23 17.93 6.87c5.73 6.64 14.29 8 14.29 8l41.83 50.2c0.37 0.53 36.85 56.43 58.61 37.22 16.14-14.25-11.83-38.3-37.59-62.1-10.71-9.89-47.78-34.14-48.15-40.32-0.6-10.25-6.7-15.79-7.62-14.52l-33.98 8.89z"></path>
  <path class="cls-8" d="m404.51 171.09 23.17-29.99 36.91 36.94c1.54 1.54 1.69 3.98 0.36 5.71l-9.54 12.35c-1.32 1.71-3.71 2.19-5.59 1.1z"></path>
  <polygon class="cls-2" points="451.91 193.04 407.37 167.38 432.49 152.48 461.3 181.32"></polygon>
  <path class="cls-17" d="m435.93 158.55c-0.2 1.52 0.54 2.99 1.26 4.32 2.74 5.09 5.98 10.63 11.23 12.18 1.56 0.46 3.22 0.53 4.83 0.35 2.31-0.25 4.76-1.15 6.04-3.25 1.33-2.19 1.03-5.18-0.13-7.49-1.16-2.3-3.03-4.07-4.86-5.79-0.95-0.89-1.89-1.78-2.84-2.66-1.41-1.32-2.85-2.66-4.58-3.41-3.07-1.34-10.42 1.7-10.95 5.75"></path>
  <path class="cls-4" d="m384.08 66.26c-5.96 1.96-11.71 4.27-17.87 5.61-5.33 1.16-11.57 0.56-16.31 3.35-1 0.59-1.09 2.21 0 2.78 5.01 2.62 11.42 0.99 16.78-0.03 6.74-1.27 13.54-3.28 19.5-6.73 2.62-1.52 0.9-5.97-2.1-4.99"></path>
  <path class="cls-13" d="m395.81 272.89c-5.67 8.22-16.45 25.34-16.45 32.43 0.19 8.79 7.28 15.88 16.07 16.07 9.08 0.19 16.64-7 16.83-16.07 0-7.09-10.68-24.11-16.45-32.43"></path>
  <path class="cls-13" d="m395.9 325.17h-0.47c-10.87-0.28-19.57-8.98-19.76-19.76 0-10.68 17.96-35.74 18.72-36.87l1.51-2.17 1.51 2.17c0.76 1.04 18.72 26.19 18.72 36.78-0.28 11.06-9.36 19.85-20.23 19.85"></path>
  <path class="cls-15" d="m178.68 220.21c1.47 0 2.65-1.19 2.65-2.65v-64.45c0-12.63-3.99-24.93-11.4-35.15-7.45-10.27-14.9-20.54-22.35-30.82h1.53v-10.96h-33.95v10.96h1.44c-7.45 10.27-14.9 20.54-22.35 30.82-7.41 10.22-11.4 22.52-11.4 35.15v64.45c0 1.47 1.19 2.65 2.65 2.65s1.16 2.68 1.16 4.14v2.82c0 1.47 0.3 2.65-1.16 2.65s-2.65 1.19-2.65 2.65v71.77c0 9.2 7.46 16.66 16.66 16.66h65.17c9.2 0 16.66-7.46 16.66-16.66v-71.77c0-1.47-1.19-2.65-2.65-2.65s-1.16-1.19-1.16-2.65v-2.82c0-1.46-0.3-4.14 1.16-4.14"></path>
  <path class="cls-2" d="m177.43 217.83c0.31 0 0.57-0.26 0.57-0.58v-63.24c0-12.04-3.71-23.55-10.71-33.29l-13.11-18.23h-44.17l-13.11 18.23c-7.01 9.74-10.71 21.26-10.71 33.29v63.24c0 0.32 0.26 0.58 0.57 0.58 0.8 0 1.54 0.31 2.09 0.88 1.16 1.19 1.11 3.09 1.07 4.62v0.6 2.76c0 0.2 0 0.39 0.01 0.57 0.03 0.98 0.07 2.21-0.85 3.16-0.57 0.6-1.35 0.9-2.31 0.9-0.31 0-0.57 0.26-0.57 0.58v70.42c0 7.9 6.37 14.32 14.21 14.32h63.42c7.83 0 14.2-6.42 14.2-14.32v-70.42c0-0.32-0.26-0.58-0.57-0.58-0.96 0-1.74-0.3-2.31-0.9-0.92-0.95-0.88-2.18-0.85-3.16 0-0.18 0.01-0.37 0.01-0.57v-2.76c0-0.18 0-0.38-0.01-0.6-0.04-1.53-0.09-3.42 1.07-4.62 0.55-0.56 1.29-0.88 2.09-0.88"></path>
  <path class="cls-14" d="m169.56 246.63c0 2.29-1.86 4.15-4.15 4.15s-4.15-1.86-4.15-4.15 1.86-4.15 4.15-4.15 4.15 1.86 4.15 4.15"></path>
  <path class="cls-14" d="m131.23 155.33c-0.52 1.93-2.5 3.08-4.43 2.57-1.93-0.52-3.08-2.5-2.57-4.43 0.52-1.93 2.5-3.08 4.43-2.57s3.08 2.5 2.57 4.43"></path>
  <path class="cls-14" d="m162.32 174.21c-0.62 2.32-2.99 3.69-5.31 3.08-2.31-0.62-3.69-2.99-3.07-5.31s2.99-3.69 5.31-3.08c2.32 0.62 3.69 2.99 3.08 5.31"></path>
  <path class="cls-14" d="m119.05 178.88c-0.44 1.65-2.13 2.63-3.78 2.19s-2.63-2.13-2.19-3.78 2.13-2.63 3.78-2.19 2.63 2.13 2.19 3.78"></path>
  <path class="cls-10" d="m86.67 227.19c0 1.34 0.25 2.45-0.85 2.61h0.02c1.08-0.17 0.84-1.28 0.83-2.61"></path>
  <path class="cls-15" d="m149.11 79.56h-10.67v4.13c0 1.9-1.54 3.45-3.45 3.45h-18.39l-3.63 5c7.76 0.04 15.52 0.07 23.27 0.11 2.02 2.78 4.03 5.56 6.05 8.34h12.49l13.48 18.58c5.01 6.91 8.38 14.69 9.96 22.91h2.08c0.67 3.59 1.03 7.25 1.03 10.93-0.02-12.59-4.01-24.86-11.41-35.06-7.45-10.27-14.9-20.54-22.35-30.82h1.53v-7.58z"></path>
  <path class="cls-15" d="m181.34 212.61h-2.07v4.95c0 0.32-0.26 0.59-0.59 0.59-0.82 0-1.58 0.32-2.14 0.89-1.19 1.22-1.14 3.15-1.1 4.71v0.61 2.82c0 0.2 0 0.4-0.01 0.58-0.03 1-0.07 2.25 0.87 3.22 0.59 0.61 1.39 0.92 2.37 0.92 0.32 0 0.59 0.26 0.59 0.59v71.77c0 8.05-6.55 14.6-14.6 14.6h-7c-2.38 1.32-5.13 2.07-8.04 2.07h15.04c9.2 0 16.66-7.46 16.66-16.66v-71.77c0-1.47-1.19-2.65-2.65-2.65-1.04 0-1.19-0.6-1.19-1.47 0-0.36 0.03-0.76 0.03-1.19v-2.82c0-0.43-0.03-0.96-0.03-1.5 0-1.3 0.15-2.65 1.19-2.65 1.47 0 2.65-1.19 2.65-2.65v-4.94z"></path>
  <path class="cls-15" d="m88.38 220.21h-2.88c1.04 0 1.19 1.35 1.19 2.65 0 0.54-0.03 1.06-0.03 1.49v2.84c0 1.34 0.25 2.44-0.83 2.61h2.74c0.22-0.69 0.19-1.42 0.17-2.05 0-0.18-0.01-0.38-0.01-0.58v-2.82-0.61c0.03-1.12 0.06-2.43-0.36-3.53"></path>
  <path class="cls-16" d="m116.18 95.47c-1.42 1.49-2.81 3.21-4.24 5.13h1.75c0.79-1.62 1.62-3.33 2.49-5.13"></path>
  <path class="cls-16" d="m93.88 317.71c2.33 1.68 4.72 2.17 6.05 2.34-0.29-0.36-0.59-0.77-0.9-1.22-1.82-0.06-3.55-0.45-5.14-1.12"></path>
  <path class="cls-14" d="m136.93 243.88c0 2.91-2.36 5.26-5.26 5.26s-5.26-2.36-5.26-5.26 2.36-5.26 5.26-5.26 5.26 2.36 5.26 5.26"></path>
  <path class="cls-14" d="m118.74 282.75c0 2.91-2.36 5.26-5.26 5.26s-5.26-2.36-5.26-5.26 2.36-5.26 5.26-5.26 5.26 2.36 5.26 5.26"></path>
  <path class="cls-14" d="m150.91 264.44c0 2.91-2.36 5.26-5.26 5.26s-5.26-2.36-5.26-5.26 2.36-5.26 5.26-5.26 5.26 2.36 5.26 5.26"></path>
  <path class="cls-14" d="m139.98 302.06c0 2.29-1.86 4.15-4.15 4.15s-4.15-1.86-4.15-4.15 1.86-4.15 4.15-4.15 4.15 1.86 4.15 4.15"></path>
  <path class="cls-1" d="m145.99 59.86h-27.76c-2.4 0-4.34 1.94-4.34 4.34v15.37h36.44v-15.37c0-2.4-1.94-4.34-4.34-4.34"></path>
  <path class="cls-1" d="m145.99 59.86h-10.07c2.33 0 4.22 2.64 4.22 5.89v13.82h10.19v-13.82c0-2.96-1.57-5.42-3.61-5.83-0.24-0.04-0.48-0.06-0.73-0.06"></path>
  <path class="cls-14" d="m154.7 199.71c0 2.91-2.36 5.26-5.26 5.26s-5.26-2.36-5.26-5.26 2.36-5.26 5.26-5.26 5.26 2.36 5.26 5.26"></path>
  <path class="cls-14" d="m113.98 221.32c-0.52 1.93-2.5 3.08-4.43 2.57-1.93-0.52-3.08-2.5-2.57-4.43 0.52-1.93 2.5-3.08 4.43-2.57s3.08 2.5 2.57 4.43"></path>
  <path class="cls-15" d="m237.29 198.31h-84l5.78 116.93c0.2 3.14 2.74 5.68 5.98 5.68h60.49c3.14 0 5.78-2.53 5.98-5.68l5.78-116.93z"></path>
  <path class="cls-2" d="m229.59 241.37h-68.59l2.23 68.59c0.1 3.45 1.93 6.18 4.05 6.18h56.13c2.13 0 3.95-2.74 4.05-6.18z"></path>
  <path class="cls-14" d="m183.46 261.64c0 2.6-2.11 4.71-4.71 4.71s-4.71-2.11-4.71-4.71 2.11-4.71 4.71-4.71 4.71 2.11 4.71 4.71"></path>
  <path class="cls-14" d="m197.3 279.46c0 2.05-1.66 3.72-3.72 3.72s-3.72-1.66-3.72-3.72 1.66-3.72 3.72-3.72 3.72 1.66 3.72 3.72"></path>
  <path class="cls-14" d="m216.45 247.89c-0.39 1.48-1.91 2.35-3.38 1.96-1.48-0.39-2.36-1.91-1.96-3.39 0.39-1.48 1.91-2.35 3.38-1.96 1.48 0.39 2.36 1.91 1.96 3.38"></path>
  <metadata></metadata>
</svg>
